<?xml version="1.0" encoding="UTF-8" standalone="no"?>
<!-- Created with Inkscape (http://www.inkscape.org/) -->

<svg
   xmlns:dc="http://purl.org/dc/elements/1.1/"
   xmlns:cc="http://creativecommons.org/ns#"
   xmlns:rdf="http://www.w3.org/1999/02/22-rdf-syntax-ns#"
   xmlns:svg="http://www.w3.org/2000/svg"
   xmlns="http://www.w3.org/2000/svg"
   xmlns:sodipodi="http://sodipodi.sourceforge.net/DTD/sodipodi-0.dtd"
   xmlns:inkscape="http://www.inkscape.org/namespaces/inkscape"
   id="svg4429"
   version="1.1"
   inkscape:version="0.91 r13725"
   xml:space="preserve"
   width="261.76199"
   height="129.825"
   viewBox="0 0 261.76199 129.825"
   sodipodi:docname="logo2-black.svg"><metadata
     id="metadata4435"><rdf:RDF><cc:Work
         rdf:about=""><dc:format>image/svg+xml</dc:format><dc:type
           rdf:resource="http://purl.org/dc/dcmitype/StillImage" /><dc:title></dc:title></cc:Work></rdf:RDF></metadata><defs
     id="defs4433"><clipPath
       clipPathUnits="userSpaceOnUse"
       id="clipPath4445"><path
         d="M 0,0 810,0 810,630 0,630 0,0 Z"
         id="path4447"
         inkscape:connector-curvature="0" /></clipPath></defs><sodipodi:namedview
     pagecolor="#ffffff"
     bordercolor="#666666"
     borderopacity="1"
     objecttolerance="10"
     gridtolerance="10"
     guidetolerance="10"
     inkscape:pageopacity="0"
     inkscape:pageshadow="2"
     inkscape:window-width="1440"
     inkscape:window-height="855"
     id="namedview4431"
     showgrid="false"
     inkscape:zoom="2.3204331"
     inkscape:cx="160.54005"
     inkscape:cy="-13.397498"
     inkscape:window-x="0"
     inkscape:window-y="0"
     inkscape:window-maximized="0"
     inkscape:current-layer="g4437"
     fit-margin-top="0"
     fit-margin-left="0"
     fit-margin-right="0"
     fit-margin-bottom="0" /><g
     id="g4437"
     inkscape:groupmode="layer"
     inkscape:label="logo-rev-2"
     transform="matrix(1.25,0,0,-1.25,-380.22458,494.43181)"><g
       id="g4439"
       style="fill:#000000;fill-opacity:1" /><g
       id="g4441"
       style="fill:#000000;fill-opacity:1"
       transform="translate(17.238161,28.615347)"><g
         id="g4443"
         clip-path="url(#clipPath4445)"
         style="fill:#000000;fill-opacity:1"><g
           id="g4449"
           transform="translate(9,9)"
           style="fill:#000000;fill-opacity:1" /><path
           d="m 339.8754,270.9947 0,12.9498 c 0,2.4979 2.0254,4.5221 4.5227,4.5221 l 0.3682,0 c 2.4985,0 4.5236,-2.0242 4.5236,-4.5221 l 0,-7.0413 c 2.7337,1.8683 5.3625,3.8279 7.8375,5.8989 l 0,19.1228 -33.5257,10.5338 -33.525,-10.5338 0,-18.9683 c 2.4862,-2.1129 5.129,-4.1134 7.8794,-6.0174 l 0,7.0053 c 0,2.4979 2.0251,4.5221 4.5233,4.5221 l 0.3685,0 c 2.497,0 4.5224,-2.0242 4.5224,-4.5221 l 0,-12.9711 c 1.4451,-0.8458 2.9018,-1.6727 4.3659,-2.4826 1.5503,-0.8574 3.909,-3.1076 6.1149,-5.4207 l 0,15.7383 c 0,3.2014 2.596,5.7974 5.7974,5.7974 l 0,0 c 3.2012,0 5.7966,-2.596 5.7966,-5.7974 l 0,-15.6342 c 2.1773,2.2765 4.4866,4.4716 6.0137,5.3166 1.4799,0.8187 2.9545,1.6523 4.4166,2.5039"
           style="fill:#000000;fill-opacity:1;fill-rule:nonzero;stroke:none"
           id="path4453"
           inkscape:connector-curvature="0" /><path
           d="m 326.8636,318.1093 -6.5231,0 0,14.3351 c 0,1.8017 1.4607,3.261 3.2612,3.261 1.8012,0 3.2619,-1.4593 3.2619,-3.261 l 0,-14.3351 z m 33.3989,-12.295 -28.266,8.883 0,17.7216 4.4496,0 -12.2627,21.1362 0,7.9898 4.1975,0 0,1.1633 -4.1975,0 0,4.2219 -1.1625,0 0,-4.2219 -4.1972,0 0,-1.1633 4.1972,0 0,-7.9898 -12.2629,-21.1362 4.4501,0 0,-17.7216 -28.2666,-8.883 0,-2.6504 36.6602,11.5183 36.6608,-11.5183 0,2.6504 z"
           style="fill:#000000;fill-opacity:1;fill-rule:nonzero;stroke:none"
           id="path4455"
           inkscape:connector-curvature="0" /></g></g><g
       transform="matrix(0.8,0,0,-0.8,301.36819,312.26326)"
       style="font-style:normal;font-variant:normal;font-weight:bold;font-stretch:normal;font-size:40px;line-height:125%;font-family:'Bangla MN';-inkscape-font-specification:'Bangla MN, Bold';text-align:start;letter-spacing:7.76000547px;word-spacing:0px;writing-mode:lr-tb;text-anchor:start;fill:#000000;fill-opacity:1;stroke:none;stroke-width:1px;stroke-linecap:butt;stroke-linejoin:miter;stroke-opacity:1"
       id="flowRoot4376"><path
         d="m 109.78784,-52.98269 3.40576,0 -1.66626,-12.231445 -1.7395,12.231445 z m -8.34961,11.151123 7.12281,-32.958984 5.89599,0 7.10449,32.958984 -6.57348,0 -1.35498,-7.04956 -4.30298,0 -1.28174,7.04956 -6.61011,0 z"
         style="font-style:normal;font-variant:normal;font-weight:bold;font-stretch:normal;font-size:37.5px;line-height:117.99999475%;font-family:Oswald;-inkscape-font-specification:'Oswald, Bold';text-align:start;letter-spacing:10.28999996px;writing-mode:lr-tb;text-anchor:start"
         id="path4279"
         inkscape:connector-curvature="0" /><path
         d="m 133.66427,-54.081323 0,-20.709228 6.66504,0 0,20.507812 q 0,1.757813 0.0183,2.563477 0.0183,0.787353 0.0915,1.940918 0.0732,1.135254 0.25635,1.593017 0.1831,0.457764 0.49438,0.98877 0.32959,0.531006 0.84229,0.695801 0.51269,0.164795 1.24512,0.164795 0.73242,0 1.24511,-0.164795 0.5127,-0.164795 0.82398,-0.677491 0.32959,-0.531005 0.51269,-0.988769 0.18311,-0.457764 0.25635,-1.574707 0.0732,-1.135254 0.0915,-1.904297 0.0183,-0.787354 0.0183,-2.526856 0,-0.07324 0,-0.109863 l 0,-20.507812 6.66504,0 0,20.709228 q 0,1.574707 -0.0916,2.856446 -0.0915,1.281738 -0.3479,2.655029 -0.25635,1.373291 -0.6958,2.435303 -0.43945,1.043701 -1.17188,2.01416 -0.73242,0.952148 -1.7395,1.574707 -0.98877,0.622558 -2.39868,0.988769 -1.40991,0.366211 -3.16772,0.366211 -1.75782,0 -3.16773,-0.366211 -1.40991,-0.366211 -2.39868,-0.988769 -0.98877,-0.622559 -1.72119,-1.574707 -0.73242,-0.970459 -1.17188,-2.01416 -0.43945,-1.062012 -0.71411,-2.435303 -0.25635,-1.373291 -0.3479,-2.655029 -0.0916,-1.281739 -0.0916,-2.856446 z"
         style="font-style:normal;font-variant:normal;font-weight:bold;font-stretch:normal;font-size:37.5px;line-height:117.99999475%;font-family:Oswald;-inkscape-font-specification:'Oswald, Bold';text-align:start;letter-spacing:10.28999996px;writing-mode:lr-tb;text-anchor:start"
         id="path4281"
         inkscape:connector-curvature="0" /><path
         d="m 165.81706,-51.261499 6.75659,-1.300048 q 0,1.00708 0.0366,1.776123 0.0366,0.769043 0.1831,1.68457 0.1648,0.897217 0.42114,1.483154 0.27466,0.567627 0.75074,0.970459 0.49438,0.384522 1.15356,0.384522 1.97754,0 1.97754,-2.526856 0,-3.460693 -3.90015,-6.884765 l -2.06909,-1.757813 q -0.98877,-0.823974 -1.57471,-1.373291 -0.58593,-0.549316 -1.3916,-1.483154 -0.78735,-0.933838 -1.24511,-1.794434 -0.43946,-0.878906 -0.76905,-2.105713 -0.31128,-1.226806 -0.31128,-2.600097 0,-4.01001 2.54517,-6.33545 2.54516,-2.34375 6.75659,-2.34375 3.49732,0 5.95093,2.490235 2.45361,2.490234 2.45361,6.005859 l -0.0183,0.238037 q 0,0.238037 0,0.549317 l -6.88476,0.952148 q 0,-0.201416 0.0183,-0.622558 0.0366,-0.439454 0.0366,-0.714112 0,-0.659179 -0.0916,-1.263427 -0.0915,-0.604249 -0.31127,-1.208497 -0.20142,-0.604248 -0.64087,-0.952148 -0.43946,-0.366211 -1.06202,-0.366211 -1.09863,0 -1.64794,0.860596 -0.54932,0.860595 -0.54932,2.03247 0,1.025391 0.31128,1.922608 0.32959,0.897217 0.97046,1.68457 0.65918,0.769043 1.20849,1.281738 0.54932,0.512696 1.46485,1.263428 0.91552,0.732422 1.30005,1.080322 1.40991,1.245118 2.38037,2.34375 0.97046,1.080323 1.83105,2.453614 0.8606,1.373291 1.28174,2.966308 0.43945,1.593018 0.43945,3.442383 0,3.460694 -2.47192,5.67627 -2.47192,2.197265 -6.00586,2.197265 -2.28882,0 -4.06494,-0.842285 -1.77612,-0.842285 -2.87476,-2.288818 -1.08032,-1.446533 -1.66626,-3.204346 -0.58593,-1.757812 -0.67749,-3.771973 z"
         style="font-style:normal;font-variant:normal;font-weight:bold;font-stretch:normal;font-size:37.5px;line-height:117.99999475%;font-family:Oswald;-inkscape-font-specification:'Oswald, Bold';text-align:start;letter-spacing:10.28999996px;writing-mode:lr-tb;text-anchor:start"
         id="path4283"
         inkscape:connector-curvature="0" /><path
         d="m 199.63612,-41.831567 0,-27.978516 -4.83399,0 0,-4.980468 16.24146,0 0,4.980468 -4.74243,0 0,27.978516 -6.66504,0 z"
         style="font-style:normal;font-variant:normal;font-weight:bold;font-stretch:normal;font-size:37.5px;line-height:117.99999475%;font-family:Oswald;-inkscape-font-specification:'Oswald, Bold';text-align:start;letter-spacing:10.28999996px;writing-mode:lr-tb;text-anchor:start"
         id="path4285"
         inkscape:connector-curvature="0" /><path
         d="m 223.56747,-41.831567 0,-32.958984 6.66504,0 0,32.958984 -6.66504,0 z"
         style="font-style:normal;font-variant:normal;font-weight:bold;font-stretch:normal;font-size:37.5px;line-height:117.99999475%;font-family:Oswald;-inkscape-font-specification:'Oswald, Bold';text-align:start;letter-spacing:10.28999996px;writing-mode:lr-tb;text-anchor:start"
         id="path4287"
         inkscape:connector-curvature="0" /><path
         d="m 244.47758,-41.831567 0,-32.977295 4.79737,0 7.23266,17.248535 0,-17.248535 5.52979,0 0,32.977295 -4.61426,0 -7.21435,-18.292236 0,18.292236 -5.73121,0 z"
         style="font-style:normal;font-variant:normal;font-weight:bold;font-stretch:normal;font-size:37.5px;line-height:117.99999475%;font-family:Oswald;-inkscape-font-specification:'Oswald, Bold';text-align:start;letter-spacing:10.28999996px;writing-mode:lr-tb;text-anchor:start"
         id="path4289"
         inkscape:connector-curvature="0" /><path
         d="m 102.81152,-8.5862094 0,-10.9130856 q 0,-11.682129 9.55811,-11.682129 2.01416,0 3.57056,0.549316 1.5747,0.531006 2.63671,1.483154 1.06202,0.952149 1.73951,2.34375 0.6958,1.391602 0.98877,3.021241 0.31128,1.629638 0.31128,3.588867 l 0,2.838135 -6.55518,0 0,-3.039551 q 0,-0.897217 -0.0366,-1.538086 -0.0366,-0.65918 -0.20142,-1.483154 -0.14648,-0.842286 -0.42114,-1.354981 -0.25635,-0.531006 -0.78735,-0.897217 -0.5127,-0.366211 -1.24512,-0.366211 -2.89307,0 -2.89307,4.870606 l 0,14.2272948 q 0,4.8522949 2.89307,4.8522949 0.86059,0 1.44653,-0.4943847 0.58594,-0.4943848 0.84229,-1.3916016 0.25634,-0.9155273 0.3479,-1.776123 0.0915,-0.8789063 0.0915,-1.9958496 l 0,-3.3874508 6.51856,0 0,2.7832027 q -0.0366,1.8859863 -0.31128,3.4790039 -0.27466,1.5930176 -0.93384,3.0944824 -0.65918,1.50146488 -1.68457,2.54516605 -1.00708,1.02539065 -2.61841,1.64794925 -1.61133,0.6408691 -3.69873,0.6408691 -2.14234,0 -3.80859,-0.6225586 -1.64795,-0.604248 -2.72828,-1.62963866 -1.06201,-1.04370117 -1.75781,-2.54516604 -0.6958,-1.5197754 -0.98877,-3.1860351 -0.27466,-1.6662598 -0.27466,-3.6621094 z"
         style="font-style:normal;font-variant:normal;font-weight:bold;font-stretch:normal;font-size:37.5px;line-height:117.99999475%;font-family:Oswald;-inkscape-font-specification:'Oswald, Bold';text-align:start;letter-spacing:9.96000099px;writing-mode:lr-tb;text-anchor:start"
         id="path4291"
         inkscape:connector-curvature="0" /><path
         d="m 134.72587,2.4184293 0,-32.9589843 6.66504,0 0,13.513183 4.77905,0 0,-13.513183 6.70166,0 0,32.9589843 -6.70166,0 0,-14.7033693 -4.77905,0 0,14.7033693 -6.66504,0 z"
         style="font-style:normal;font-variant:normal;font-weight:bold;font-stretch:normal;font-size:37.5px;line-height:117.99999475%;font-family:Oswald;-inkscape-font-specification:'Oswald, Bold';text-align:start;letter-spacing:9.96000099px;writing-mode:lr-tb;text-anchor:start"
         id="path4293"
         inkscape:connector-curvature="0" /><path
         d="m 173.36019,-8.7326938 3.40576,0 -1.66626,-12.2314452 -1.7395,12.2314452 z m -8.34961,11.1511231 7.1228,-32.9589843 5.896,0 7.10449,32.9589843 -6.57349,0 -1.35498,-7.0495606 -4.30298,0 -1.28173,7.0495606 -6.61011,0 z"
         style="font-style:normal;font-variant:normal;font-weight:bold;font-stretch:normal;font-size:37.5px;line-height:117.99999475%;font-family:Oswald;-inkscape-font-specification:'Oswald, Bold';text-align:start;letter-spacing:9.96000099px;writing-mode:lr-tb;text-anchor:start"
         id="path4295"
         inkscape:connector-curvature="0" /><path
         d="m 203.91956,-16.386502 q 0.531,0 0.93383,-0.05493 0.42115,-0.07324 0.73243,-0.146484 0.31127,-0.09155 0.54931,-0.31128 0.23804,-0.219726 0.38452,-0.384521 0.1648,-0.164795 0.27466,-0.531006 0.10986,-0.384522 0.1648,-0.622559 0.0549,-0.238037 0.0732,-0.769043 0.0366,-0.531005 0.0366,-0.842285 0,-0.32959 0,-1.00708 0,-0.183105 0,-0.274658 0,-0.714111 -0.0183,-1.080322 0,-0.366211 -0.0549,-0.933838 -0.0549,-0.567627 -0.18311,-0.842285 -0.10986,-0.292969 -0.3479,-0.65918 -0.21972,-0.366211 -0.54931,-0.531006 -0.32959,-0.164795 -0.84229,-0.292969 -0.49438,-0.128173 -1.15356,-0.128173 l 0,9.411621 z m -6.71998,18.8049313 0,-32.9589843 7.96509,0 q 4.30298,0 6.26221,2.398682 1.95923,2.398681 1.95923,6.939697 0,2.233887 -0.43945,3.881836 -0.42115,1.647949 -1.19019,2.728271 -0.76904,1.062012 -1.97754,1.721192 -1.2085,0.640869 -2.61841,0.915527 -1.40991,0.256348 -3.25927,0.274658 l 0,14.0991213 -6.70167,0 z"
         style="font-style:normal;font-variant:normal;font-weight:bold;font-stretch:normal;font-size:37.5px;line-height:117.99999475%;font-family:Oswald;-inkscape-font-specification:'Oswald, Bold';text-align:start;letter-spacing:9.96000099px;writing-mode:lr-tb;text-anchor:start"
         id="path4297"
         inkscape:connector-curvature="0" /><path
         d="m 225.90958,2.4184293 0,-32.9589843 13.75122,0 0,4.577637 -7.08618,0 0,8.972168 5.01709,0 0,4.6875 -5.01709,0 0,10.1440426 7.08618,0 0,4.5776367 -13.75122,0 z"
         style="font-style:normal;font-variant:normal;font-weight:bold;font-stretch:normal;font-size:37.5px;line-height:117.99999475%;font-family:Oswald;-inkscape-font-specification:'Oswald, Bold';text-align:start;letter-spacing:9.96000099px;writing-mode:lr-tb;text-anchor:start"
         id="path4299"
         inkscape:connector-curvature="0" /><path
         d="m 252.05611,2.4184293 0,-32.9589843 6.66504,0 0,28.3813476 6.55517,0 0,4.5776367 -13.22021,0 z"
         style="font-style:normal;font-variant:normal;font-weight:bold;font-stretch:normal;font-size:37.5px;line-height:117.99999475%;font-family:Oswald;-inkscape-font-specification:'Oswald, Bold';text-align:start;letter-spacing:9.96000099px;writing-mode:lr-tb;text-anchor:start"
         id="path4301"
         inkscape:connector-curvature="0" /></g></g></svg>