<?xml version="1.0" encoding="UTF-8" standalone="no"?>
<!-- Created with Inkscape (http://www.inkscape.org/) -->

<svg
   xmlns:dc="http://purl.org/dc/elements/1.1/"
   xmlns:cc="http://creativecommons.org/ns#"
   xmlns:rdf="http://www.w3.org/1999/02/22-rdf-syntax-ns#"
   xmlns:svg="http://www.w3.org/2000/svg"
   xmlns="http://www.w3.org/2000/svg"
   xmlns:sodipodi="http://sodipodi.sourceforge.net/DTD/sodipodi-0.dtd"
   xmlns:inkscape="http://www.inkscape.org/namespaces/inkscape"
   width="52.762032mm"
   height="27.791536mm"
   viewBox="0 0 186.95208 98.473947"
   id="svg2"
   version="1.1"
   inkscape:version="0.91 r13725"
   sodipodi:docname="logo-text-raw-white.svg">
  <defs
     id="defs4" />
  <sodipodi:namedview
     id="base"
     pagecolor="#ffffff"
     bordercolor="#666666"
     borderopacity="1.0"
     inkscape:pageopacity="0.0"
     inkscape:pageshadow="2"
     inkscape:zoom="4.4425978"
     inkscape:cx="93.663314"
     inkscape:cy="41.483907"
     inkscape:document-units="px"
     inkscape:current-layer="layer1"
     showgrid="false"
     fit-margin-top="0"
     fit-margin-left="0"
     fit-margin-right="0"
     fit-margin-bottom="0"
     inkscape:window-width="1440"
     inkscape:window-height="851"
     inkscape:window-x="0"
     inkscape:window-y="0"
     inkscape:window-maximized="1" />
  <metadata
     id="metadata7">
    <rdf:RDF>
      <cc:Work
         rdf:about="">
        <dc:format>image/svg+xml</dc:format>
        <dc:type
           rdf:resource="http://purl.org/dc/dcmitype/StillImage" />
        <dc:title></dc:title>
      </cc:Work>
    </rdf:RDF>
  </metadata>
  <g
     inkscape:label="Layer 1"
     inkscape:groupmode="layer"
     id="layer1"
     transform="translate(-219.4896,-157.90953)">
    <g
       transform="scale(1.008433,0.99163751)"
       style="font-style:normal;font-weight:normal;font-size:41.79268646px;line-height:125%;font-family:Sans;letter-spacing:0px;word-spacing:0px;fill:#ffffff;fill-opacity:1;stroke:none;stroke-width:1px;stroke-linecap:butt;stroke-linejoin:miter;stroke-opacity:1"
       id="text4136">
      <path
         d="m 225.32132,159.57161 2.88369,0 6.33813,18.89421 -2.46316,0 -1.62208,-4.80616 -7.50962,0 -1.62208,4.80616 -2.4932,0 6.48832,-18.89421 z m -1.74224,12.22566 6.27805,0 -3.124,-9.31193 -3.15405,9.31193 z"
         style="font-style:normal;font-variant:normal;font-weight:normal;font-stretch:normal;font-size:30.03849411px;font-family:Karla;-inkscape-font-specification:Karla;letter-spacing:17.76189232px;fill:#ffffff;fill-opacity:1"
         id="path4199" />
      <path
         d="m 258.04895,159.57161 0,12.07547 q 0,2.64339 1.32169,3.81489 1.3217,1.1715 3.48447,1.1715 2.16277,0 3.48447,-1.1715 1.32169,-1.1715 1.32169,-3.81489 l 0,-12.07547 2.37304,0 0,12.07547 q 0,3.54454 -1.9525,5.34685 -1.9525,1.80231 -5.25674,1.80231 -3.27419,0 -5.2267,-1.80231 -1.92246,-1.80231 -1.92246,-5.34685 l 0,-12.07547 2.37304,0 z"
         style="font-style:normal;font-variant:normal;font-weight:normal;font-stretch:normal;font-size:30.03849411px;font-family:Karla;-inkscape-font-specification:Karla;letter-spacing:17.76189232px;fill:#ffffff;fill-opacity:1"
         id="path4201" />
      <path
         d="m 303.634,164.1675 q -0.51065,-2.76354 -4.0552,-2.76354 -1.89242,0 -2.91373,0.84107 -1.02131,0.81104 -1.02131,1.98254 0,1.14147 0.63081,1.74224 0.63081,0.60077 2.04262,1.05134 l 3.93504,1.35174 q 2.01258,0.69088 3.18408,1.89242 1.20154,1.20154 1.20154,3.39435 0,2.16277 -1.86239,3.6647 -1.86238,1.47188 -4.98639,1.47188 -3.124,0 -5.13658,-1.562 -1.98254,-1.59204 -2.04262,-4.4457 l 2.31297,0 q 0,1.86239 1.29165,2.85366 1.3217,0.99127 3.36431,0.99127 2.07266,0 3.2742,-0.90115 1.20154,-0.9312 1.20154,-2.16277 0,-1.26162 -0.75096,-1.98254 -0.72093,-0.72093 -2.16278,-1.20154 l -3.33427,-1.23158 q -2.343,-0.781 -3.54454,-1.86239 -1.20154,-1.08139 -1.20154,-3.15404 0,-2.1027 1.68216,-3.48447 1.68215,-1.41181 4.71604,-1.41181 3.03389,0 4.62593,1.35174 1.62208,1.32169 1.86238,3.57458 l -2.31296,0 z"
         style="font-style:normal;font-variant:normal;font-weight:normal;font-stretch:normal;font-size:30.03849411px;font-family:Karla;-inkscape-font-specification:Karla;letter-spacing:17.76189232px;fill:#ffffff;fill-opacity:1"
         id="path4203" />
      <path
         d="m 326.66671,159.57161 14.68883,0 0,2.04262 -6.1579,0 0,16.85159 -2.37304,0 0,-16.85159 -6.15789,0 0,-2.04262 z"
         style="font-style:normal;font-variant:normal;font-weight:normal;font-stretch:normal;font-size:30.03849411px;font-family:Karla;-inkscape-font-specification:Karla;letter-spacing:17.76189232px;fill:#ffffff;fill-opacity:1"
         id="path4205" />
      <path
         d="m 362.3015,159.57161 2.37304,0 0,18.89421 -2.37304,0 0,-18.89421 z"
         style="font-style:normal;font-variant:normal;font-weight:normal;font-stretch:normal;font-size:30.03849411px;font-family:Karla;-inkscape-font-specification:Karla;letter-spacing:17.76189232px;fill:#ffffff;fill-opacity:1"
         id="path4207" />
      <path
         d="m 391.27526,159.57161 9.37201,15.16944 0,-15.16944 2.37304,0 0,18.89421 -2.64339,0 -9.5222,-15.37971 0,15.37971 -2.40308,0 0,-18.89421 2.82362,0 z"
         style="font-style:normal;font-variant:normal;font-weight:normal;font-stretch:normal;font-size:30.03849411px;font-family:Karla;-inkscape-font-specification:Karla;letter-spacing:17.76189232px;fill:#ffffff;fill-opacity:1"
         id="path4209" />
    </g>
    <g
       style="font-style:normal;font-weight:normal;font-size:40px;line-height:125%;font-family:Sans;letter-spacing:0px;word-spacing:0px;fill:#ffffff;fill-opacity:1;stroke:none;stroke-width:1px;stroke-linecap:butt;stroke-linejoin:miter;stroke-opacity:1"
       id="text4140">
      <path
         d="m 219.95535,223.79079 0,-39.375 7.77832,0 5.58106,30.14648 5.58105,-30.14648 7.77832,0 0,39.375 -5.625,0 0,-31.06934 -5.625,31.06934 -4.21875,0 -5.625,-31.06934 0,31.06934 -5.625,0 z"
         style="font-style:normal;font-variant:normal;font-weight:normal;font-stretch:normal;font-size:45px;font-family:Oswald;-inkscape-font-specification:Oswald;letter-spacing:3px;fill:#ffffff;fill-opacity:1"
         id="path4212" />
      <path
         d="m 255.56277,223.79079 0,-39.375 5.625,0 0,39.375 -5.625,0 z"
         style="font-style:normal;font-variant:normal;font-weight:normal;font-stretch:normal;font-size:45px;font-family:Oswald;-inkscape-font-specification:Oswald;letter-spacing:3px;fill:#ffffff;fill-opacity:1"
         id="path4214" />
      <path
         d="m 270.25223,223.79079 0,-39.375 8.72314,0 q 6.17432,0 8.70117,2.52685 2.54883,2.52686 2.54883,8.72315 l 0,15.46875 q 0,6.48193 -2.59277,9.58007 -2.5708,3.07618 -8.70117,3.07618 l -8.6792,0 z m 5.625,-4.21875 3.09814,0 q 1.38428,0 2.37305,-0.2417 0.98877,-0.26367 1.604,-0.92285 0.61524,-0.68116 0.9668,-1.27442 0.35156,-0.61523 0.4834,-1.88965 0.15381,-1.27441 0.17578,-2.0874 0.022,-0.83496 0.022,-2.5708 0,-0.57129 0,-0.85693 l 0,-12.65625 q 0,-1.07666 -0.022,-1.71387 0,-0.63721 -0.0659,-1.49414 -0.0439,-0.87891 -0.15381,-1.38428 -0.10986,-0.50537 -0.30761,-1.1206 -0.19776,-0.63721 -0.50538,-0.98877 -0.28564,-0.35157 -0.72509,-0.7251 -0.41748,-0.39551 -0.98877,-0.57129 -0.54932,-0.19775 -1.29639,-0.30762 -0.74707,-0.13183 -1.66992,-0.13183 l -2.98828,0 0,30.9375 z"
         style="font-style:normal;font-variant:normal;font-weight:normal;font-stretch:normal;font-size:45px;font-family:Oswald;-inkscape-font-specification:Oswald;letter-spacing:3px;fill:#ffffff;fill-opacity:1"
         id="path4216" />
      <path
         d="m 302.32205,223.79079 0,-34.36524 -7.03125,0 0,-5.00976 19.6875,0 0,5.00976 -7.03125,0 0,34.36524 -5.625,0 z"
         style="font-style:normal;font-variant:normal;font-weight:normal;font-stretch:normal;font-size:45px;font-family:Oswald;-inkscape-font-specification:Oswald;letter-spacing:3px;fill:#ffffff;fill-opacity:1"
         id="path4218" />
      <path
         d="m 330.70047,224.18629 q -2.96631,0 -5.09766,-0.90087 -2.10937,-0.90088 -3.36181,-2.63672 -1.25244,-1.73584 -1.82373,-4.06494 -0.57129,-2.35108 -0.57129,-5.44922 l 0,-14.28223 q 0,-3.09814 0.57129,-5.40527 0.57129,-2.30713 1.82373,-3.99903 1.25244,-1.71386 3.36181,-2.5708 2.13135,-0.85693 5.09766,-0.85693 5.75684,0 8.30566,3.2959 2.54883,3.2959 2.54883,9.53613 l 0,14.28223 q 0,3.0542 -0.59326,5.40527 -0.57129,2.3291 -1.82373,4.08691 -1.25244,1.73584 -3.38379,2.6587 -2.10937,0.90087 -5.05371,0.90087 z m -4.10889,-6.39404 q 1.14258,1.77979 4.10889,1.77979 2.96631,0 4.08691,-1.77979 1.14258,-1.77978 1.14258,-5.25146 l 0,-17.09473 q 0,-3.42773 -1.1206,-5.11963 -1.12061,-1.69189 -4.10889,-1.69189 -2.98828,0 -4.10889,1.69189 -1.1206,1.6919 -1.1206,5.11963 l 0,17.09473 q 0,3.47168 1.1206,5.25146 z"
         style="font-style:normal;font-variant:normal;font-weight:normal;font-stretch:normal;font-size:45px;font-family:Oswald;-inkscape-font-specification:Oswald;letter-spacing:3px;fill:#ffffff;fill-opacity:1"
         id="path4220" />
      <path
         d="m 353.93729,223.79079 -7.03125,-39.375 5.625,0 2.8125,18.28125 1.42822,11.25 1.38428,-11.25 2.8125,-18.28125 5.625,0 2.8125,18.28125 1.38427,11.25 1.42823,-11.25 2.8125,-18.28125 5.625,0 -7.03125,39.375 -5.625,0 -2.8125,-18.28125 -1.40625,-11.25 -1.40625,11.25 -2.8125,18.28125 -5.625,0 z"
         style="font-style:normal;font-variant:normal;font-weight:normal;font-stretch:normal;font-size:45px;font-family:Oswald;-inkscape-font-specification:Oswald;letter-spacing:3px;fill:#ffffff;fill-opacity:1"
         id="path4222" />
      <path
         d="m 386.75418,223.79079 0,-39.375 4.21875,0 9.84375,24.3457 0,-24.3457 5.625,0 0,39.375 -3.99902,0 -10.06348,-26.19141 0,26.19141 -5.625,0 z"
         style="font-style:normal;font-variant:normal;font-weight:normal;font-stretch:normal;font-size:45px;font-family:Oswald;-inkscape-font-specification:Oswald;letter-spacing:3px;fill:#ffffff;fill-opacity:1"
         id="path4224" />
    </g>
    <g
       transform="scale(1.0243513,0.97622759)"
       style="font-style:normal;font-weight:normal;font-size:29.59472275px;line-height:125%;font-family:Sans;letter-spacing:0px;word-spacing:0px;fill:#ffffff;fill-opacity:1;stroke:none;stroke-width:1px;stroke-linecap:butt;stroke-linejoin:miter;stroke-opacity:1"
       id="text4165">
      <path
         d="m 232.44993,241.3837 0,3.2159 q -1.54,-1.43432 -3.29139,-2.14393 -1.73628,-0.70961 -3.69903,-0.70961 -3.86512,0 -5.91846,2.3704 -2.05335,2.35531 -2.05335,6.82435 0,4.45394 2.05335,6.82435 2.05334,2.3553 5.91846,2.3553 1.96275,0 3.69903,-0.70961 1.75139,-0.70961 3.29139,-2.14393 l 0,3.1857 q -1.6004,1.08706 -3.39707,1.6306 -1.78158,0.54353 -3.77453,0.54353 -5.11826,0 -8.06239,-3.12531 -2.94413,-3.14041 -2.94413,-8.56063 0,-5.43532 2.94413,-8.56063 2.94413,-3.14041 8.06239,-3.14041 2.02315,0 3.80472,0.54353 1.79668,0.52844 3.36688,1.6004 z"
         style="font-size:30.92093468px;letter-spacing:12.57775593px;fill:#ffffff;fill-opacity:1"
         id="path4227" />
      <path
         d="m 249.7685,239.64742 3.04982,0 0,9.24005 11.08201,0 0,-9.24005 3.04982,0 0,22.54148 -3.04982,0 0,-10.73475 -11.08201,0 0,10.73475 -3.04982,0 0,-22.54148 z"
         style="font-size:30.92093468px;letter-spacing:12.57775593px;fill:#ffffff;fill-opacity:1"
         id="path4229" />
      <path
         d="m 293.1313,242.65195 -4.13688,11.21789 8.28886,0 -4.15198,-11.21789 z m -1.72118,-3.00453 3.45746,0 8.59083,22.54148 -3.1706,0 -2.05335,-5.78257 -10.16103,0 -2.05334,5.78257 -3.2159,0 8.60593,-22.54148 z"
         style="font-size:30.92093468px;letter-spacing:12.57775593px;fill:#ffffff;fill-opacity:1"
         id="path4231" />
      <path
         d="m 322.36228,242.15371 0,8.47004 3.83492,0 q 2.12883,0 3.29139,-1.10216 1.16255,-1.10216 1.16255,-3.14041 0,-2.02315 -1.16255,-3.12531 -1.16256,-1.10216 -3.29139,-1.10216 l -3.83492,0 z m -3.04982,-2.50629 6.88474,0 q 3.78963,0 5.72219,1.72119 1.94765,1.70608 1.94765,5.01257 0,3.33668 -1.94765,5.04277 -1.93256,1.70609 -5.72219,1.70609 l -3.83492,0 0,9.05886 -3.04982,0 0,-22.54148 z"
         style="font-size:30.92093468px;letter-spacing:12.57775593px;fill:#ffffff;fill-opacity:1"
         id="path4233" />
      <path
         d="m 350.55147,239.64742 14.25262,0 0,2.56668 -11.2028,0 0,6.67337 10.73476,0 0,2.56668 -10.73476,0 0,8.16807 11.47457,0 0,2.56668 -14.52439,0 0,-22.54148 z"
         style="font-size:30.92093468px;letter-spacing:12.57775593px;fill:#ffffff;fill-opacity:1"
         id="path4235" />
      <path
         d="m 382.63599,239.64742 3.04982,0 0,19.9748 10.97633,0 0,2.56668 -14.02615,0 0,-22.54148 z"
         style="font-size:30.92093468px;letter-spacing:12.57775593px;fill:#ffffff;fill-opacity:1"
         id="path4237" />
    </g>
  </g>
</svg>
