<?xml version="1.0" encoding="UTF-8" standalone="no"?>
<!-- Created with Inkscape (http://www.inkscape.org/) -->

<svg
   xmlns:dc="http://purl.org/dc/elements/1.1/"
   xmlns:cc="http://creativecommons.org/ns#"
   xmlns:rdf="http://www.w3.org/1999/02/22-rdf-syntax-ns#"
   xmlns:svg="http://www.w3.org/2000/svg"
   xmlns="http://www.w3.org/2000/svg"
   xmlns:sodipodi="http://sodipodi.sourceforge.net/DTD/sodipodi-0.dtd"
   xmlns:inkscape="http://www.inkscape.org/namespaces/inkscape"
   width="36.132675mm"
   height="31.644711mm"
   viewBox="0 0 128.02916 112.12693"
   id="svg4155"
   version="1.1"
   inkscape:version="0.91 r13725"
   sodipodi:docname="small-logo-white.svg">
  <defs
     id="defs4157" />
  <sodipodi:namedview
     id="base"
     pagecolor="#ffffff"
     bordercolor="#666666"
     borderopacity="1.0"
     inkscape:pageopacity="0.0"
     inkscape:pageshadow="2"
     inkscape:zoom="1.979899"
     inkscape:cx="64.949144"
     inkscape:cy="23.341446"
     inkscape:document-units="px"
     inkscape:current-layer="layer1"
     showgrid="false"
     fit-margin-top="0"
     fit-margin-left="0"
     fit-margin-right="0"
     fit-margin-bottom="0"
     inkscape:window-width="1440"
     inkscape:window-height="851"
     inkscape:window-x="0"
     inkscape:window-y="1"
     inkscape:window-maximized="1" />
  <metadata
     id="metadata4160">
    <rdf:RDF>
      <cc:Work
         rdf:about="">
        <dc:format>image/svg+xml</dc:format>
        <dc:type
           rdf:resource="http://purl.org/dc/dcmitype/StillImage" />
        <dc:title></dc:title>
      </cc:Work>
    </rdf:RDF>
  </metadata>
  <g
     inkscape:label="Layer 1"
     inkscape:groupmode="layer"
     id="layer1"
     transform="translate(-308.03266,-470.11764)">
    <g
       style="font-style:normal;font-variant:normal;font-weight:bold;font-stretch:normal;font-size:70px;line-height:125%;font-family:'Archivo Narrow';-inkscape-font-specification:'Archivo Narrow, Bold';text-align:start;letter-spacing:0px;word-spacing:0px;writing-mode:lr-tb;text-anchor:start;fill:#ffffff;fill-opacity:1;stroke:none;stroke-width:1px;stroke-linecap:butt;stroke-linejoin:miter;stroke-opacity:1"
       id="text4703">
      <path
         d="m 349.39008,551.04687 -9.16016,0 -2.93945,-9.43359 -17.70508,0 -2.8711,9.43359 -8.68164,0 15.4834,-48.02246 10.42481,0 15.44922,48.02246 z m -21.05469,-39.95605 q -0.20508,1.26465 -0.44434,2.42676 -0.20508,0.99121 -0.44433,2.11914 -0.23926,1.12793 -0.5127,1.94824 l -4.88769,16.03027 12.7832,0 -4.81934,-16.03027 q -0.27343,-0.95703 -0.54687,-2.08496 -0.27344,-1.12793 -0.44434,-2.11914 -0.23926,-1.12793 -0.41015,-2.29004 l -0.27344,0 z"
         style="fill:#ffffff;fill-opacity:1"
         id="path4746" />
    </g>
    <g
       style="font-style:normal;font-variant:normal;font-weight:bold;font-stretch:normal;font-size:70px;line-height:125%;font-family:'Archivo Narrow';-inkscape-font-specification:'Archivo Narrow, Bold';text-align:start;letter-spacing:0px;word-spacing:0px;writing-mode:lr-tb;text-anchor:start;fill:#ffffff;fill-opacity:1;stroke:none;stroke-width:1px;stroke-linecap:butt;stroke-linejoin:miter;stroke-opacity:1"
       id="text4707">
      <path
         d="m 418.42511,501.31531 q 3.75977,0 6.97266,1.09375 3.24707,1.09375 5.60546,3.38379 2.3584,2.25586 3.69141,5.81054 1.36719,3.52051 1.36719,8.40821 l -9.16016,0 q 0,-2.76856 -0.61523,-4.81934 -0.61524,-2.08496 -1.74317,-3.45215 -1.12793,-1.36719 -2.70019,-2.0166 -1.53809,-0.68359 -3.41797,-0.68359 -2.49512,0 -4.375,1.05957 -1.8457,1.05957 -3.07617,3.04199 -1.23047,1.98242 -1.84571,4.85352 -0.58105,2.83691 -0.58105,6.42578 l 0,3.5205 q 0,3.58887 0.61523,6.45997 0.61524,2.83691 1.87989,4.81933 1.26465,1.98242 3.17871,3.04199 1.91406,1.05957 4.47754,1.05957 1.94824,0 3.52051,-0.64941 1.60644,-0.68359 2.73437,-2.0166 1.12793,-1.36719 1.74316,-3.41797 0.61524,-2.05078 0.61524,-4.81934 l 8.75,0 q 0,4.7168 -1.33301,8.23731 -1.33301,3.48633 -3.69141,5.81054 -2.35839,2.29004 -5.60546,3.45215 -3.21289,1.12793 -7.00684,1.12793 -4.51172,0 -8.06641,-1.5039 -3.55468,-1.50391 -6.01562,-4.58008 -2.46094,-3.07617 -3.75977,-7.72461 -1.26465,-4.68262 -1.26465,-11.04004 0,-6.35742 1.26465,-11.04004 1.29883,-4.68262 3.75977,-7.75879 2.46094,-3.07617 6.01562,-4.58008 3.55469,-1.5039 8.06641,-1.5039 z"
         style="fill:#ffffff;fill-opacity:1"
         id="path4743" />
    </g>
    <path
       style="color:#000000;font-style:normal;font-variant:normal;font-weight:normal;font-stretch:normal;font-size:medium;line-height:normal;font-family:sans-serif;text-indent:0;text-align:start;text-decoration:none;text-decoration-line:none;text-decoration-style:solid;text-decoration-color:#000000;letter-spacing:normal;word-spacing:normal;text-transform:none;direction:ltr;block-progression:tb;writing-mode:lr-tb;baseline-shift:baseline;text-anchor:start;white-space:normal;clip-rule:nonzero;display:inline;overflow:visible;visibility:visible;opacity:1;isolation:auto;mix-blend-mode:normal;color-interpolation:sRGB;color-interpolation-filters:linearRGB;solid-color:#000000;solid-opacity:1;fill:#ffffff;fill-opacity:1;fill-rule:evenodd;stroke:none;stroke-width:9.57786751;stroke-linecap:butt;stroke-linejoin:miter;stroke-miterlimit:4;stroke-dasharray:none;stroke-dashoffset:0;stroke-opacity:1;color-rendering:auto;image-rendering:auto;shape-rendering:auto;text-rendering:auto;enable-background:accumulate"
       d="m 369.1582,470.11719 0,112.12695 9.57813,0 0,-112.12695 -9.57813,0 z"
       id="path4711"
       inkscape:connector-curvature="0" />
  </g>
</svg>
