<?xml version="1.0" encoding="UTF-8" standalone="no"?>
<!-- Created with Inkscape (http://www.inkscape.org/) -->

<svg
   xmlns:dc="http://purl.org/dc/elements/1.1/"
   xmlns:cc="http://creativecommons.org/ns#"
   xmlns:rdf="http://www.w3.org/1999/02/22-rdf-syntax-ns#"
   xmlns:svg="http://www.w3.org/2000/svg"
   xmlns="http://www.w3.org/2000/svg"
   xmlns:sodipodi="http://sodipodi.sourceforge.net/DTD/sodipodi-0.dtd"
   xmlns:inkscape="http://www.inkscape.org/namespaces/inkscape"
   width="44.661655mm"
   height="46.906944mm"
   viewBox="0 0 158.24996 166.20571"
   id="svg2"
   version="1.1"
   inkscape:version="0.91 r13725"
   sodipodi:docname="vert-ac-black.svg">
  <defs
     id="defs4" />
  <sodipodi:namedview
     id="base"
     pagecolor="#ffffff"
     bordercolor="#666666"
     borderopacity="1.0"
     inkscape:pageopacity="0.0"
     inkscape:pageshadow="2"
     inkscape:zoom="0.3671927"
     inkscape:cx="371.48287"
     inkscape:cy="339.51964"
     inkscape:document-units="px"
     inkscape:current-layer="layer1"
     showgrid="false"
     inkscape:window-width="1440"
     inkscape:window-height="851"
     inkscape:window-x="0"
     inkscape:window-y="1"
     inkscape:window-maximized="1"
     fit-margin-top="0"
     fit-margin-left="0"
     fit-margin-right="0"
     fit-margin-bottom="0" />
  <metadata
     id="metadata7">
    <rdf:RDF>
      <cc:Work
         rdf:about="">
        <dc:format>image/svg+xml</dc:format>
        <dc:type
           rdf:resource="http://purl.org/dc/dcmitype/StillImage" />
        <dc:title></dc:title>
      </cc:Work>
    </rdf:RDF>
  </metadata>
  <g
     inkscape:label="Layer 1"
     inkscape:groupmode="layer"
     id="layer1"
     transform="translate(-43.195,-393.03648)">
    <g
       style="font-style:normal;font-weight:normal;font-size:40px;line-height:125%;font-family:Sans;letter-spacing:0px;word-spacing:0px;fill:#000000;fill-opacity:1;stroke:none;stroke-width:1px;stroke-linecap:butt;stroke-linejoin:miter;stroke-opacity:1"
       id="text4136">
      <path
         d="m 106.72,448.07648 -6.72,0 17.92,-55.04 8.8,0 17.92,55.04 -7.2,0 -4.4,-14.08 -21.84,0 -4.48,14.08 z m 15.44,-49.28 -9.2,29.52 18.32,0 -9.12,-29.52 z"
         style="font-style:normal;font-variant:normal;font-weight:normal;font-stretch:normal;font-size:80px;line-height:125%;font-family:'Fira Mono';-inkscape-font-specification:'Fira Mono, Normal';text-align:start;writing-mode:lr-tb;text-anchor:start"
         id="path4181" />
    </g>
    <g
       style="font-style:normal;font-variant:normal;font-weight:normal;font-stretch:normal;font-size:80px;line-height:125%;font-family:'Fira Mono';-inkscape-font-specification:'Fira Mono, Normal';text-align:start;letter-spacing:0px;word-spacing:0px;writing-mode:lr-tb;text-anchor:start;fill:#000000;fill-opacity:1;stroke:none;stroke-width:1px;stroke-linecap:butt;stroke-linejoin:miter;stroke-opacity:1"
       id="text4174">
      <path
         d="m 126.02,502.36218 q 5.2,0 8.8,1.36 3.68,1.28 7.12,4 l -3.84,4.48 q -4.96,-4.08 -11.6,-4.08 -7.52,0 -12.24,5.44 -4.64,5.36 -4.64,17.2 0,11.68 4.56,17.2 4.64,5.44 12.24,5.44 4.16,0 7.12,-1.2 3.04,-1.28 5.68,-3.44 l 3.52,4.56 q -2.72,2.64 -6.8,4.32 -4.08,1.6 -9.6,1.6 -6.8,0 -12.24,-3.28 -5.36,-3.36 -8.48,-9.76 -3.12,-6.4 -3.12,-15.44 0,-8.96 3.12,-15.36 3.2,-6.48 8.56,-9.76 5.36,-3.28 11.84,-3.28 z"
         id="path4184"
         style="" />
    </g>
    <path
       style="fill:none;fill-rule:evenodd;stroke:#000000;stroke-width:5.03496313;stroke-linecap:butt;stroke-linejoin:miter;stroke-miterlimit:4;stroke-dasharray:none;stroke-opacity:1"
       d="m 43.195,476.10251 158.24996,0"
       id="path4178"
       inkscape:connector-curvature="0" />
  </g>
</svg>
