<?xml version="1.0" standalone="no"?>
<!DOCTYPE svg PUBLIC "-//W3C//DTD SVG 20010904//EN"
 "http://www.w3.org/TR/2001/REC-SVG-20010904/DTD/svg10.dtd">
<svg version="1.0" xmlns="http://www.w3.org/2000/svg"
 width="948.000000pt" height="948.000000pt" viewBox="0 0 948.000000 948.000000"
 preserveAspectRatio="xMidYMid meet">
<metadata>
Created by potrace 1.11, written by Peter Selinger 2001-2013
</metadata>
<g transform="translate(0.000000,948.000000) scale(0.100000,-0.100000)"
fill="#000000" stroke="none">
<path d="M4520 4740 l0 -4740 350 0 350 0 0 4740 0 4740 -350 0 -350 0 0
-4740z"/>
<path d="M7865 6819 c-278 -37 -563 -210 -744 -449 -272 -361 -401 -888 -401
-1640 0 -525 70 -950 213 -1291 182 -434 502 -701 931 -775 70 -12 136 -15
286 -11 170 4 208 8 292 30 348 94 602 308 763 642 110 227 153 426 179 813
l5 72 -314 0 -313 0 -7 -67 c-28 -308 -67 -457 -157 -600 -75 -119 -218 -219
-347 -243 -123 -23 -280 -5 -388 45 -256 117 -424 448 -462 908 -14 162 -14
837 -1 982 56 612 308 955 700 955 225 0 403 -114 505 -323 68 -140 94 -255
120 -539 l7 -68 328 0 329 0 -5 83 c-18 286 -44 446 -101 622 -89 275 -215
469 -408 623 -135 109 -363 207 -538 231 -89 12 -381 13 -472 0z"/>
<path d="M1313 6763 l-112 -4 -15 -52 c-8 -29 -200 -720 -426 -1537 -227 -817
-472 -1701 -545 -1965 -74 -264 -130 -483 -126 -488 4 -4 144 -6 311 -5 l303
3 97 370 c53 204 100 382 104 398 l6 27 648 0 648 0 94 -353 c52 -193 100
-374 108 -401 l14 -49 321 6 c176 4 322 9 324 11 6 5 12 -16 -552 2026 -555
2007 -550 1989 -561 2000 -10 10 -470 19 -641 13z m262 -705 c60 -358 59 -355
271 -1179 96 -372 174 -682 174 -688 0 -8 -126 -11 -460 -11 -404 0 -460 2
-460 15 0 8 70 284 156 613 206 790 237 923 284 1210 13 77 26 92 35 40z"/>
</g>
</svg>
