<?xml version="1.0" standalone="no"?>
<!DOCTYPE svg PUBLIC "-//W3C//DTD SVG 20010904//EN"
 "http://www.w3.org/TR/2001/REC-SVG-20010904/DTD/svg10.dtd">
<svg version="1.0" xmlns="http://www.w3.org/2000/svg"
 width="1000.000000pt" height="1000.000000pt" viewBox="0 0 1000.000000 1000.000000"
 preserveAspectRatio="xMidYMid meet">
<metadata>
Created by potrace 1.11, written by Peter Selinger 2001-2013
</metadata>
<g transform="translate(0.000000,1000.000000) scale(0.100000,-0.100000)"
fill="#000000" stroke="none">
<path d="M4790 5000 l0 -4740 350 0 350 0 0 4740 0 4740 -350 0 -350 0 0
-4740z"/>
<path d="M8200 7095 c-8 -2 -49 -9 -90 -15 -595 -96 -981 -613 -1090 -1464
-62 -480 -42 -1109 46 -1506 82 -366 228 -667 421 -863 98 -100 183 -162 308
-223 276 -135 644 -163 965 -74 99 27 279 117 361 179 328 249 504 659 533
1239 l5 102 -318 0 -318 0 -7 -110 c-27 -458 -198 -733 -493 -795 -177 -38
-354 0 -493 104 -195 146 -315 430 -361 851 -17 154 -17 816 0 970 62 572 264
895 594 950 290 49 524 -90 641 -382 48 -122 86 -336 86 -489 l0 -49 333 2
332 3 -3 105 c-20 717 -309 1213 -812 1395 -147 53 -231 66 -435 70 -104 2
-197 2 -205 0z"/>
<path d="M1465 7018 c-3 -7 -250 -899 -550 -1983 -300 -1083 -552 -1991 -559
-2017 l-14 -48 317 0 316 0 104 400 104 400 643 0 643 0 14 -47 c8 -27 56
-207 108 -400 l94 -353 333 0 c313 0 333 1 328 18 -7 23 -1091 3945 -1105
4000 l-12 42 -380 0 c-295 0 -381 -3 -384 -12z m375 -677 c0 -5 14 -90 30
-189 36 -210 48 -264 260 -1081 88 -340 160 -621 160 -625 0 -7 -914 -8 -922
-1 -2 3 80 328 184 722 174 665 211 824 264 1151 4 28 24 47 24 23z"/>
</g>
</svg>
