<?xml version="1.0" standalone="no"?>
<!DOCTYPE svg PUBLIC "-//W3C//DTD SVG 20010904//EN"
 "http://www.w3.org/TR/2001/REC-SVG-20010904/DTD/svg10.dtd">
<svg version="1.0" xmlns="http://www.w3.org/2000/svg"
 width="1198.000000pt" height="1198.000000pt" viewBox="0 0 1198.000000 1198.000000"
 preserveAspectRatio="xMidYMid meet">
<metadata>
Created by potrace 1.11, written by Peter Selinger 2001-2013
</metadata>
<g transform="translate(0.000000,1198.000000) scale(0.100000,-0.100000)"
fill="#000000" stroke="none">
<path d="M5668 11975 c-2 -1 -57 -6 -123 -9 -66 -4 -136 -9 -155 -11 -19 -2
-56 -7 -83 -10 -59 -6 -92 -11 -187 -25 -41 -7 -86 -13 -100 -15 -220 -25
-870 -194 -1055 -275 -11 -4 -65 -25 -120 -46 -476 -178 -1045 -494 -1455
-807 -137 -104 -184 -141 -190 -147 -3 -3 -34 -30 -70 -60 -191 -162 -455
-421 -632 -620 -461 -521 -827 -1121 -1091 -1791 -56 -143 -152 -420 -162
-472 -2 -9 -6 -21 -9 -25 -3 -5 -7 -19 -10 -33 -3 -13 -14 -55 -25 -94 -19
-64 -84 -345 -95 -405 -5 -32 -18 -99 -22 -125 -6 -28 -24 -152 -30 -200 -3
-22 -7 -51 -9 -64 -2 -13 -7 -58 -11 -100 -3 -42 -8 -87 -10 -101 -19 -141
-26 -744 -11 -950 10 -141 22 -264 31 -330 3 -19 8 -57 11 -85 11 -89 15 -116
29 -195 3 -19 8 -46 10 -60 14 -81 50 -249 76 -351 16 -65 32 -129 34 -141 22
-111 195 -612 270 -782 168 -377 306 -633 504 -936 77 -117 195 -284 244 -345
4 -5 29 -37 55 -70 26 -33 50 -62 53 -65 3 -3 23 -27 45 -55 21 -27 42 -52 45
-55 3 -3 39 -43 80 -90 125 -143 359 -380 500 -506 30 -27 60 -55 68 -61 45
-42 293 -241 377 -303 431 -317 986 -615 1495 -802 176 -65 470 -155 590 -183
8 -1 42 -10 75 -18 52 -14 212 -47 285 -60 117 -22 189 -33 265 -43 22 -3 51
-8 65 -10 14 -3 48 -7 75 -9 28 -3 68 -7 90 -10 224 -27 1002 -28 1200 -1 17
2 59 7 95 11 36 4 76 8 90 10 14 2 45 6 70 10 37 5 146 22 245 39 335 59 754
180 1110 321 253 100 586 261 755 364 19 11 42 24 50 28 8 3 80 47 160 97 539
335 1038 771 1452 1271 605 728 1042 1628 1238 2545 29 136 63 325 76 416 3
27 8 57 9 66 2 9 7 48 10 85 4 37 9 71 11 74 26 45 25 1067 -1 1259 -3 19 -7
55 -10 80 -8 70 -17 133 -21 155 -4 20 -14 86 -19 120 -1 11 -8 48 -14 82 -6
35 -13 73 -15 85 -46 267 -209 816 -315 1063 -5 11 -26 61 -46 110 -242 585
-619 1180 -1053 1665 -221 247 -543 546 -810 752 -70 54 -131 101 -137 106 -5
4 -46 32 -90 62 -44 30 -82 57 -85 60 -6 7 -219 141 -300 190 -511 307 -1172
569 -1745 691 -33 7 -64 14 -70 15 -5 1 -26 5 -45 8 -19 4 -42 9 -50 11 -8 2
-31 6 -50 9 -19 3 -46 8 -60 11 -47 10 -75 14 -125 20 -27 3 -57 8 -65 10 -8
2 -35 6 -60 9 -25 3 -92 10 -150 16 -58 7 -125 14 -150 17 -48 5 -797 12 -802
8z m-1602 -1744 c71 -32 109 -75 162 -184 63 -128 338 -756 607 -1382 7 -16
22 -50 33 -75 11 -25 45 -104 75 -175 58 -138 267 -622 297 -690 10 -22 37
-85 60 -140 23 -55 50 -118 60 -140 10 -22 75 -173 144 -335 70 -162 133 -308
140 -325 8 -16 62 -142 121 -280 59 -137 116 -268 126 -290 10 -22 81 -187
158 -367 123 -288 155 -362 191 -443 5 -11 30 -69 55 -130 26 -60 58 -134 71
-163 13 -29 24 -54 24 -56 0 -11 329 -745 375 -837 83 -166 121 -220 250 -358
232 -247 376 -359 627 -483 290 -144 554 -232 793 -264 22 -3 46 -7 53 -10 57
-18 495 -26 646 -11 165 16 453 84 581 136 11 5 58 23 105 41 113 45 275 126
411 206 155 92 188 105 262 105 100 -1 156 -26 231 -105 74 -80 93 -212 44
-316 -32 -69 -57 -96 -133 -146 -264 -176 -663 -355 -957 -429 -57 -14 -119
-30 -138 -35 -40 -10 -250 -46 -325 -55 -91 -11 -599 -15 -675 -5 -41 5 -97
12 -125 15 -27 4 -80 13 -117 20 -37 8 -82 17 -100 20 -71 13 -276 68 -376
101 -374 125 -708 301 -963 506 -93 74 -341 313 -399 383 -117 142 -197 263
-265 400 -57 118 -376 840 -415 939 -4 12 -19 46 -33 76 -14 30 -45 102 -70
160 -54 127 -482 1118 -614 1425 -53 121 -107 247 -120 280 -24 58 -36 85 -82
187 -11 26 -21 49 -21 52 0 3 -13 34 -29 68 -16 35 -57 128 -91 208 -34 80
-68 159 -75 175 -8 17 -35 80 -60 140 -26 61 -53 124 -61 140 -43 97 -254 588
-254 591 0 2 -11 27 -24 56 -13 29 -47 107 -76 173 -28 66 -60 138 -70 160
-10 22 -48 111 -85 198 -38 86 -71 157 -74 157 -4 0 -49 -98 -101 -217 -51
-120 -104 -240 -116 -268 -20 -47 -127 -293 -324 -750 -45 -104 -88 -203 -95
-220 -7 -16 -41 -95 -75 -175 -79 -186 -89 -209 -106 -245 -8 -16 -100 -230
-205 -475 -105 -245 -197 -458 -204 -475 -18 -39 -239 -555 -371 -865 -58
-135 -113 -263 -123 -285 -10 -22 -59 -134 -109 -250 -128 -298 -341 -791
-396 -915 -30 -68 -60 -120 -87 -149 -104 -110 -276 -126 -406 -37 -88 60
-141 170 -130 267 5 41 84 258 132 364 8 16 26 59 40 95 15 36 35 83 45 105 9
22 48 112 85 200 37 88 73 174 81 190 8 17 131 305 275 640 143 336 269 628
279 650 10 22 53 121 94 220 42 99 81 189 86 200 14 29 141 323 145 335 1 3
10 23 19 45 10 22 99 229 198 460 99 231 189 438 199 460 10 22 59 137 109
255 51 118 100 233 110 255 10 22 46 105 80 185 34 80 68 159 75 175 7 17 30
68 50 115 35 82 48 110 85 195 10 22 39 87 64 145 24 58 55 128 67 155 12 28
23 52 24 55 10 31 167 375 212 465 74 150 99 181 163 204 30 11 66 21 80 23
48 7 135 -4 176 -21z m5099 -1715 c55 -4 111 -9 125 -10 14 -2 50 -6 80 -10
428 -53 854 -205 1269 -452 131 -77 192 -131 225 -199 52 -105 34 -239 -44
-328 -69 -78 -204 -121 -299 -95 -20 6 -103 49 -186 97 -187 109 -243 138
-375 194 -155 66 -401 142 -520 161 -19 3 -48 8 -65 12 -139 28 -522 40 -686
21 -363 -40 -719 -154 -1054 -337 -271 -148 -601 -476 -787 -783 -72 -118
-190 -365 -235 -489 -21 -60 -41 -108 -44 -108 -6 0 -89 172 -89 183 0 3 -15
38 -34 79 -58 125 -216 498 -216 510 0 16 64 129 138 242 214 326 551 651 873
842 169 100 388 205 544 259 28 9 59 21 70 26 45 18 268 85 325 96 39 8 44 9
65 16 11 3 36 8 55 11 19 3 69 12 110 20 41 8 102 17 135 21 33 4 67 8 75 10
8 3 62 7 120 11 58 3 106 7 107 8 5 4 221 -1 318 -8z"/>
</g>
</svg>
