<?xml version="1.0" encoding="UTF-8" standalone="no"?>
<!-- Created with Inkscape (http://www.inkscape.org/) -->

<svg
   xmlns:dc="http://purl.org/dc/elements/1.1/"
   xmlns:cc="http://creativecommons.org/ns#"
   xmlns:rdf="http://www.w3.org/1999/02/22-rdf-syntax-ns#"
   xmlns:svg="http://www.w3.org/2000/svg"
   xmlns="http://www.w3.org/2000/svg"
   xmlns:sodipodi="http://sodipodi.sourceforge.net/DTD/sodipodi-0.dtd"
   xmlns:inkscape="http://www.inkscape.org/namespaces/inkscape"
   id="svg4155"
   version="1.1"
   inkscape:version="0.91 r13725"
   xml:space="preserve"
   width="91.651253"
   height="129.825"
   viewBox="0 0 91.651252 129.825"
   sodipodi:docname="logo-img-white.svg"><metadata
     id="metadata4161"><rdf:RDF><cc:Work
         rdf:about=""><dc:format>image/svg+xml</dc:format><dc:type
           rdf:resource="http://purl.org/dc/dcmitype/StillImage" /><dc:title></dc:title></cc:Work></rdf:RDF></metadata><defs
     id="defs4159"><clipPath
       clipPathUnits="userSpaceOnUse"
       id="clipPath4171"><path
         d="M 0,0 810,0 810,630 0,630 0,0 Z"
         id="path4173"
         inkscape:connector-curvature="0" /></clipPath></defs><sodipodi:namedview
     pagecolor="#ffffff"
     bordercolor="#666666"
     borderopacity="1"
     objecttolerance="10"
     gridtolerance="10"
     guidetolerance="10"
     inkscape:pageopacity="0"
     inkscape:pageshadow="2"
     inkscape:window-width="1440"
     inkscape:window-height="855"
     id="namedview4157"
     showgrid="false"
     fit-margin-top="0"
     fit-margin-left="0"
     fit-margin-right="0"
     fit-margin-bottom="0"
     inkscape:zoom="2.2426013"
     inkscape:cx="75.153061"
     inkscape:cy="65.804006"
     inkscape:window-x="0"
     inkscape:window-y="0"
     inkscape:window-maximized="0"
     inkscape:current-layer="g4163" /><g
     id="g4163"
     inkscape:groupmode="layer"
     inkscape:label="logo-rev-2"
     transform="matrix(1.25,0,0,-1.25,-340.84045,457.7708)"><g
       id="g4165" /><g
       id="g4167"><g
         id="g4169"
         clip-path="url(#clipPath4171)"><g
           id="g4175"
           transform="translate(9,9)" /><path
           id="path4181"
           style="fill:#ffffff;fill-opacity:1;fill-rule:nonzero;stroke:none"
           d="m 312.59446,317.39584 -6.5231,0 0,14.3351 c 0,1.8017 1.4607,3.261 3.2612,3.261 1.8012,0 3.2619,-1.4593 3.2619,-3.261 l 0,-14.3351 z m 33.3989,-12.295 -28.266,8.883 0,17.7216 4.4496,0 -12.2627,21.1362 0,7.9898 4.1975,0 0,1.1633 -4.1975,0 0,4.2219 -1.1625,0 0,-4.2219 -4.1972,0 0,-1.1633 4.1972,0 0,-7.9898 -12.2629,-21.1362 4.4501,0 0,-17.7216 -28.2666,-8.883 0,-2.6504 36.6602,11.5183 36.6608,-11.5183 0,2.6504 z m -20.3871,-34.8196 0,12.9498 c 0,2.4979 2.0254,4.5221 4.5227,4.5221 l 0.3682,0 c 2.4985,0 4.5236,-2.0242 4.5236,-4.5221 l 0,-7.0413 c 2.7337,1.8683 5.3625,3.8279 7.8375,5.8989 l 0,19.1228 -33.5257,10.5338 -33.525,-10.5338 0,-18.9683 c 2.4862,-2.1129 5.129,-4.1134 7.8794,-6.0174 l 0,7.0053 c 0,2.4979 2.0251,4.5221 4.5233,4.5221 l 0.3685,0 c 2.497,0 4.5224,-2.0242 4.5224,-4.5221 l 0,-12.9711 c 1.4451,-0.8458 2.9018,-1.6727 4.3659,-2.4826 1.5503,-0.8574 3.909,-3.1076 6.1149,-5.4207 l 0,15.7383 c 0,3.2014 2.596,5.7974 5.7974,5.7974 l 0,0 c 3.2012,0 5.7966,-2.596 5.7966,-5.7974 l 0,-15.6342 c 2.1773,2.2765 4.4866,4.4716 6.0137,5.3166 1.4799,0.8187 2.9545,1.6523 4.4166,2.5039"
           inkscape:connector-curvature="0" /></g></g></g></svg>