<?xml version="1.0" encoding="UTF-8" standalone="no"?>
<!-- Created with Inkscape (http://www.inkscape.org/) -->

<svg
   xmlns:dc="http://purl.org/dc/elements/1.1/"
   xmlns:cc="http://creativecommons.org/ns#"
   xmlns:rdf="http://www.w3.org/1999/02/22-rdf-syntax-ns#"
   xmlns:svg="http://www.w3.org/2000/svg"
   xmlns="http://www.w3.org/2000/svg"
   xmlns:sodipodi="http://sodipodi.sourceforge.net/DTD/sodipodi-0.dtd"
   xmlns:inkscape="http://www.inkscape.org/namespaces/inkscape"
   id="svg4429"
   version="1.1"
   inkscape:version="0.91 r13725"
   xml:space="preserve"
   width="295.14651"
   height="129.825"
   viewBox="0 0 295.14651 129.825"
   sodipodi:docname="logo.svg"><metadata
     id="metadata4435"><rdf:RDF><cc:Work
         rdf:about=""><dc:format>image/svg+xml</dc:format><dc:type
           rdf:resource="http://purl.org/dc/dcmitype/StillImage" /><dc:title></dc:title></cc:Work></rdf:RDF></metadata><defs
     id="defs4433"><clipPath
       clipPathUnits="userSpaceOnUse"
       id="clipPath4445"><path
         d="M 0,0 810,0 810,630 0,630 0,0 Z"
         id="path4447"
         inkscape:connector-curvature="0" /></clipPath></defs><sodipodi:namedview
     pagecolor="#ffffff"
     bordercolor="#666666"
     borderopacity="1"
     objecttolerance="10"
     gridtolerance="10"
     guidetolerance="10"
     inkscape:pageopacity="0"
     inkscape:pageshadow="2"
     inkscape:window-width="1443"
     inkscape:window-height="862"
     id="namedview4431"
     showgrid="false"
     inkscape:zoom="0.82074074"
     inkscape:cx="147.57312"
     inkscape:cy="64.912375"
     inkscape:window-x="0"
     inkscape:window-y="0"
     inkscape:window-maximized="0"
     inkscape:current-layer="g4437"
     fit-margin-top="0"
     fit-margin-left="0"
     fit-margin-right="0"
     fit-margin-bottom="0" /><g
     id="g4437"
     inkscape:groupmode="layer"
     inkscape:label="logo-rev-2"
     transform="matrix(1.25,0,0,-1.25,-358.67687,458.66263)"><g
       id="g4439"
       style="fill:#000000;fill-opacity:1" /><g
       id="g4441"
       style="fill:#000000;fill-opacity:1"><g
         id="g4443"
         clip-path="url(#clipPath4445)"
         style="fill:#000000;fill-opacity:1"><g
           id="g4449"
           transform="translate(9,9)"
           style="fill:#000000;fill-opacity:1" /><path
           d="m 339.8754,270.9947 0,12.9498 c 0,2.4979 2.0254,4.5221 4.5227,4.5221 l 0.3682,0 c 2.4985,0 4.5236,-2.0242 4.5236,-4.5221 l 0,-7.0413 c 2.7337,1.8683 5.3625,3.8279 7.8375,5.8989 l 0,19.1228 -33.5257,10.5338 -33.525,-10.5338 0,-18.9683 c 2.4862,-2.1129 5.129,-4.1134 7.8794,-6.0174 l 0,7.0053 c 0,2.4979 2.0251,4.5221 4.5233,4.5221 l 0.3685,0 c 2.497,0 4.5224,-2.0242 4.5224,-4.5221 l 0,-12.9711 c 1.4451,-0.8458 2.9018,-1.6727 4.3659,-2.4826 1.5503,-0.8574 3.909,-3.1076 6.1149,-5.4207 l 0,15.7383 c 0,3.2014 2.596,5.7974 5.7974,5.7974 l 0,0 c 3.2012,0 5.7966,-2.596 5.7966,-5.7974 l 0,-15.6342 c 2.1773,2.2765 4.4866,4.4716 6.0137,5.3166 1.4799,0.8187 2.9545,1.6523 4.4166,2.5039"
           style="fill:#000000;fill-opacity:1;fill-rule:nonzero;stroke:none"
           id="path4453"
           inkscape:connector-curvature="0" /><path
           d="m 326.8636,318.1093 -6.5231,0 0,14.3351 c 0,1.8017 1.4607,3.261 3.2612,3.261 1.8012,0 3.2619,-1.4593 3.2619,-3.261 l 0,-14.3351 z m 33.3989,-12.295 -28.266,8.883 0,17.7216 4.4496,0 -12.2627,21.1362 0,7.9898 4.1975,0 0,1.1633 -4.1975,0 0,4.2219 -1.1625,0 0,-4.2219 -4.1972,0 0,-1.1633 4.1972,0 0,-7.9898 -12.2629,-21.1362 4.4501,0 0,-17.7216 -28.2666,-8.883 0,-2.6504 36.6602,11.5183 36.6608,-11.5183 0,2.6504 z"
           style="fill:#000000;fill-opacity:1;fill-rule:nonzero;stroke:none"
           id="path4455"
           inkscape:connector-curvature="0" /><path
           d="m 383.1043,353.3023 -6.1038,-13.6077 1.8468,0 1.3218,2.9937 7.7757,0 1.3413,-2.9937 1.8273,0 -6.1039,13.6077 -1.9052,0 z m 4.1797,-9.059 -6.4539,0 3.227,7.3483 3.2269,-7.3483 z"
           style="fill:#000000;fill-opacity:1;fill-rule:nonzero;stroke:none"
           id="path4457"
           inkscape:connector-curvature="0" /><path
           d="m 418.5814,353.3023 -1.6526,0 0,-8.1646 c -0.003,-0.6676 -0.1035,-1.2572 -0.3045,-1.7691 -0.201,-0.5151 -0.4796,-0.9494 -0.8325,-1.2992 -0.3532,-0.3531 -0.7614,-0.6188 -1.2249,-0.8002 -0.4632,-0.1814 -0.9589,-0.2721 -1.487,-0.2721 -0.5281,0 -1.027,0.0873 -1.4967,0.2625 -0.4666,0.178 -0.8847,0.4374 -1.2441,0.7841 -0.3598,0.3463 -0.6449,0.7775 -0.8521,1.2894 -0.2044,0.5151 -0.3113,1.1078 -0.3144,1.785 l 0,8.1646 -1.6719,0 0,-8.1646 c 0.003,-0.7614 0.1038,-1.4448 0.3013,-2.054 0.1976,-0.6057 0.4763,-1.1372 0.8295,-1.5908 0.3532,-0.4535 0.7645,-0.8294 1.2345,-1.1307 0.4697,-0.3013 0.9751,-0.525 1.5227,-0.6772 0.5443,-0.1491 1.1081,-0.2237 1.6912,-0.2237 0.5995,0 1.1695,0.078 1.7172,0.2302 0.5443,0.1491 1.0497,0.379 1.5097,0.6803 0.4632,0.3047 0.8652,0.6837 1.2084,1.1373 0.3402,0.4569 0.6061,0.985 0.7971,1.5908 0.188,0.6026 0.2852,1.2829 0.2883,2.0378 l 0,8.1646 -0.0192,0.0196 z"
           style="fill:#000000;fill-opacity:1;fill-rule:nonzero;stroke:none"
           id="path4459"
           inkscape:connector-curvature="0" /><path
           d="m 445.5241,350.3279 1.2832,0.7971 c -0.3013,0.5119 -0.6448,0.9298 -1.0304,1.2538 -0.3823,0.3274 -0.7937,0.5768 -1.2376,0.7548 -0.4439,0.1749 -0.9104,0.2982 -1.3963,0.3629 -0.4827,0.068 -0.9785,0.1006 -1.4873,0.0972 -0.4763,0 -0.959,-0.0388 -1.4483,-0.123 -0.4923,-0.0842 -0.962,-0.2172 -1.4125,-0.4017 -0.4504,-0.1814 -0.8552,-0.4212 -1.2084,-0.7194 -0.3563,-0.2948 -0.6349,-0.6545 -0.839,-1.0789 -0.2044,-0.4243 -0.3048,-0.9201 -0.3014,-1.487 0.003,-0.5477 0.097,-1.0205 0.2849,-1.4126 0.188,-0.392 0.4473,-0.7225 0.781,-0.9881 0.3305,-0.269 0.716,-0.4893 1.15,-0.661 0.4374,-0.1749 0.9074,-0.3144 1.4094,-0.4244 0.5023,-0.1103 1.0173,-0.2075 1.5454,-0.2852 0.5154,-0.0745 1.0077,-0.1683 1.4774,-0.282 0.47,-0.1134 0.891,-0.2622 1.2603,-0.4436 0.3694,-0.1848 0.6579,-0.4181 0.8717,-0.7033 0.2106,-0.2849 0.3175,-0.6381 0.3175,-1.0593 -0.003,-0.3986 -0.0842,-0.7421 -0.2399,-1.0304 -0.1587,-0.2914 -0.3724,-0.5312 -0.638,-0.7257 -0.269,-0.191 -0.5672,-0.3467 -0.9009,-0.4569 -0.3336,-0.1134 -0.6803,-0.1942 -1.0366,-0.2429 -0.3532,-0.0485 -0.6999,-0.0712 -1.0335,-0.0712 -0.4213,0 -0.8425,0.0485 -1.2668,0.1457 -0.4213,0.0972 -0.8294,0.2463 -1.2184,0.4439 -0.392,0.1976 -0.7483,0.447 -1.0723,0.7484 -0.324,0.2982 -0.5961,0.6514 -0.8164,1.053 l -1.3997,-0.8164 c 0.2656,-0.5672 0.5992,-1.0499 1.0043,-1.4516 0.4016,-0.4016 0.8555,-0.7256 1.364,-0.9751 0.5054,-0.2494 1.0432,-0.4343 1.6166,-0.5508 0.5737,-0.1168 1.1633,-0.1717 1.7691,-0.1717 0.525,0 1.0497,0.0419 1.5747,0.1264 0.5247,0.0873 1.0238,0.2268 1.4967,0.4178 0.4699,0.1911 0.8912,0.4439 1.2605,0.7583 0.3691,0.3141 0.6608,0.6964 0.8748,1.1469 0.2137,0.4535 0.3271,0.9847 0.3336,1.5939 -0.003,0.6123 -0.1037,1.1307 -0.3013,1.5585 -0.1976,0.4277 -0.4697,0.784 -0.8164,1.0692 -0.3501,0.2818 -0.7517,0.5151 -1.2087,0.6934 -0.4566,0.178 -0.9459,0.3206 -1.4709,0.434 -0.5215,0.1102 -1.0593,0.2074 -1.6069,0.2882 -0.5054,0.0811 -0.9785,0.1752 -1.4224,0.2821 -0.4437,0.1068 -0.8357,0.2429 -1.1759,0.4048 -0.3404,0.1652 -0.606,0.3727 -0.8005,0.6222 -0.1941,0.2525 -0.2914,0.5604 -0.2948,0.9266 0.007,0.4113 0.1103,0.7679 0.3144,1.0627 0.2072,0.2948 0.4827,0.5378 0.8263,0.7226 0.3433,0.1876 0.7257,0.3271 1.1469,0.4147 0.4209,0.0907 0.8521,0.1326 1.2895,0.1326 0.3821,-0.003 0.758,-0.0419 1.1338,-0.1133 0.3759,-0.0712 0.7322,-0.1815 1.0724,-0.324 0.3401,-0.1426 0.648,-0.324 0.9266,-0.5412 0.2787,-0.2168 0.5088,-0.4728 0.6965,-0.771"
           style="fill:#000000;fill-opacity:1;fill-rule:nonzero;stroke:none"
           id="path4461"
           inkscape:connector-curvature="0" /><path
           d="m 467.996,351.786 0,-12.0914 1.6719,0 0,12.0914 4.646,0 0,1.5163 -10.9639,0 0,-1.5163 4.646,0 z"
           style="fill:#000000;fill-opacity:1;fill-rule:nonzero;stroke:none"
           id="path4463"
           inkscape:connector-curvature="0" /><path
           d="m 491.3819,339.6946 1.6911,0 0,13.6077 -1.6911,0 0,-13.6077 z"
           style="fill:#000000;fill-opacity:1;fill-rule:nonzero;stroke:none"
           id="path4465"
           inkscape:connector-curvature="0" /><path
           d="m 511.6184,353.3023 0,-13.6077 1.6716,0 0,10.3807 8.3591,-10.3807 1.1664,0 0,13.6077 -1.6718,0 0,-10.4196 -8.3396,10.4196 -1.1857,0 z"
           style="fill:#000000;fill-opacity:1;fill-rule:nonzero;stroke:none"
           id="path4467"
           inkscape:connector-curvature="0" /><path
           d="m 388.489,278.3191 -1.1236,1.1052 c -0.3288,-0.3254 -0.6942,-0.5986 -1.0933,-0.8197 -0.4023,-0.2211 -0.8198,-0.3901 -1.2589,-0.5035 -0.4363,-0.1105 -0.8753,-0.1689 -1.3144,-0.1689 -0.6971,0.003 -1.3173,0.0952 -1.8669,0.2764 -0.5465,0.1811 -1.0256,0.4328 -1.431,0.7523 -0.4053,0.3223 -0.7401,0.697 -1.0071,1.1236 -0.2673,0.4269 -0.4697,0.8876 -0.6049,1.3819 -0.1352,0.4944 -0.2058,1.0072 -0.212,1.5324 -0.003,0.5372 0.0615,1.0593 0.1936,1.5659 0.1321,0.5037 0.3347,0.9734 0.6049,1.4094 0.2701,0.4362 0.608,0.82 1.0193,1.1486 0.4085,0.3285 0.8907,0.5865 1.4403,0.7707 0.5496,0.1874 1.1699,0.2795 1.8638,0.2823 0.4391,0 0.8691,-0.0521 1.296,-0.1533 0.4266,-0.1043 0.8351,-0.2642 1.2282,-0.4759 0.3901,-0.2121 0.7523,-0.4822 1.0871,-0.8076 l 1.1052,1.0318 c -0.439,0.4297 -0.9119,0.7891 -1.4247,1.0746 -0.5096,0.2854 -1.044,0.5006 -1.5967,0.6449 -0.5559,0.1443 -1.1208,0.2148 -1.6951,0.2148 -0.9057,-0.003 -1.7195,-0.1289 -2.4441,-0.3716 -0.7217,-0.2455 -1.3512,-0.5834 -1.8915,-1.0131 -0.5406,-0.4331 -0.9859,-0.9337 -1.3419,-1.5018 -0.3564,-0.568 -0.6234,-1.1758 -0.7954,-1.83 -0.1749,-0.654 -0.258,-1.3235 -0.2518,-2.0081 0.003,-0.688 0.0922,-1.3572 0.2702,-1.999 0.1752,-0.6449 0.4422,-1.2438 0.7954,-1.7966 0.3529,-0.5525 0.7951,-1.0377 1.3326,-1.4522 0.5343,-0.4178 1.1607,-0.7401 1.8824,-0.9734 0.7183,-0.2336 1.5353,-0.3532 2.4441,-0.3563 0.5927,0 1.1701,0.0706 1.7382,0.2089 0.5649,0.1412 1.1052,0.3529 1.6211,0.6387 0.5159,0.2823 0.9919,0.6386 1.4309,1.0686"
           style="fill:#000000;fill-opacity:1;fill-rule:nonzero;stroke:none"
           id="path4469"
           inkscape:connector-curvature="0" /><path
           d="m 413.9697,276.6056 1.6027,0 0,12.8968 -1.6027,0 0,-5.5826 -7.3698,0 0,5.5826 -1.6027,0 0,-12.8968 1.6027,0 0,5.8221 7.3698,0 0,-5.8221 z"
           style="fill:#000000;fill-opacity:1;fill-rule:nonzero;stroke:none"
           id="path4471"
           inkscape:connector-curvature="0" /><path
           d="m 437.5341,289.5024 -5.7852,-12.8968 1.7503,0 1.2527,2.8372 7.3698,0 1.271,-2.8372 1.732,0 -5.7852,12.8968 -1.8054,0 z m 3.9611,-8.5856 -6.1169,0 3.0583,6.9644 3.0586,-6.9644 z"
           style="fill:#000000;fill-opacity:1;fill-rule:nonzero;stroke:none"
           id="path4473"
           inkscape:connector-curvature="0" /><path
           d="m 462.8854,280.7694 4.2744,0 c 0.6602,0.006 1.2439,0.1074 1.7566,0.3041 0.5128,0.1965 0.9519,0.4666 1.3204,0.8045 0.3654,0.3407 0.6571,0.7277 0.8782,1.1636 0.2211,0.4363 0.3654,0.8938 0.4391,1.3788 0.0737,0.4822 0.0737,0.9644 0,1.4462 -0.0737,0.4822 -0.218,0.9428 -0.4391,1.3757 -0.2211,0.4363 -0.5128,0.8232 -0.8782,1.1608 -0.3685,0.3379 -0.8076,0.6049 -1.3204,0.8013 -0.5127,0.1936 -1.0964,0.2948 -1.7566,0.298 l -5.8586,0 0,-12.8968 1.5842,0 0,4.1638 z m 4.2744,1.4924 -4.2744,0 0,5.7484 4.2744,0 c 0.4731,-0.003 0.8907,-0.0862 1.2467,-0.2458 0.3532,-0.1627 0.6511,-0.3778 0.8875,-0.6511 0.2364,-0.2732 0.4144,-0.5802 0.5343,-0.921 0.1197,-0.341 0.1781,-0.6942 0.1781,-1.0564 0,-0.3623 -0.0584,-0.7155 -0.1781,-1.0562 -0.1199,-0.341 -0.2979,-0.648 -0.5343,-0.9182 -0.2364,-0.2732 -0.5343,-0.4912 -0.8875,-0.6542 -0.356,-0.1596 -0.7736,-0.2424 -1.2467,-0.2455"
           style="fill:#000000;fill-opacity:1;fill-rule:nonzero;stroke:none"
           id="path4475"
           inkscape:connector-curvature="0" /><path
           d="m 488.0529,276.6056 9.3594,0 0,1.5293 -7.7752,0 0,4.3665 7.1672,0 0,1.4921 -7.1672,0 0,4.0351 7.4804,0 0,1.4738 -9.0646,0 0,-12.8968 z"
           style="fill:#000000;fill-opacity:1;fill-rule:nonzero;stroke:none"
           id="path4477"
           inkscape:connector-curvature="0" /><path
           d="m 515.7992,289.5024 -1.6027,0 0,-12.8968 8.6224,0 0,1.4924 -7.0197,0 0,11.4044 z"
           style="fill:#000000;fill-opacity:1;fill-rule:nonzero;stroke:none"
           id="path4479"
           inkscape:connector-curvature="0" /><path
           d="m 393.4179,297.5352 0,18.0728 -4.5045,-18.0728 -3.6255,0 -4.5043,18.0728 0,-18.0728 -3.8455,0 0,34.058 3.6805,0 6.4545,-25.6624 6.4548,25.6624 3.7352,0 0,-34.058 -3.8452,0 z"
           style="fill:#000000;fill-opacity:1;fill-rule:nonzero;stroke:none"
           id="path4481"
           inkscape:connector-curvature="0" /><path
           d="m 405.2285,297.5352 0,34.058 3.8455,0 0,-34.058 -3.8455,0 z"
           style="fill:#000000;fill-opacity:1;fill-rule:nonzero;stroke:none"
           id="path4483"
           inkscape:connector-curvature="0" /><path
           d="m 423.0816,297.5352 -6.0426,0 0,34.058 6.0426,0 c 1.6847,0 3.113,-0.586 4.2849,-1.7578 1.1718,-1.1718 1.7578,-2.6002 1.7578,-4.2848 l 0,-21.9728 c 0,-1.6846 -0.586,-3.1127 -1.7578,-4.2849 -1.1719,-1.1718 -2.6002,-1.7577 -4.2849,-1.7577 z m 2.1975,28.0154 c 0,0.6227 -0.2107,1.1446 -0.6319,1.5655 -0.4212,0.4213 -0.9431,0.6319 -1.5656,0.6319 l -2.1971,0 0,-26.3676 2.1971,0 c 0.6225,0 1.1444,0.2106 1.5656,0.6318 0.4212,0.4212 0.6319,0.9431 0.6319,1.5656 l 0,21.9728 z"
           style="fill:#000000;fill-opacity:1;fill-rule:nonzero;stroke:none"
           id="path4485"
           inkscape:connector-curvature="0" /><path
           d="m 445.0547,327.748 0,-30.2128 -3.8452,0 0,30.2128 -4.1202,0 0,3.8452 12.0853,0 0,-3.8452 -4.1199,0 z"
           style="fill:#000000;fill-opacity:1;fill-rule:nonzero;stroke:none"
           id="path4487"
           inkscape:connector-curvature="0" /><path
           d="m 463.1822,297.5352 c -1.6846,0 -3.1127,0.5859 -4.2845,1.7577 -1.1722,1.1722 -1.7581,2.6003 -1.7581,4.2849 l 0,21.9728 c 0,1.6846 0.5859,3.113 1.7581,4.2848 1.1718,1.1718 2.5999,1.7578 4.2845,1.7578 1.6847,0 3.113,-0.586 4.2849,-1.7578 1.1718,-1.1718 1.7578,-2.6002 1.7578,-4.2848 l 0,-21.9728 c 0,-1.6846 -0.586,-3.1127 -1.7578,-4.2849 -1.1719,-1.1718 -2.6002,-1.7577 -4.2849,-1.7577 z m 2.1975,28.0154 c 0,0.6227 -0.2107,1.1446 -0.6319,1.5655 -0.4212,0.4213 -0.9431,0.6319 -1.5656,0.6319 -0.6225,0 -1.1443,-0.2106 -1.5655,-0.6319 -0.4213,-0.4209 -0.6316,-0.9428 -0.6316,-1.5655 l 0,-21.9728 c 0,-0.6225 0.2103,-1.1444 0.6316,-1.5656 0.4212,-0.4212 0.943,-0.6318 1.5655,-0.6318 0.6225,0 1.1444,0.2106 1.5656,0.6318 0.4212,0.4212 0.6319,0.9431 0.6319,1.5656 l 0,21.9728 z"
           style="fill:#000000;fill-opacity:1;fill-rule:nonzero;stroke:none"
           id="path4489"
           inkscape:connector-curvature="0" /><path
           d="m 497.4052,297.5352 -3.6255,0 -3.6805,21.909 -3.6805,-21.909 -3.6255,0 -5.713,34.058 3.8543,0 3.6714,-21.9087 3.6805,21.9087 3.6255,0 3.6805,-21.9362 3.6805,21.9362 3.8452,0 -5.7129,-34.058 z"
           style="fill:#000000;fill-opacity:1;fill-rule:nonzero;stroke:none"
           id="path4491"
           inkscape:connector-curvature="0" /><path
           d="m 519.3232,297.5352 -4.5042,18.0728 0,-18.0728 -3.8455,0 0,34.058 3.7355,0 4.5045,-18.0545 0,18.0545 3.8452,0 0,-34.058 -3.7355,0 z"
           style="fill:#000000;fill-opacity:1;fill-rule:nonzero;stroke:none"
           id="path4493"
           inkscape:connector-curvature="0" /></g></g></g></svg>