<?xml version="1.0" encoding="UTF-8" standalone="no"?>
<!-- Created with Inkscape (http://www.inkscape.org/) -->

<svg
   xmlns:dc="http://purl.org/dc/elements/1.1/"
   xmlns:cc="http://creativecommons.org/ns#"
   xmlns:rdf="http://www.w3.org/1999/02/22-rdf-syntax-ns#"
   xmlns:svg="http://www.w3.org/2000/svg"
   xmlns="http://www.w3.org/2000/svg"
   xmlns:sodipodi="http://sodipodi.sourceforge.net/DTD/sodipodi-0.dtd"
   xmlns:inkscape="http://www.inkscape.org/namespaces/inkscape"
   width="335.78412mm"
   height="335.7471mm"
   viewBox="0 0 1189.7862 1189.6551"
   id="svg2"
   version="1.1"
   inkscape:version="0.91 r13725"
   sodipodi:docname="austin-chapel-thumbnail-white.svg">
  <defs
     id="defs4" />
  <sodipodi:namedview
     id="base"
     pagecolor="#ffffff"
     bordercolor="#666666"
     borderopacity="1.0"
     inkscape:pageopacity="0.0"
     inkscape:pageshadow="2"
     inkscape:zoom="0.54553633"
     inkscape:cx="594.89313"
     inkscape:cy="594.8276"
     inkscape:document-units="px"
     inkscape:current-layer="layer1"
     showgrid="false"
     fit-margin-top="0"
     fit-margin-left="0"
     fit-margin-right="0"
     fit-margin-bottom="0"
     inkscape:window-width="1440"
     inkscape:window-height="851"
     inkscape:window-x="-1"
     inkscape:window-y="0"
     inkscape:window-maximized="0" />
  <metadata
     id="metadata7">
    <rdf:RDF>
      <cc:Work
         rdf:about="">
        <dc:format>image/svg+xml</dc:format>
        <dc:type
           rdf:resource="http://purl.org/dc/dcmitype/StillImage" />
        <dc:title></dc:title>
      </cc:Work>
    </rdf:RDF>
  </metadata>
  <g
     inkscape:label="Layer 1"
     inkscape:groupmode="layer"
     id="layer1"
     transform="translate(226.76489,82.461117)">
    <path
       style="fill:#2bfed3;fill-opacity:1"
       d="M 325.07141,1106.2508 C 247.65343,1100.4129 175.34726,1080.7483 106.77463,1046.8822 47.274276,1017.4966 -1.0411043,983.26657 -47.790814,937.37727 -126.96647,859.65873 -181.38104,765.60085 -208.52719,659.53768 c -17.72876,-69.26837 -22.60929,-143.37374 -14.30301,-217.17549 10.01989,-89.02722 42.74079,-178.77812 93.14883,-255.5 24.62114,-37.47378 50.433546,-68.80998 82.381946,-100.011479 46.88741971,-45.79128 95.22327,-79.9173066 154.370834,-108.988757 65.34003,-32.115098 129.79549,-50.47358 203.91944,-58.08122 21.08311,-2.16384 71.78353,-2.96398 94.61051,-1.49311 160.46934,10.33991 306.62086,82.8978904 413.07605,205.074566 72.8534,83.61254 122.0559,190.40758 138.4117,300.42528 4.9117,33.03867 5.9435,48.53243 5.9322,89.07472 -0.011,39.49033 -0.9304,53.71305 -5.5269,85.5 -27.3361,189.04381 -145.6553,354.72938 -316.423,443.09571 -72.40397,37.4665 -148.25729,58.7314 -231.5,64.8992 -15.72596,1.1652 -68.51937,1.0988 -84.5,-0.1063 z m 372,-247.86197 c 24.67874,-3.75572 47.3947,-9.70909 69.5,-18.21445 21.7218,-8.35783 58.7827,-27.98895 68.9431,-36.51916 8.5897,-7.21145 12.2567,-21.15385 8.5216,-32.39939 -1.2929,-3.89259 -3.3285,-6.91744 -7.3847,-10.97364 -6.9681,-6.9681 -13.1066,-9.31439 -22.9136,-8.75811 -7.3394,0.4163 -9.4653,1.32706 -24.1664,10.35273 -28.1397,17.27627 -60.1337,29.80253 -90.5,35.43252 -32.12109,5.95533 -68.29356,5.45631 -99.6936,-1.37531 -25.37459,-5.52068 -41.7121,-11.36589 -67.3064,-24.08077 -14.88193,-7.39314 -21.38415,-11.28645 -30,-17.96301 -12.81907,-9.9337 -30.99223,-27.58267 -40.17419,-39.01539 C 446.1703,695.29281 453.60469,711.73119 318.08241,396.88206 196.54553,114.52421 191.35931,102.71555 186.89904,98.187191 c -6.48797,-6.58701 -12.90586,-9.25659 -22.32763,-9.28738 -6.00949,-0.0196 -8.59857,0.48951 -13.02784,2.56191 -12.05612,5.64091 -0.81536,-18.81623 -141.7442043,308.400469 -125.1005757,290.46576 -127.4929057,296.14023 -127.9538957,303.5 -0.38037,6.07265 -0.0541,8.60167 1.71442,13.28872 5.92251,15.69629 24.204446,23.72665 40.303346,17.70328 7.63602,-2.857 13.01988,-7.87697 16.91823,-15.77473 1.82361,-3.6945 52.8098697,-121.7938 113.3028,-262.44289 C 114.5772,315.48748 164.29641,200.40271 164.57141,200.39265 c 0.275,-0.0101 50.83828,116.91587 112.36285,259.8354 108.3735,251.74807 112.10499,260.21673 119.62556,271.4918 10.94673,16.41168 20.76748,28.13431 36.16776,43.17198 22.34894,21.82273 40.51568,34.9319 67.5783,48.76472 38.94854,19.90819 80.45657,32.1627 124.26553,36.68718 15.18004,1.56776 56.7112,0.4479 72.5,-1.9549 z M 429.8971,482.10629 c 4.96635,-14.59664 17.66508,-40.44766 26.40057,-53.7441 19.60266,-29.83755 48.51277,-58.04141 74.37199,-72.55514 25.98892,-14.58653 56.36126,-25.58438 85.32011,-30.89448 64.48153,-11.8238 126.69214,0.48446 185.94984,36.78985 5.5725,3.41407 11.3512,6.74129 12.8415,7.39381 11.8376,5.18281 28.4266,-0.23052 35.7305,-11.6596 8.1123,-12.6942 5.9142,-28.87915 -5.2557,-38.69779 -7.7046,-6.77261 -35.3902,-22.4653 -53.9112,-30.55792 -36.8254,-16.09052 -70.09896,-24.18977 -110.76965,-26.96283 -61.31127,-4.18041 -134.55831,14.18287 -189.13608,47.41705 -37.18746,22.64465 -69.6376,55.46172 -92.11757,93.15918 -4.2625,7.14794 -7.75,13.39256 -7.75,13.87693 0,1.41756 33.32338,77.69153 33.93986,77.68504 0.30807,-0.003 2.2817,-5.06575 4.38583,-11.25 z"
       id="path4201"
       inkscape:connector-curvature="0" />
  </g>
</svg>
