<?xml version="1.0" encoding="UTF-8" standalone="no"?>
<!-- Created with Inkscape (http://www.inkscape.org/) -->

<svg
   xmlns:dc="http://purl.org/dc/elements/1.1/"
   xmlns:cc="http://creativecommons.org/ns#"
   xmlns:rdf="http://www.w3.org/1999/02/22-rdf-syntax-ns#"
   xmlns:svg="http://www.w3.org/2000/svg"
   xmlns="http://www.w3.org/2000/svg"
   xmlns:sodipodi="http://sodipodi.sourceforge.net/DTD/sodipodi-0.dtd"
   xmlns:inkscape="http://www.inkscape.org/namespaces/inkscape"
   width="100mm"
   height="100mm"
   viewBox="0 0 354.33071 354.33071"
   id="svg2"
   version="1.1"
   inkscape:version="0.91 r13725"
   sodipodi:docname="stamp-black.svg">
  <defs
     id="defs4" />
  <sodipodi:namedview
     id="base"
     pagecolor="#ffffff"
     bordercolor="#666666"
     borderopacity="1.0"
     inkscape:pageopacity="0.0"
     inkscape:pageshadow="2"
     inkscape:zoom="2.0771556"
     inkscape:cx="178.91183"
     inkscape:cy="185.46281"
     inkscape:document-units="px"
     inkscape:current-layer="layer1"
     showgrid="false"
     fit-margin-top="0"
     fit-margin-left="0"
     fit-margin-right="0"
     fit-margin-bottom="0"
     inkscape:window-width="1440"
     inkscape:window-height="851"
     inkscape:window-x="0"
     inkscape:window-y="1"
     inkscape:window-maximized="1" />
  <metadata
     id="metadata7">
    <rdf:RDF>
      <cc:Work
         rdf:about="">
        <dc:format>image/svg+xml</dc:format>
        <dc:type
           rdf:resource="http://purl.org/dc/dcmitype/StillImage" />
        <dc:title></dc:title>
      </cc:Work>
    </rdf:RDF>
  </metadata>
  <g
     inkscape:groupmode="layer"
     id="layer2"
     inkscape:label="guides"
     style="display:inline" />
  <g
     inkscape:label="Layer 1"
     inkscape:groupmode="layer"
     id="layer1"
     transform="translate(-43.195,-204.91148)"
     style="display:inline">
    <g
       id="g4223"
       transform="translate(-6.4294157,5.5930163)">
      <g
         transform="translate(104.46979,-99.655512)"
         id="text4136"
         style="font-style:normal;font-weight:normal;font-size:40px;line-height:125%;font-family:Sans;letter-spacing:0px;word-spacing:0px;fill:#000000;fill-opacity:1;stroke:none;stroke-width:1px;stroke-linecap:butt;stroke-linejoin:miter;stroke-opacity:1">
        <path
           inkscape:connector-curvature="0"
           id="path4181"
           style="font-style:normal;font-variant:normal;font-weight:normal;font-stretch:normal;font-size:80px;line-height:125%;font-family:'Fira Mono';-inkscape-font-specification:'Fira Mono, Normal';text-align:start;writing-mode:lr-tb;text-anchor:start"
           d="m 106.72,448.07648 -6.72,0 17.92,-55.04 8.8,0 17.92,55.04 -7.2,0 -4.4,-14.08 -21.84,0 -4.48,14.08 z m 15.44,-49.28 -9.2,29.52 18.32,0 -9.12,-29.52 z" />
      </g>
      <g
         transform="translate(104.46979,-99.655512)"
         id="text4174"
         style="font-style:normal;font-variant:normal;font-weight:normal;font-stretch:normal;font-size:80px;line-height:125%;font-family:'Fira Mono';-inkscape-font-specification:'Fira Mono, Normal';text-align:start;letter-spacing:0px;word-spacing:0px;writing-mode:lr-tb;text-anchor:start;fill:#000000;fill-opacity:1;stroke:none;stroke-width:1px;stroke-linecap:butt;stroke-linejoin:miter;stroke-opacity:1">
        <path
           inkscape:connector-curvature="0"
           id="path4184"
           d="m 126.02,502.36218 q 5.2,0 8.8,1.36 3.68,1.28 7.12,4 l -3.84,4.48 q -4.96,-4.08 -11.6,-4.08 -7.52,0 -12.24,5.44 -4.64,5.36 -4.64,17.2 0,11.68 4.56,17.2 4.64,5.44 12.24,5.44 4.16,0 7.12,-1.2 3.04,-1.28 5.68,-3.44 l 3.52,4.56 q -2.72,2.64 -6.8,4.32 -4.08,1.6 -9.6,1.6 -6.8,0 -12.24,-3.28 -5.36,-3.36 -8.48,-9.76 -3.12,-6.4 -3.12,-15.44 0,-8.96 3.12,-15.36 3.2,-6.48 8.56,-9.76 5.36,-3.28 11.84,-3.28 z" />
      </g>
      <path
         inkscape:connector-curvature="0"
         id="path4178"
         d="m 147.66479,376.447 158.24996,0"
         style="fill:none;fill-rule:evenodd;stroke:#000000;stroke-width:5.03496313;stroke-linecap:butt;stroke-linejoin:miter;stroke-miterlimit:4;stroke-dasharray:none;stroke-opacity:1" />
    </g>
    <circle
       style="fill:none;fill-opacity:1;stroke:#000000;stroke-width:5.43724775;stroke-linejoin:round;stroke-miterlimit:4;stroke-dasharray:none;stroke-opacity:1"
       id="path4205"
       r="156.47678"
       cy="382.07684"
       cx="220.36035" />
    <circle
       cx="-220.36035"
       cy="382.07684"
       r="151.18446"
       id="circle4244"
       style="fill:none;fill-opacity:1;stroke:none;stroke-width:0.19323564;stroke-linejoin:round;stroke-miterlimit:4;stroke-dasharray:none;stroke-opacity:1"
       transform="scale(-1,1)" />
    <circle
       style="fill:none;fill-opacity:1;stroke:none;stroke-width:0.16740811;stroke-linejoin:round;stroke-miterlimit:4;stroke-dasharray:none;stroke-opacity:1"
       id="circle4275"
       r="130.97742"
       cy="382.07684"
       cx="220.36035" />
    <g
       transform="matrix(-0.6710043,-0.74145346,0.74145346,-0.6710043,85.116536,801.36346)"
       style="font-style:normal;font-variant:normal;font-weight:normal;font-stretch:normal;font-size:80px;line-height:125%;font-family:'Fira Mono';-inkscape-font-specification:'Fira Mono, Normal';text-align:start;letter-spacing:0px;word-spacing:0px;writing-mode:lr-tb;text-anchor:start;fill:#000000;fill-opacity:1;stroke:none;stroke-width:1px;stroke-linecap:butt;stroke-linejoin:miter;stroke-opacity:1"
       id="text4283">
      <path
         d="m 351.40175,384.70569 0.11842,-2.09666 16.85685,6.56098 -0.15506,2.74563 -17.48842,4.6212 0.12688,-2.24642 4.47053,-1.1247 0.38486,-6.81414 -4.31406,-1.64589 z m 15.10342,5.68571 -9.0482,-3.39061 -0.32283,5.71589 9.37103,-2.32528 z"
         style="font-style:normal;font-variant:normal;font-weight:normal;font-stretch:normal;font-size:25px;line-height:125%;font-family:'Fira Mono';-inkscape-font-specification:'Fira Mono, Normal';text-align:start;writing-mode:lr-tb;text-anchor:start"
         id="path4531" />
      <path
         d="m 353.96528,410.99685 q -1.72468,-0.29663 -2.91185,-1.2111 -1.18717,-0.91447 -1.68132,-2.31855 -0.49838,-1.37945 -0.20598,-3.07948 0.2924,-1.70004 1.22727,-2.85833 0.95527,-1.12942 2.37551,-1.57005 1.42025,-0.44064 3.12028,-0.14824 l 11.45678,1.97054 -0.36021,2.09425 -11.55532,-1.98749 q -1.92179,-0.33054 -3.03523,0.39117 -1.11769,0.74634 -1.40585,2.42174 -0.2924,1.70004 0.51593,2.75228 0.80409,1.07689 2.72588,1.40743 l 11.55532,1.98748 -0.36444,2.11889 -11.45677,-1.97054 z"
         style="font-style:normal;font-variant:normal;font-weight:normal;font-stretch:normal;font-size:25px;line-height:125%;font-family:'Fira Mono';-inkscape-font-specification:'Fira Mono, Normal';text-align:start;writing-mode:lr-tb;text-anchor:start"
         id="path4533" />
      <path
         d="m 348.981,426.01155 q -1.43937,-0.42214 -2.33182,-1.46547 -0.8755,-1.0123 -1.0982,-2.56263 -0.1987,-1.5433 0.35008,-3.41449 0.52064,-1.77523 1.48462,-3.1078 0.98093,-1.30154 2.29806,-2.06158 l 1.03258,1.63153 q -1.13098,0.65832 -1.91042,1.62817 -0.76249,1.00086 -1.19166,2.46423 -0.47139,1.6073 -0.003,2.943 0.46098,1.35968 1.94834,1.79589 0.83963,0.24625 1.48286,0.0962 0.64322,-0.15005 1.30721,-0.81506 0.65695,-0.64103 1.5109,-1.95376 1.57965,-2.45465 3.02215,-3.46451 1.4665,-1.00282 3.31369,-0.46108 1.22347,0.35882 1.98606,1.31195 0.78657,0.96017 0.95552,2.33843 0.19294,1.38528 -0.26437,2.94461 -0.47843,1.63129 -1.33111,2.76202 -0.85268,1.13074 -2.10488,1.93588 l -0.9846,-1.61747 q 2.00384,-1.23602 2.67927,-3.53902 0.42213,-1.43938 0.0488,-2.56493 -0.34934,-1.11852 -1.54882,-1.4703 -0.71969,-0.21107 -1.33604,0.025 -0.61635,0.23609 -1.30848,0.99706 -0.69917,0.78496 -1.62636,2.25858 -1.34713,2.106 -2.79252,3.03686 -1.45242,0.95484 -3.58749,0.32867 z"
         style="font-style:normal;font-variant:normal;font-weight:normal;font-stretch:normal;font-size:25px;line-height:125%;font-family:'Fira Mono';-inkscape-font-specification:'Fira Mono, Normal';text-align:start;writing-mode:lr-tb;text-anchor:start"
         id="path4535" />
      <path
         d="m 341.45015,432.10273 14.15682,5.99791 2.10659,-4.97215 1.6804,0.71195 -5.06165,11.94697 -1.59263,-0.91912 2.03831,-4.81101 -14.15682,-5.99792 0.82898,-1.95663 z"
         style="font-style:normal;font-variant:normal;font-weight:normal;font-stretch:normal;font-size:25px;line-height:125%;font-family:'Fira Mono';-inkscape-font-specification:'Fira Mono, Normal';text-align:start;writing-mode:lr-tb;text-anchor:start"
         id="path4537" />
      <path
         d="m 347.32235,455.17841 -11.98139,-6.79683 -1.89966,3.3487 -1.50039,-0.85115 4.86016,-8.56745 1.5004,0.85114 -1.89966,3.3487 11.98139,6.79683 1.89966,-3.3487 1.47864,0.83881 -4.86016,8.56746 -1.47865,-0.83881 1.89966,-3.3487 z"
         style="font-style:normal;font-variant:normal;font-weight:normal;font-stretch:normal;font-size:25px;line-height:125%;font-family:'Fira Mono';-inkscape-font-specification:'Fira Mono, Normal';text-align:start;writing-mode:lr-tb;text-anchor:start"
         id="path4539" />
      <path
         d="m 340.29334,464.9161 q -3.32695,-2.05703 -5.08372,-3.33936 l -6.98672,-5.09984 1.17916,-1.61542 13.89265,10.14071 -1.70977,2.34237 -15.55056,-3.79868 -0.059,0.0808 q 3.08464,1.88016 5.1645,3.39832 l 6.96652,5.0851 -1.17915,1.61542 -13.89266,-10.14071 1.76873,-2.42314 15.43103,3.83524 0.0589,-0.0808 z"
         style="font-style:normal;font-variant:normal;font-weight:normal;font-stretch:normal;font-size:25px;line-height:125%;font-family:'Fira Mono';-inkscape-font-specification:'Fira Mono, Normal';text-align:start;writing-mode:lr-tb;text-anchor:start"
         id="path4541" />
      <path
         d="m 316.29248,495.41476 q -1.22958,1.06243 -2.3587,1.47636 -1.13169,0.44921 -2.50083,0.50887 l -0.007,-1.84389 q 2.00643,-0.0486 3.57652,-1.40527 1.77817,-1.53643 1.7828,-3.78712 0.002,-2.21542 -2.417,-5.0151 -2.38636,-2.76184 -4.59242,-3.13543 -2.20862,-0.33833 -4.00571,1.21444 -0.98367,0.84994 -1.43842,1.73845 -0.45731,0.92378 -0.64025,1.97391 l -1.764,-0.35907 q 0.10379,-1.17998 0.72529,-2.41083 0.63786,-1.21192 1.94311,-2.33973 1.60792,-1.38932 3.5644,-1.72519 1.95391,-0.30061 3.99926,0.57528 2.04535,0.87588 3.89233,3.01347 1.83064,2.11867 2.40048,4.26946 0.56727,2.18606 -0.03,4.05675 -0.59728,1.8707 -2.12954,3.19464 z"
         style="font-style:normal;font-variant:normal;font-weight:normal;font-stretch:normal;font-size:25px;line-height:125%;font-family:'Fira Mono';-inkscape-font-specification:'Fira Mono, Normal';text-align:start;writing-mode:lr-tb;text-anchor:start"
         id="path4543" />
      <path
         d="m 301.39832,495.28762 -4.62058,-6.77423 1.75552,-1.19741 9.69195,14.20937 -1.75552,1.1974 -4.09935,-6.01006 -5.41113,3.69083 4.09936,6.01006 -1.75552,1.19741 -9.69195,-14.20937 1.75552,-1.19741 4.62058,6.77424 5.41112,-3.69083 z"
         style="font-style:normal;font-variant:normal;font-weight:normal;font-stretch:normal;font-size:25px;line-height:125%;font-family:'Fira Mono';-inkscape-font-specification:'Fira Mono, Normal';text-align:start;writing-mode:lr-tb;text-anchor:start"
         id="path4545" />
      <path
         d="m 285.54737,495.81057 1.85869,-0.97739 3.04876,17.82989 -2.43399,1.27992 -12.96176,-12.61717 1.99145,-1.0472 3.26485,3.25444 6.04073,-3.17651 -0.80873,-4.54598 z m 2.89695,15.87603 -1.74889,-9.50303 -5.06713,2.66454 6.81602,6.83849 z"
         style="font-style:normal;font-variant:normal;font-weight:normal;font-stretch:normal;font-size:25px;line-height:125%;font-family:'Fira Mono';-inkscape-font-specification:'Fira Mono, Normal';text-align:start;writing-mode:lr-tb;text-anchor:start"
         id="path4547" />
      <path
         d="m 265.9032,517.71876 q -1.03718,-2.68139 0.14028,-4.55751 1.17747,-1.87612 4.06871,-2.99447 l 2.07517,-0.80269 -2.30885,-5.96902 1.9819,-0.76661 6.20504,16.04174 -4.05707,1.5693 q -2.93788,1.13639 -5.04804,0.53194 -2.11015,-0.60445 -3.05714,-3.05268 z m 2.13609,-0.85306 q 1.29873,3.35758 5.09932,1.88749 l 2.33165,-0.9019 -2.66059,-6.87836 -2.2617,0.87484 q -1.842,0.71249 -2.53797,1.89307 -0.71928,1.18959 0.0293,3.12486 z"
         style="font-style:normal;font-variant:normal;font-weight:normal;font-stretch:normal;font-size:25px;line-height:125%;font-family:'Fira Mono';-inkscape-font-specification:'Fira Mono, Normal';text-align:start;writing-mode:lr-tb;text-anchor:start"
         id="path4549" />
      <path
         d="m 251.70503,519.23381 -0.4453,-1.71824 6.17113,-1.59931 -1.5366,-5.92913 -7.57475,1.96309 -0.43276,-1.66984 9.656,-2.50246 4.31502,16.64994 -9.43819,2.44602 -0.19703,-1.75675 7.11495,-1.84392 -1.46134,-5.63872 -6.17113,1.59932 z"
         style="font-style:normal;font-variant:normal;font-weight:normal;font-stretch:normal;font-size:25px;line-height:125%;font-family:'Fira Mono';-inkscape-font-specification:'Fira Mono, Normal';text-align:start;writing-mode:lr-tb;text-anchor:start"
         id="path4551" />
      <path
         d="m 242.89065,528.56309 -2.10515,-15.12925 -7.77509,1.08187 -0.0177,-1.94109 9.65697,-1.34371 2.37045,17.03587 -2.12949,0.29631 z"
         style="font-style:normal;font-variant:normal;font-weight:normal;font-stretch:normal;font-size:25px;line-height:125%;font-family:'Fira Mono';-inkscape-font-specification:'Fira Mono, Normal';text-align:start;writing-mode:lr-tb;text-anchor:start"
         id="path4553" />
    </g>
    <g
       transform="matrix(0.6710043,0.74145346,-0.74145346,0.6710043,355.87153,-37.00982)"
       style="font-style:normal;font-variant:normal;font-weight:normal;font-stretch:normal;font-size:80px;line-height:125%;font-family:'Fira Mono';-inkscape-font-specification:'Fira Mono, Normal';text-align:start;letter-spacing:0px;word-spacing:0px;writing-mode:lr-tb;text-anchor:start;fill:#000000;fill-opacity:1;stroke:none;stroke-width:1px;stroke-linecap:butt;stroke-linejoin:miter;stroke-opacity:1"
       id="text4300">
      <path
         d="m 351.40175,384.70569 0.11842,-2.09666 16.85685,6.56098 -0.15506,2.74563 -17.48842,4.6212 0.12688,-2.24642 4.47053,-1.1247 0.38486,-6.81414 -4.31406,-1.64589 z m 15.10342,5.68571 -9.0482,-3.39061 -0.32283,5.71589 9.37103,-2.32528 z"
         style="font-style:normal;font-variant:normal;font-weight:normal;font-stretch:normal;font-size:25px;line-height:125%;font-family:'Fira Mono';-inkscape-font-specification:'Fira Mono, Normal';text-align:start;writing-mode:lr-tb;text-anchor:start"
         id="path4481" />
      <path
         d="m 353.96528,410.99685 q -1.72468,-0.29663 -2.91185,-1.2111 -1.18717,-0.91447 -1.68132,-2.31855 -0.49838,-1.37945 -0.20598,-3.07948 0.2924,-1.70004 1.22727,-2.85833 0.95527,-1.12942 2.37551,-1.57005 1.42025,-0.44064 3.12028,-0.14824 l 11.45678,1.97054 -0.36021,2.09425 -11.55532,-1.98749 q -1.92179,-0.33054 -3.03523,0.39117 -1.11769,0.74634 -1.40585,2.42174 -0.2924,1.70004 0.51593,2.75228 0.80409,1.07689 2.72588,1.40743 l 11.55532,1.98748 -0.36444,2.11889 -11.45677,-1.97054 z"
         style="font-style:normal;font-variant:normal;font-weight:normal;font-stretch:normal;font-size:25px;line-height:125%;font-family:'Fira Mono';-inkscape-font-specification:'Fira Mono, Normal';text-align:start;writing-mode:lr-tb;text-anchor:start"
         id="path4483" />
      <path
         d="m 348.981,426.01155 q -1.43937,-0.42214 -2.33182,-1.46547 -0.8755,-1.0123 -1.0982,-2.56263 -0.1987,-1.5433 0.35008,-3.41449 0.52064,-1.77523 1.48462,-3.1078 0.98093,-1.30154 2.29806,-2.06158 l 1.03258,1.63153 q -1.13098,0.65832 -1.91042,1.62817 -0.76249,1.00086 -1.19166,2.46423 -0.47139,1.6073 -0.003,2.943 0.46098,1.35968 1.94834,1.79589 0.83963,0.24625 1.48286,0.0962 0.64322,-0.15005 1.30721,-0.81506 0.65695,-0.64103 1.5109,-1.95376 1.57965,-2.45465 3.02215,-3.46451 1.4665,-1.00282 3.31369,-0.46108 1.22347,0.35882 1.98606,1.31195 0.78657,0.96017 0.95552,2.33843 0.19294,1.38528 -0.26437,2.94461 -0.47843,1.63129 -1.33111,2.76202 -0.85268,1.13074 -2.10488,1.93588 l -0.9846,-1.61747 q 2.00384,-1.23602 2.67927,-3.53902 0.42213,-1.43938 0.0488,-2.56493 -0.34934,-1.11852 -1.54882,-1.4703 -0.71969,-0.21107 -1.33604,0.025 -0.61635,0.23609 -1.30848,0.99706 -0.69917,0.78496 -1.62636,2.25858 -1.34713,2.106 -2.79252,3.03686 -1.45242,0.95484 -3.58749,0.32867 z"
         style="font-style:normal;font-variant:normal;font-weight:normal;font-stretch:normal;font-size:25px;line-height:125%;font-family:'Fira Mono';-inkscape-font-specification:'Fira Mono, Normal';text-align:start;writing-mode:lr-tb;text-anchor:start"
         id="path4485" />
      <path
         d="m 341.45015,432.10273 14.15682,5.99791 2.10659,-4.97215 1.6804,0.71195 -5.06165,11.94697 -1.59263,-0.91912 2.03831,-4.81101 -14.15682,-5.99792 0.82898,-1.95663 z"
         style="font-style:normal;font-variant:normal;font-weight:normal;font-stretch:normal;font-size:25px;line-height:125%;font-family:'Fira Mono';-inkscape-font-specification:'Fira Mono, Normal';text-align:start;writing-mode:lr-tb;text-anchor:start"
         id="path4487" />
      <path
         d="m 347.32235,455.17841 -11.98139,-6.79683 -1.89966,3.3487 -1.50039,-0.85115 4.86016,-8.56745 1.5004,0.85114 -1.89966,3.3487 11.98139,6.79683 1.89966,-3.3487 1.47864,0.83881 -4.86016,8.56746 -1.47865,-0.83881 1.89966,-3.3487 z"
         style="font-style:normal;font-variant:normal;font-weight:normal;font-stretch:normal;font-size:25px;line-height:125%;font-family:'Fira Mono';-inkscape-font-specification:'Fira Mono, Normal';text-align:start;writing-mode:lr-tb;text-anchor:start"
         id="path4489" />
      <path
         d="m 340.29334,464.9161 q -3.32695,-2.05703 -5.08372,-3.33936 l -6.98672,-5.09984 1.17916,-1.61542 13.89265,10.14071 -1.70977,2.34237 -15.55056,-3.79868 -0.059,0.0808 q 3.08464,1.88016 5.1645,3.39832 l 6.96652,5.0851 -1.17915,1.61542 -13.89266,-10.14071 1.76873,-2.42314 15.43103,3.83524 0.0589,-0.0808 z"
         style="font-style:normal;font-variant:normal;font-weight:normal;font-stretch:normal;font-size:25px;line-height:125%;font-family:'Fira Mono';-inkscape-font-specification:'Fira Mono, Normal';text-align:start;writing-mode:lr-tb;text-anchor:start"
         id="path4491" />
      <path
         d="m 316.29248,495.41476 q -1.22958,1.06243 -2.3587,1.47636 -1.13169,0.44921 -2.50083,0.50887 l -0.007,-1.84389 q 2.00643,-0.0486 3.57652,-1.40527 1.77817,-1.53643 1.7828,-3.78712 0.002,-2.21542 -2.417,-5.0151 -2.38636,-2.76184 -4.59242,-3.13543 -2.20862,-0.33833 -4.00571,1.21444 -0.98367,0.84994 -1.43842,1.73845 -0.45731,0.92378 -0.64025,1.97391 l -1.764,-0.35907 q 0.10379,-1.17998 0.72529,-2.41083 0.63786,-1.21192 1.94311,-2.33973 1.60792,-1.38932 3.5644,-1.72519 1.95391,-0.30061 3.99926,0.57528 2.04535,0.87588 3.89233,3.01347 1.83064,2.11867 2.40048,4.26946 0.56727,2.18606 -0.03,4.05675 -0.59728,1.8707 -2.12954,3.19464 z"
         style="font-style:normal;font-variant:normal;font-weight:normal;font-stretch:normal;font-size:25px;line-height:125%;font-family:'Fira Mono';-inkscape-font-specification:'Fira Mono, Normal';text-align:start;writing-mode:lr-tb;text-anchor:start"
         id="path4493" />
      <path
         d="m 301.39832,495.28762 -4.62058,-6.77423 1.75552,-1.19741 9.69195,14.20937 -1.75552,1.1974 -4.09935,-6.01006 -5.41113,3.69083 4.09936,6.01006 -1.75552,1.19741 -9.69195,-14.20937 1.75552,-1.19741 4.62058,6.77424 5.41112,-3.69083 z"
         style="font-style:normal;font-variant:normal;font-weight:normal;font-stretch:normal;font-size:25px;line-height:125%;font-family:'Fira Mono';-inkscape-font-specification:'Fira Mono, Normal';text-align:start;writing-mode:lr-tb;text-anchor:start"
         id="path4495" />
      <path
         d="m 285.54737,495.81057 1.85869,-0.97739 3.04876,17.82989 -2.43399,1.27992 -12.96176,-12.61717 1.99145,-1.0472 3.26485,3.25444 6.04073,-3.17651 -0.80873,-4.54598 z m 2.89695,15.87603 -1.74889,-9.50303 -5.06713,2.66454 6.81602,6.83849 z"
         style="font-style:normal;font-variant:normal;font-weight:normal;font-stretch:normal;font-size:25px;line-height:125%;font-family:'Fira Mono';-inkscape-font-specification:'Fira Mono, Normal';text-align:start;writing-mode:lr-tb;text-anchor:start"
         id="path4497" />
      <path
         d="m 265.9032,517.71876 q -1.03718,-2.68139 0.14028,-4.55751 1.17747,-1.87612 4.06871,-2.99447 l 2.07517,-0.80269 -2.30885,-5.96902 1.9819,-0.76661 6.20504,16.04174 -4.05707,1.5693 q -2.93788,1.13639 -5.04804,0.53194 -2.11015,-0.60445 -3.05714,-3.05268 z m 2.13609,-0.85306 q 1.29873,3.35758 5.09932,1.88749 l 2.33165,-0.9019 -2.66059,-6.87836 -2.2617,0.87484 q -1.842,0.71249 -2.53797,1.89307 -0.71928,1.18959 0.0293,3.12486 z"
         style="font-style:normal;font-variant:normal;font-weight:normal;font-stretch:normal;font-size:25px;line-height:125%;font-family:'Fira Mono';-inkscape-font-specification:'Fira Mono, Normal';text-align:start;writing-mode:lr-tb;text-anchor:start"
         id="path4499" />
      <path
         d="m 251.70503,519.23381 -0.4453,-1.71824 6.17113,-1.59931 -1.5366,-5.92913 -7.57475,1.96309 -0.43276,-1.66984 9.656,-2.50246 4.31502,16.64994 -9.43819,2.44602 -0.19703,-1.75675 7.11495,-1.84392 -1.46134,-5.63872 -6.17113,1.59932 z"
         style="font-style:normal;font-variant:normal;font-weight:normal;font-stretch:normal;font-size:25px;line-height:125%;font-family:'Fira Mono';-inkscape-font-specification:'Fira Mono, Normal';text-align:start;writing-mode:lr-tb;text-anchor:start"
         id="path4501" />
      <path
         d="m 242.89065,528.56309 -2.10515,-15.12925 -7.77509,1.08187 -0.0177,-1.94109 9.65697,-1.34371 2.37045,17.03587 -2.12949,0.29631 z"
         style="font-style:normal;font-variant:normal;font-weight:normal;font-stretch:normal;font-size:25px;line-height:125%;font-family:'Fira Mono';-inkscape-font-specification:'Fira Mono, Normal';text-align:start;writing-mode:lr-tb;text-anchor:start"
         id="path4503" />
    </g>
    <g
       transform="matrix(-0.74145346,0.6710043,-0.6710043,-0.74145346,639.28074,517.75465)"
       style="font-style:normal;font-variant:normal;font-weight:normal;font-stretch:normal;font-size:80px;line-height:125%;font-family:'Fira Mono';-inkscape-font-specification:'Fira Mono, Normal';text-align:start;letter-spacing:0px;word-spacing:0px;writing-mode:lr-tb;text-anchor:start;fill:#000000;fill-opacity:1;stroke:none;stroke-width:1px;stroke-linecap:butt;stroke-linejoin:miter;stroke-opacity:1"
       id="text4304">
      <path
         d="m 351.40175,384.70569 0.11842,-2.09666 16.85685,6.56098 -0.15506,2.74563 -17.48842,4.6212 0.12688,-2.24642 4.47053,-1.1247 0.38486,-6.81414 -4.31406,-1.64589 z m 15.10342,5.68571 -9.0482,-3.39061 -0.32283,5.71589 9.37103,-2.32528 z"
         style="font-style:normal;font-variant:normal;font-weight:normal;font-stretch:normal;font-size:25px;line-height:125%;font-family:'Fira Mono';-inkscape-font-specification:'Fira Mono, Normal';text-align:start;writing-mode:lr-tb;text-anchor:start"
         id="path4506" />
      <path
         d="m 353.96528,410.99685 q -1.72468,-0.29663 -2.91185,-1.2111 -1.18717,-0.91447 -1.68132,-2.31855 -0.49838,-1.37945 -0.20598,-3.07948 0.2924,-1.70004 1.22727,-2.85833 0.95527,-1.12942 2.37551,-1.57005 1.42025,-0.44064 3.12028,-0.14824 l 11.45678,1.97054 -0.36021,2.09425 -11.55532,-1.98749 q -1.92179,-0.33054 -3.03523,0.39117 -1.11769,0.74634 -1.40585,2.42174 -0.2924,1.70004 0.51593,2.75228 0.80409,1.07689 2.72588,1.40743 l 11.55532,1.98748 -0.36444,2.11889 -11.45677,-1.97054 z"
         style="font-style:normal;font-variant:normal;font-weight:normal;font-stretch:normal;font-size:25px;line-height:125%;font-family:'Fira Mono';-inkscape-font-specification:'Fira Mono, Normal';text-align:start;writing-mode:lr-tb;text-anchor:start"
         id="path4508" />
      <path
         d="m 348.981,426.01155 q -1.43937,-0.42214 -2.33182,-1.46547 -0.8755,-1.0123 -1.0982,-2.56263 -0.1987,-1.5433 0.35008,-3.41449 0.52064,-1.77523 1.48462,-3.1078 0.98093,-1.30154 2.29806,-2.06158 l 1.03258,1.63153 q -1.13098,0.65832 -1.91042,1.62817 -0.76249,1.00086 -1.19166,2.46423 -0.47139,1.6073 -0.003,2.943 0.46098,1.35968 1.94834,1.79589 0.83963,0.24625 1.48286,0.0962 0.64322,-0.15005 1.30721,-0.81506 0.65695,-0.64103 1.5109,-1.95376 1.57965,-2.45465 3.02215,-3.46451 1.4665,-1.00282 3.31369,-0.46108 1.22347,0.35882 1.98606,1.31195 0.78657,0.96017 0.95552,2.33843 0.19294,1.38528 -0.26437,2.94461 -0.47843,1.63129 -1.33111,2.76202 -0.85268,1.13074 -2.10488,1.93588 l -0.9846,-1.61747 q 2.00384,-1.23602 2.67927,-3.53902 0.42213,-1.43938 0.0488,-2.56493 -0.34934,-1.11852 -1.54882,-1.4703 -0.71969,-0.21107 -1.33604,0.025 -0.61635,0.23609 -1.30848,0.99706 -0.69917,0.78496 -1.62636,2.25858 -1.34713,2.106 -2.79252,3.03686 -1.45242,0.95484 -3.58749,0.32867 z"
         style="font-style:normal;font-variant:normal;font-weight:normal;font-stretch:normal;font-size:25px;line-height:125%;font-family:'Fira Mono';-inkscape-font-specification:'Fira Mono, Normal';text-align:start;writing-mode:lr-tb;text-anchor:start"
         id="path4510" />
      <path
         d="m 341.45015,432.10273 14.15682,5.99791 2.10659,-4.97215 1.6804,0.71195 -5.06165,11.94697 -1.59263,-0.91912 2.03831,-4.81101 -14.15682,-5.99792 0.82898,-1.95663 z"
         style="font-style:normal;font-variant:normal;font-weight:normal;font-stretch:normal;font-size:25px;line-height:125%;font-family:'Fira Mono';-inkscape-font-specification:'Fira Mono, Normal';text-align:start;writing-mode:lr-tb;text-anchor:start"
         id="path4512" />
      <path
         d="m 347.32235,455.17841 -11.98139,-6.79683 -1.89966,3.3487 -1.50039,-0.85115 4.86016,-8.56745 1.5004,0.85114 -1.89966,3.3487 11.98139,6.79683 1.89966,-3.3487 1.47864,0.83881 -4.86016,8.56746 -1.47865,-0.83881 1.89966,-3.3487 z"
         style="font-style:normal;font-variant:normal;font-weight:normal;font-stretch:normal;font-size:25px;line-height:125%;font-family:'Fira Mono';-inkscape-font-specification:'Fira Mono, Normal';text-align:start;writing-mode:lr-tb;text-anchor:start"
         id="path4514" />
      <path
         d="m 340.29334,464.9161 q -3.32695,-2.05703 -5.08372,-3.33936 l -6.98672,-5.09984 1.17916,-1.61542 13.89265,10.14071 -1.70977,2.34237 -15.55056,-3.79868 -0.059,0.0808 q 3.08464,1.88016 5.1645,3.39832 l 6.96652,5.0851 -1.17915,1.61542 -13.89266,-10.14071 1.76873,-2.42314 15.43103,3.83524 0.0589,-0.0808 z"
         style="font-style:normal;font-variant:normal;font-weight:normal;font-stretch:normal;font-size:25px;line-height:125%;font-family:'Fira Mono';-inkscape-font-specification:'Fira Mono, Normal';text-align:start;writing-mode:lr-tb;text-anchor:start"
         id="path4516" />
      <path
         d="m 316.29248,495.41476 q -1.22958,1.06243 -2.3587,1.47636 -1.13169,0.44921 -2.50083,0.50887 l -0.007,-1.84389 q 2.00643,-0.0486 3.57652,-1.40527 1.77817,-1.53643 1.7828,-3.78712 0.002,-2.21542 -2.417,-5.0151 -2.38636,-2.76184 -4.59242,-3.13543 -2.20862,-0.33833 -4.00571,1.21444 -0.98367,0.84994 -1.43842,1.73845 -0.45731,0.92378 -0.64025,1.97391 l -1.764,-0.35907 q 0.10379,-1.17998 0.72529,-2.41083 0.63786,-1.21192 1.94311,-2.33973 1.60792,-1.38932 3.5644,-1.72519 1.95391,-0.30061 3.99926,0.57528 2.04535,0.87588 3.89233,3.01347 1.83064,2.11867 2.40048,4.26946 0.56727,2.18606 -0.03,4.05675 -0.59728,1.8707 -2.12954,3.19464 z"
         style="font-style:normal;font-variant:normal;font-weight:normal;font-stretch:normal;font-size:25px;line-height:125%;font-family:'Fira Mono';-inkscape-font-specification:'Fira Mono, Normal';text-align:start;writing-mode:lr-tb;text-anchor:start"
         id="path4518" />
      <path
         d="m 301.39832,495.28762 -4.62058,-6.77423 1.75552,-1.19741 9.69195,14.20937 -1.75552,1.1974 -4.09935,-6.01006 -5.41113,3.69083 4.09936,6.01006 -1.75552,1.19741 -9.69195,-14.20937 1.75552,-1.19741 4.62058,6.77424 5.41112,-3.69083 z"
         style="font-style:normal;font-variant:normal;font-weight:normal;font-stretch:normal;font-size:25px;line-height:125%;font-family:'Fira Mono';-inkscape-font-specification:'Fira Mono, Normal';text-align:start;writing-mode:lr-tb;text-anchor:start"
         id="path4520" />
      <path
         d="m 285.54737,495.81057 1.85869,-0.97739 3.04876,17.82989 -2.43399,1.27992 -12.96176,-12.61717 1.99145,-1.0472 3.26485,3.25444 6.04073,-3.17651 -0.80873,-4.54598 z m 2.89695,15.87603 -1.74889,-9.50303 -5.06713,2.66454 6.81602,6.83849 z"
         style="font-style:normal;font-variant:normal;font-weight:normal;font-stretch:normal;font-size:25px;line-height:125%;font-family:'Fira Mono';-inkscape-font-specification:'Fira Mono, Normal';text-align:start;writing-mode:lr-tb;text-anchor:start"
         id="path4522" />
      <path
         d="m 265.9032,517.71876 q -1.03718,-2.68139 0.14028,-4.55751 1.17747,-1.87612 4.06871,-2.99447 l 2.07517,-0.80269 -2.30885,-5.96902 1.9819,-0.76661 6.20504,16.04174 -4.05707,1.5693 q -2.93788,1.13639 -5.04804,0.53194 -2.11015,-0.60445 -3.05714,-3.05268 z m 2.13609,-0.85306 q 1.29873,3.35758 5.09932,1.88749 l 2.33165,-0.9019 -2.66059,-6.87836 -2.2617,0.87484 q -1.842,0.71249 -2.53797,1.89307 -0.71928,1.18959 0.0293,3.12486 z"
         style="font-style:normal;font-variant:normal;font-weight:normal;font-stretch:normal;font-size:25px;line-height:125%;font-family:'Fira Mono';-inkscape-font-specification:'Fira Mono, Normal';text-align:start;writing-mode:lr-tb;text-anchor:start"
         id="path4524" />
      <path
         d="m 251.70503,519.23381 -0.4453,-1.71824 6.17113,-1.59931 -1.5366,-5.92913 -7.57475,1.96309 -0.43276,-1.66984 9.656,-2.50246 4.31502,16.64994 -9.43819,2.44602 -0.19703,-1.75675 7.11495,-1.84392 -1.46134,-5.63872 -6.17113,1.59932 z"
         style="font-style:normal;font-variant:normal;font-weight:normal;font-stretch:normal;font-size:25px;line-height:125%;font-family:'Fira Mono';-inkscape-font-specification:'Fira Mono, Normal';text-align:start;writing-mode:lr-tb;text-anchor:start"
         id="path4526" />
      <path
         d="m 242.89065,528.56309 -2.10515,-15.12925 -7.77509,1.08187 -0.0177,-1.94109 9.65697,-1.34371 2.37045,17.03587 -2.12949,0.29631 z"
         style="font-style:normal;font-variant:normal;font-weight:normal;font-stretch:normal;font-size:25px;line-height:125%;font-family:'Fira Mono';-inkscape-font-specification:'Fira Mono, Normal';text-align:start;writing-mode:lr-tb;text-anchor:start"
         id="path4528" />
    </g>
    <g
       transform="matrix(0.74145346,-0.6710043,0.6710043,0.74145346,-199.09261,246.89966)"
       style="font-style:normal;font-variant:normal;font-weight:normal;font-stretch:normal;font-size:80px;line-height:125%;font-family:'Fira Mono';-inkscape-font-specification:'Fira Mono, Normal';text-align:start;letter-spacing:0px;word-spacing:0px;writing-mode:lr-tb;text-anchor:start;fill:#000000;fill-opacity:1;stroke:none;stroke-width:1px;stroke-linecap:butt;stroke-linejoin:miter;stroke-opacity:1"
       id="text4308">
      <path
         d="m 351.40175,384.70569 0.11842,-2.09666 16.85685,6.56098 -0.15506,2.74563 -17.48842,4.6212 0.12688,-2.24642 4.47053,-1.1247 0.38486,-6.81414 -4.31406,-1.64589 z m 15.10342,5.68571 -9.0482,-3.39061 -0.32283,5.71589 9.37103,-2.32528 z"
         style="font-style:normal;font-variant:normal;font-weight:normal;font-stretch:normal;font-size:25px;line-height:125%;font-family:'Fira Mono';-inkscape-font-specification:'Fira Mono, Normal';text-align:start;writing-mode:lr-tb;text-anchor:start"
         id="path4456" />
      <path
         d="m 353.96528,410.99685 q -1.72468,-0.29663 -2.91185,-1.2111 -1.18717,-0.91447 -1.68132,-2.31855 -0.49838,-1.37945 -0.20598,-3.07948 0.2924,-1.70004 1.22727,-2.85833 0.95527,-1.12942 2.37551,-1.57005 1.42025,-0.44064 3.12028,-0.14824 l 11.45678,1.97054 -0.36021,2.09425 -11.55532,-1.98749 q -1.92179,-0.33054 -3.03523,0.39117 -1.11769,0.74634 -1.40585,2.42174 -0.2924,1.70004 0.51593,2.75228 0.80409,1.07689 2.72588,1.40743 l 11.55532,1.98748 -0.36444,2.11889 -11.45677,-1.97054 z"
         style="font-style:normal;font-variant:normal;font-weight:normal;font-stretch:normal;font-size:25px;line-height:125%;font-family:'Fira Mono';-inkscape-font-specification:'Fira Mono, Normal';text-align:start;writing-mode:lr-tb;text-anchor:start"
         id="path4458" />
      <path
         d="m 348.981,426.01155 q -1.43937,-0.42214 -2.33182,-1.46547 -0.8755,-1.0123 -1.0982,-2.56263 -0.1987,-1.5433 0.35008,-3.41449 0.52064,-1.77523 1.48462,-3.1078 0.98093,-1.30154 2.29806,-2.06158 l 1.03258,1.63153 q -1.13098,0.65832 -1.91042,1.62817 -0.76249,1.00086 -1.19166,2.46423 -0.47139,1.6073 -0.003,2.943 0.46098,1.35968 1.94834,1.79589 0.83963,0.24625 1.48286,0.0962 0.64322,-0.15005 1.30721,-0.81506 0.65695,-0.64103 1.5109,-1.95376 1.57965,-2.45465 3.02215,-3.46451 1.4665,-1.00282 3.31369,-0.46108 1.22347,0.35882 1.98606,1.31195 0.78657,0.96017 0.95552,2.33843 0.19294,1.38528 -0.26437,2.94461 -0.47843,1.63129 -1.33111,2.76202 -0.85268,1.13074 -2.10488,1.93588 l -0.9846,-1.61747 q 2.00384,-1.23602 2.67927,-3.53902 0.42213,-1.43938 0.0488,-2.56493 -0.34934,-1.11852 -1.54882,-1.4703 -0.71969,-0.21107 -1.33604,0.025 -0.61635,0.23609 -1.30848,0.99706 -0.69917,0.78496 -1.62636,2.25858 -1.34713,2.106 -2.79252,3.03686 -1.45242,0.95484 -3.58749,0.32867 z"
         style="font-style:normal;font-variant:normal;font-weight:normal;font-stretch:normal;font-size:25px;line-height:125%;font-family:'Fira Mono';-inkscape-font-specification:'Fira Mono, Normal';text-align:start;writing-mode:lr-tb;text-anchor:start"
         id="path4460" />
      <path
         d="m 341.45015,432.10273 14.15682,5.99791 2.10659,-4.97215 1.6804,0.71195 -5.06165,11.94697 -1.59263,-0.91912 2.03831,-4.81101 -14.15682,-5.99792 0.82898,-1.95663 z"
         style="font-style:normal;font-variant:normal;font-weight:normal;font-stretch:normal;font-size:25px;line-height:125%;font-family:'Fira Mono';-inkscape-font-specification:'Fira Mono, Normal';text-align:start;writing-mode:lr-tb;text-anchor:start"
         id="path4462" />
      <path
         d="m 347.32235,455.17841 -11.98139,-6.79683 -1.89966,3.3487 -1.50039,-0.85115 4.86016,-8.56745 1.5004,0.85114 -1.89966,3.3487 11.98139,6.79683 1.89966,-3.3487 1.47864,0.83881 -4.86016,8.56746 -1.47865,-0.83881 1.89966,-3.3487 z"
         style="font-style:normal;font-variant:normal;font-weight:normal;font-stretch:normal;font-size:25px;line-height:125%;font-family:'Fira Mono';-inkscape-font-specification:'Fira Mono, Normal';text-align:start;writing-mode:lr-tb;text-anchor:start"
         id="path4464" />
      <path
         d="m 340.29334,464.9161 q -3.32695,-2.05703 -5.08372,-3.33936 l -6.98672,-5.09984 1.17916,-1.61542 13.89265,10.14071 -1.70977,2.34237 -15.55056,-3.79868 -0.059,0.0808 q 3.08464,1.88016 5.1645,3.39832 l 6.96652,5.0851 -1.17915,1.61542 -13.89266,-10.14071 1.76873,-2.42314 15.43103,3.83524 0.0589,-0.0808 z"
         style="font-style:normal;font-variant:normal;font-weight:normal;font-stretch:normal;font-size:25px;line-height:125%;font-family:'Fira Mono';-inkscape-font-specification:'Fira Mono, Normal';text-align:start;writing-mode:lr-tb;text-anchor:start"
         id="path4466" />
      <path
         d="m 316.29248,495.41476 q -1.22958,1.06243 -2.3587,1.47636 -1.13169,0.44921 -2.50083,0.50887 l -0.007,-1.84389 q 2.00643,-0.0486 3.57652,-1.40527 1.77817,-1.53643 1.7828,-3.78712 0.002,-2.21542 -2.417,-5.0151 -2.38636,-2.76184 -4.59242,-3.13543 -2.20862,-0.33833 -4.00571,1.21444 -0.98367,0.84994 -1.43842,1.73845 -0.45731,0.92378 -0.64025,1.97391 l -1.764,-0.35907 q 0.10379,-1.17998 0.72529,-2.41083 0.63786,-1.21192 1.94311,-2.33973 1.60792,-1.38932 3.5644,-1.72519 1.95391,-0.30061 3.99926,0.57528 2.04535,0.87588 3.89233,3.01347 1.83064,2.11867 2.40048,4.26946 0.56727,2.18606 -0.03,4.05675 -0.59728,1.8707 -2.12954,3.19464 z"
         style="font-style:normal;font-variant:normal;font-weight:normal;font-stretch:normal;font-size:25px;line-height:125%;font-family:'Fira Mono';-inkscape-font-specification:'Fira Mono, Normal';text-align:start;writing-mode:lr-tb;text-anchor:start"
         id="path4468" />
      <path
         d="m 301.39832,495.28762 -4.62058,-6.77423 1.75552,-1.19741 9.69195,14.20937 -1.75552,1.1974 -4.09935,-6.01006 -5.41113,3.69083 4.09936,6.01006 -1.75552,1.19741 -9.69195,-14.20937 1.75552,-1.19741 4.62058,6.77424 5.41112,-3.69083 z"
         style="font-style:normal;font-variant:normal;font-weight:normal;font-stretch:normal;font-size:25px;line-height:125%;font-family:'Fira Mono';-inkscape-font-specification:'Fira Mono, Normal';text-align:start;writing-mode:lr-tb;text-anchor:start"
         id="path4470" />
      <path
         d="m 285.54737,495.81057 1.85869,-0.97739 3.04876,17.82989 -2.43399,1.27992 -12.96176,-12.61717 1.99145,-1.0472 3.26485,3.25444 6.04073,-3.17651 -0.80873,-4.54598 z m 2.89695,15.87603 -1.74889,-9.50303 -5.06713,2.66454 6.81602,6.83849 z"
         style="font-style:normal;font-variant:normal;font-weight:normal;font-stretch:normal;font-size:25px;line-height:125%;font-family:'Fira Mono';-inkscape-font-specification:'Fira Mono, Normal';text-align:start;writing-mode:lr-tb;text-anchor:start"
         id="path4472" />
      <path
         d="m 265.9032,517.71876 q -1.03718,-2.68139 0.14028,-4.55751 1.17747,-1.87612 4.06871,-2.99447 l 2.07517,-0.80269 -2.30885,-5.96902 1.9819,-0.76661 6.20504,16.04174 -4.05707,1.5693 q -2.93788,1.13639 -5.04804,0.53194 -2.11015,-0.60445 -3.05714,-3.05268 z m 2.13609,-0.85306 q 1.29873,3.35758 5.09932,1.88749 l 2.33165,-0.9019 -2.66059,-6.87836 -2.2617,0.87484 q -1.842,0.71249 -2.53797,1.89307 -0.71928,1.18959 0.0293,3.12486 z"
         style="font-style:normal;font-variant:normal;font-weight:normal;font-stretch:normal;font-size:25px;line-height:125%;font-family:'Fira Mono';-inkscape-font-specification:'Fira Mono, Normal';text-align:start;writing-mode:lr-tb;text-anchor:start"
         id="path4474" />
      <path
         d="m 251.70503,519.23381 -0.4453,-1.71824 6.17113,-1.59931 -1.5366,-5.92913 -7.57475,1.96309 -0.43276,-1.66984 9.656,-2.50246 4.31502,16.64994 -9.43819,2.44602 -0.19703,-1.75675 7.11495,-1.84392 -1.46134,-5.63872 -6.17113,1.59932 z"
         style="font-style:normal;font-variant:normal;font-weight:normal;font-stretch:normal;font-size:25px;line-height:125%;font-family:'Fira Mono';-inkscape-font-specification:'Fira Mono, Normal';text-align:start;writing-mode:lr-tb;text-anchor:start"
         id="path4476" />
      <path
         d="m 242.89065,528.56309 -2.10515,-15.12925 -7.77509,1.08187 -0.0177,-1.94109 9.65697,-1.34371 2.37045,17.03587 -2.12949,0.29631 z"
         style="font-style:normal;font-variant:normal;font-weight:normal;font-stretch:normal;font-size:25px;line-height:125%;font-family:'Fira Mono';-inkscape-font-specification:'Fira Mono, Normal';text-align:start;writing-mode:lr-tb;text-anchor:start"
         id="path4478" />
    </g>
  </g>
</svg>
