<svg xmlns="http://www.w3.org/2000/svg" viewBox="0 0 1189.8 1189.7">
  <path d="M551.8 1188.7c-77.4-5.8-149.7-25.5-218.3-59.4-59.5-29.3-107.8-63.6-154.5-109.5C99.8 942 45.4 848 18.2 742 .5 672.7-4.4 598.6 4 524.8c10-89 42.7-178.8 93-255.5 24.7-37.5 50.5-68.8 82.5-100 47-45.8 95.2-80 154.3-109 65.4-32 129.8-50.5 204-58 21-2.2 71.7-3 94.6-1.6 160.4 10.4 306.6 83 413 205 73 83.7 122 190.5 138.5 300.5 4.8 33 5.8 48.6 5.8 89 0 39.6-1 53.8-5.5 85.6-27.4 189-145.7 354.8-316.5 443-72.4 37.6-148.2 59-231.5 65-15.7 1.2-68.5 1-84.5 0zm372-248c24.7-3.6 47.4-9.6 69.5-18 21.8-8.4 58.8-28 69-36.6 8.6-7 12.2-21 8.5-32.3-1.3-4-3.3-7-7.4-11-7-7-13-9.3-23-8.7-7.2.4-9.4 1.3-24 10.3-28.2 17.3-60.2 29.8-90.6 35.5-32 6-68.3 5.4-99.7-1.4-25.2-5.5-41.6-11.4-67.2-24-14.8-7.5-21.3-11.4-30-18-12.8-10-31-27.6-40-39-16-19.6-8.4-3.2-144-318C423.3 197 418 185 413.8 180.5c-6.6-6.5-13-9.2-22.5-9.2-6 0-8.6.5-13 2.5-12 5.6-.8-19-141.7 308.3-125 290.5-127.5 296.2-128 303.5-.4 6 0 8.6 1.7 13.3 6 15.8 24.2 23.8 40.3 17.8 7.7-2.8 13-8 17-15.8 1.8-3.7 52.8-121.8 113.2-262.4C341.3 398 391 283 391.3 283c.3-.2 51 116.8 112.4 259.7C612 794.4 615.7 803 623.3 814.2c11 16.4 20.8 28 36.2 43.2 22.3 21.8 40.5 35 67.6 48.7 39 20 80.5 32.3 124.3 36.8 15.2 1.6 56.7.5 72.5-2zm-267-376c4.8-14.7 17.5-40.6 26.3-54 19.7-29.7 48.6-58 74.4-72.4 26-14.6 56.4-25.6 85.4-31 64.4-11.8 126.6.6 186 37 5.5 3.3 11.3 6.6 12.7 7.3 12 5 28.5-.3 35.8-11.7 8-12.8 6-29-5.3-38.8-7.7-6.8-35.4-22.5-54-30.6-36.7-16-70-24-110.7-27-61.3-4-134.5 14.3-189 47.5-37.3 22.7-69.7 55.6-92.2 93.3-4.2 7-7.7 13.3-7.7 13.8 0 1.5 33.4 77.8 34 77.8.3 0 2.3-5 4.4-11.2z"/>
</svg>