<?xml version="1.0" encoding="UTF-8" standalone="no"?>
<svg
   xmlns:dc="http://purl.org/dc/elements/1.1/"
   xmlns:cc="http://creativecommons.org/ns#"
   xmlns:rdf="http://www.w3.org/1999/02/22-rdf-syntax-ns#"
   xmlns:svg="http://www.w3.org/2000/svg"
   xmlns="http://www.w3.org/2000/svg"
   xmlns:sodipodi="http://sodipodi.sourceforge.net/DTD/sodipodi-0.dtd"
   xmlns:inkscape="http://www.inkscape.org/namespaces/inkscape"
   width="70pt"
   height="70pt"
   viewBox="0 0 70 70"
   version="1.1"
   id="svg4196"
   inkscape:version="0.91 r13725"
   sodipodi:docname="creative-commons.svg">
  <metadata
     id="metadata4216">
    <rdf:RDF>
      <cc:Work
         rdf:about="">
        <dc:format>image/svg+xml</dc:format>
        <dc:type
           rdf:resource="http://purl.org/dc/dcmitype/StillImage" />
      </cc:Work>
    </rdf:RDF>
  </metadata>
  <defs
     id="defs4214" />
  <sodipodi:namedview
     pagecolor="#ffffff"
     bordercolor="#666666"
     borderopacity="1"
     objecttolerance="10"
     gridtolerance="10"
     guidetolerance="10"
     inkscape:pageopacity="0"
     inkscape:pageshadow="2"
     inkscape:window-width="1440"
     inkscape:window-height="855"
     id="namedview4212"
     showgrid="false"
     inkscape:zoom="8.8685714"
     inkscape:cx="43.75"
     inkscape:cy="43.75"
     inkscape:window-x="0"
     inkscape:window-y="0"
     inkscape:window-maximized="0"
     inkscape:current-layer="svg4196" />
  <path
     fill="#ffffff"
     d=" M 0.00 0.00 L 70.00 0.00 L 70.00 33.27 C 69.55 23.95 65.37 14.86 58.29 8.73 C 45.59 -3.02 23.64 -2.98 11.30 9.29 C 4.75 15.34 0.70 23.86 0.00 32.75 L 0.00 0.00 Z"
     id="path4198"
     style="fill:none" />
  <path
     fill="#404040"
     d=" M 11.30 9.29 C 23.64 -2.98 45.59 -3.02 58.29 8.73 C 65.37 14.86 69.55 23.95 70.00 33.27 L 70.00 37.24 C 69.44 44.22 67.14 51.18 62.62 56.61 C 56.39 64.46 46.75 69.31 36.79 70.00 L 33.47 70.00 C 16.01 69.43 0.65 54.23 0.00 36.75 L 0.00 32.75 C 0.70 23.86 4.75 15.34 11.30 9.29 Z"
     id="path4200"
     style="fill:none;fill-opacity:1" />
  <path
     fill="#ffffff"
     d=" M 29.52 6.81 C 38.93 4.97 49.18 8.05 55.72 15.12 C 66.16 25.54 66.49 44.49 55.72 54.79 C 47.01 63.90 32.09 66.36 21.14 59.92 C 10.18 53.86 3.80 40.26 7.20 28.03 C 9.93 17.58 18.75 8.69 29.52 6.81 Z"
     id="path4202"
     style="fill:none" />
  <path
     fill="#404040"
     d=" M 17.12 28.07 C 21.33 22.28 31.13 23.01 34.78 29.07 C 33.24 29.88 31.70 30.69 30.16 31.50 C 28.71 29.76 26.58 28.06 24.17 29.11 C 20.60 30.98 20.77 36.34 22.52 39.43 C 24.60 42.50 29.07 41.14 30.63 38.26 C 32.03 39.02 33.44 39.77 34.84 40.53 C 31.76 45.57 24.71 47.53 19.64 44.31 C 14.32 41.02 13.77 32.95 17.12 28.07 Z"
     id="path4204"
     style="fill:#808080;fill-opacity:1" />
  <path
     fill="#404040"
     d=" M 40.48 25.36 C 45.37 22.72 51.98 24.27 54.97 29.05 C 53.48 29.87 51.99 30.69 50.50 31.50 C 48.83 29.20 45.26 27.59 42.99 30.07 C 40.89 32.96 40.91 37.80 43.57 40.36 C 46.08 42.29 49.33 40.68 50.79 38.27 C 52.21 39.00 53.64 39.74 55.06 40.47 C 51.68 46.30 42.87 47.84 38.08 42.89 C 33.70 37.96 34.41 28.66 40.48 25.36 Z"
     id="path4206"
     style="fill:#808080;fill-opacity:1" />
  <path
     fill="#ffffff"
     d=" M 0.00 36.75 C 0.65 54.23 16.01 69.43 33.47 70.00 L 0.00 70.00 L 0.00 36.75 Z"
     id="path4208"
     style="fill:none" />
  <path
     fill="#ffffff"
     d=" M 62.62 56.61 C 67.14 51.18 69.44 44.22 70.00 37.24 L 70.00 70.00 L 36.79 70.00 C 46.75 69.31 56.39 64.46 62.62 56.61 Z"
     id="path4210"
     style="fill:none" />
  <path
     style="color:#000000;font-style:normal;font-variant:normal;font-weight:normal;font-stretch:normal;font-size:medium;line-height:normal;font-family:sans-serif;text-indent:0;text-align:start;text-decoration:none;text-decoration-line:none;text-decoration-style:solid;text-decoration-color:#000000;letter-spacing:normal;word-spacing:normal;text-transform:none;direction:ltr;block-progression:tb;writing-mode:lr-tb;baseline-shift:baseline;text-anchor:start;white-space:normal;clip-rule:nonzero;display:inline;overflow:visible;visibility:visible;opacity:1;isolation:auto;mix-blend-mode:normal;color-interpolation:sRGB;color-interpolation-filters:linearRGB;solid-color:#000000;solid-opacity:1;fill:#808080;fill-opacity:1;fill-rule:nonzero;stroke:none;stroke-width:9.60000038;stroke-linecap:butt;stroke-linejoin:round;stroke-miterlimit:4;stroke-dasharray:none;stroke-dashoffset:0;stroke-opacity:1;color-rendering:auto;image-rendering:auto;shape-rendering:auto;text-rendering:auto;enable-background:accumulate"
     d="m 35.001391,0.00626114 c -19.265831,0 -34.99822067,15.70559286 -34.99822059,34.99519586 0,19.289603 15.73238959,34.995196 34.99822059,34.995196 19.265832,0 34.996504,-15.705593 34.996504,-34.995196 0,-19.289603 -15.730672,-34.99519586 -34.996504,-34.99519586 z m 0,8.48007626 c 14.7296,0 26.556888,11.8339966 26.556888,26.5151196 0,14.681121 -11.827288,26.513395 -26.556888,26.513395 -14.729599,0 -26.5568876,-11.832274 -26.5568876,-26.513395 0,-14.681123 11.8272886,-26.5151196 26.5568876,-26.5151196 z"
     id="path4179"
     inkscape:connector-curvature="0" />
</svg>
