<?xml version="1.0" encoding="UTF-8" standalone="no"?>
<svg
   xmlns:dc="http://purl.org/dc/elements/1.1/"
   xmlns:cc="http://creativecommons.org/ns#"
   xmlns:rdf="http://www.w3.org/1999/02/22-rdf-syntax-ns#"
   xmlns:svg="http://www.w3.org/2000/svg"
   xmlns="http://www.w3.org/2000/svg"
   xmlns:sodipodi="http://sodipodi.sourceforge.net/DTD/sodipodi-0.dtd"
   xmlns:inkscape="http://www.inkscape.org/namespaces/inkscape"
   version="1.1"
   id="Layer_1"
   x="0px"
   y="0px"
   width="277.71701"
   height="277.71899"
   viewBox="0 0 277.71701 277.719"
   enable-background="new 0 0 266.893 266.895"
   xml:space="preserve"
   inkscape:version="0.91 r13725"
   sodipodi:docname="email-negative.svg"><metadata
     id="metadata4529"><rdf:RDF><cc:Work
         rdf:about=""><dc:format>image/svg+xml</dc:format><dc:type
           rdf:resource="http://purl.org/dc/dcmitype/StillImage" /><dc:title></dc:title></cc:Work></rdf:RDF></metadata><defs
     id="defs4527" /><sodipodi:namedview
     pagecolor="#ffffff"
     bordercolor="#666666"
     borderopacity="1"
     objecttolerance="10"
     gridtolerance="10"
     guidetolerance="10"
     inkscape:pageopacity="0"
     inkscape:pageshadow="2"
     inkscape:window-width="1440"
     inkscape:window-height="855"
     id="namedview4525"
     showgrid="false"
     fit-margin-top="0"
     fit-margin-left="0"
     fit-margin-right="0"
     fit-margin-bottom="0"
     inkscape:zoom="0.8842429"
     inkscape:cx="143.9476"
     inkscape:cy="138.85952"
     inkscape:window-x="0"
     inkscape:window-y="0"
     inkscape:window-maximized="0"
     inkscape:current-layer="Layer_1" /><path
     style="color:#000000;font-style:normal;font-variant:normal;font-weight:normal;font-stretch:normal;font-size:medium;line-height:normal;font-family:sans-serif;text-indent:0;text-align:start;text-decoration:none;text-decoration-line:none;text-decoration-style:solid;text-decoration-color:#000000;letter-spacing:normal;word-spacing:normal;text-transform:none;direction:ltr;block-progression:tb;writing-mode:lr-tb;baseline-shift:baseline;text-anchor:start;white-space:normal;clip-rule:nonzero;display:inline;overflow:visible;visibility:visible;opacity:1;isolation:auto;mix-blend-mode:normal;color-interpolation:sRGB;color-interpolation-filters:linearRGB;solid-color:#000000;solid-opacity:1;fill:#000000;fill-opacity:1;fill-rule:nonzero;stroke:none;stroke-width:20;stroke-linecap:butt;stroke-linejoin:miter;stroke-miterlimit:4;stroke-dasharray:none;stroke-dashoffset:0;stroke-opacity:1;color-rendering:auto;image-rendering:auto;shape-rendering:auto;text-rendering:auto;enable-background:accumulate"
     d="M 24.224609,0 C 10.965208,0 0,10.965208 0,24.224609 L 0,253.49414 c 0,13.25793 10.96235,24.22461 24.224609,24.22461 l 229.269531,0 c 13.26016,0 24.22266,-10.96382 24.22266,-24.22461 l 0,-229.269531 C 277.7168,10.96436 266.75292,0 253.49414,0 L 24.224609,0 Z m 0,20 229.269531,0 c 2.45122,0 4.22266,1.770859 4.22266,4.224609 l 0,229.269531 c 0,2.45121 -1.77482,4.22461 -4.22266,4.22461 l -229.269531,0 C 21.770868,257.71875 20,255.94621 20,253.49414 L 20,24.224609 C 20,21.770011 21.770011,20 24.224609,20 Z"
     id="Blue_1_"
     inkscape:connector-curvature="0" /><path
     style="color:#000000;font-style:normal;font-variant:normal;font-weight:normal;font-stretch:normal;font-size:medium;line-height:normal;font-family:sans-serif;text-indent:0;text-align:start;text-decoration:none;text-decoration-line:none;text-decoration-style:solid;text-decoration-color:#000000;letter-spacing:normal;word-spacing:normal;text-transform:none;direction:ltr;block-progression:tb;writing-mode:lr-tb;baseline-shift:baseline;text-anchor:start;white-space:normal;clip-rule:nonzero;display:inline;overflow:visible;visibility:visible;opacity:1;isolation:auto;mix-blend-mode:normal;color-interpolation:sRGB;color-interpolation-filters:linearRGB;solid-color:#000000;solid-opacity:1;fill:#000000;fill-opacity:1;fill-rule:nonzero;stroke:none;stroke-width:21.87800026;stroke-linecap:round;stroke-linejoin:round;stroke-miterlimit:4;stroke-dasharray:none;stroke-dashoffset:0;stroke-opacity:1;color-rendering:auto;image-rendering:auto;shape-rendering:auto;text-rendering:auto;enable-background:accumulate"
     d="M 35.736328 53.191406 A 10.940094 10.940094 0 0 0 24.796875 64.130859 L 24.796875 213.79492 A 10.940094 10.940094 0 0 0 35.736328 224.73242 L 240.81445 224.73242 A 10.940094 10.940094 0 0 0 251.75391 213.79492 L 251.75391 64.130859 A 10.940094 10.940094 0 0 0 240.81445 53.191406 L 35.736328 53.191406 z M 66.722656 75.070312 L 210.10352 75.070312 L 138.00391 124.23047 L 66.722656 75.070312 z M 46.673828 85.539062 L 132.29297 144.58789 A 10.001 10.001 0 0 0 143.60547 144.61719 L 229.875 85.796875 L 229.875 202.85547 L 46.673828 202.85547 L 46.673828 85.539062 z "
     id="rect5751" /></svg>