<?xml version="1.0" encoding="UTF-8" standalone="no"?>
<svg
   xmlns:dc="http://purl.org/dc/elements/1.1/"
   xmlns:cc="http://creativecommons.org/ns#"
   xmlns:rdf="http://www.w3.org/1999/02/22-rdf-syntax-ns#"
   xmlns:svg="http://www.w3.org/2000/svg"
   xmlns="http://www.w3.org/2000/svg"
   xmlns:sodipodi="http://sodipodi.sourceforge.net/DTD/sodipodi-0.dtd"
   xmlns:inkscape="http://www.inkscape.org/namespaces/inkscape"
   version="1.1"
   id="Layer_1"
   x="0px"
   y="0px"
   width="277.71701"
   height="277.71899"
   viewBox="0 0 277.71701 277.719"
   enable-background="new 0 0 266.893 266.895"
   xml:space="preserve"
   inkscape:version="0.91 r13725"
   sodipodi:docname="email.svg"><metadata
     id="metadata4529"><rdf:RDF><cc:Work
         rdf:about=""><dc:format>image/svg+xml</dc:format><dc:type
           rdf:resource="http://purl.org/dc/dcmitype/StillImage" /><dc:title></dc:title></cc:Work></rdf:RDF></metadata><defs
     id="defs4527" /><sodipodi:namedview
     pagecolor="#ffffff"
     bordercolor="#666666"
     borderopacity="1"
     objecttolerance="10"
     gridtolerance="10"
     guidetolerance="10"
     inkscape:pageopacity="0"
     inkscape:pageshadow="2"
     inkscape:window-width="1440"
     inkscape:window-height="855"
     id="namedview4525"
     showgrid="false"
     fit-margin-top="0"
     fit-margin-left="0"
     fit-margin-right="0"
     fit-margin-bottom="0"
     inkscape:zoom="0.8842429"
     inkscape:cx="143.9476"
     inkscape:cy="138.85952"
     inkscape:window-x="0"
     inkscape:window-y="0"
     inkscape:window-maximized="0"
     inkscape:current-layer="Layer_1" /><path
     style="color:#000000;font-style:normal;font-variant:normal;font-weight:normal;font-stretch:normal;font-size:medium;line-height:normal;font-family:sans-serif;text-indent:0;text-align:start;text-decoration:none;text-decoration-line:none;text-decoration-style:solid;text-decoration-color:#000000;letter-spacing:normal;word-spacing:normal;text-transform:none;direction:ltr;block-progression:tb;writing-mode:lr-tb;baseline-shift:baseline;text-anchor:start;white-space:normal;clip-rule:nonzero;display:inline;overflow:visible;visibility:visible;opacity:1;isolation:auto;mix-blend-mode:normal;color-interpolation:sRGB;color-interpolation-filters:linearRGB;solid-color:#000000;solid-opacity:1;fill:#000000;fill-opacity:1;fill-rule:nonzero;stroke:none;stroke-width:20;stroke-linecap:butt;stroke-linejoin:miter;stroke-miterlimit:4;stroke-dasharray:none;stroke-dashoffset:0;stroke-opacity:1;color-rendering:auto;image-rendering:auto;shape-rendering:auto;text-rendering:auto;enable-background:accumulate"
     d="M 24.224609 0 C 10.965208 0 0 10.965208 0 24.224609 L 0 253.49414 C 0 266.75207 10.96235 277.71875 24.224609 277.71875 L 253.49414 277.71875 C 266.7543 277.71875 277.7168 266.75493 277.7168 253.49414 L 277.7168 24.224609 C 277.7168 10.96436 266.75292 0 253.49414 0 L 24.224609 0 z M 35.736328 53.191406 L 240.81445 53.191406 A 10.940094 10.940094 0 0 1 251.75391 64.130859 L 251.75391 213.79492 A 10.940094 10.940094 0 0 1 240.81445 224.73242 L 35.736328 224.73242 A 10.940094 10.940094 0 0 1 24.796875 213.79492 L 24.796875 64.130859 A 10.940094 10.940094 0 0 1 35.736328 53.191406 z M 65.949219 75.070312 L 139.03516 128.44727 L 210.47852 75.070312 L 65.949219 75.070312 z M 229.875 85.542969 L 145.08789 148.89062 A 10.001 10.001 0 0 1 133.20508 148.95508 L 46.673828 85.757812 L 46.673828 202.85547 L 229.875 202.85547 L 229.875 85.542969 z "
     id="Blue_1_" /></svg>