<?xml version="1.0" encoding="UTF-8" standalone="no"?>
<svg
   xmlns:dc="http://purl.org/dc/elements/1.1/"
   xmlns:cc="http://creativecommons.org/ns#"
   xmlns:rdf="http://www.w3.org/1999/02/22-rdf-syntax-ns#"
   xmlns:svg="http://www.w3.org/2000/svg"
   xmlns="http://www.w3.org/2000/svg"
   xmlns:sodipodi="http://sodipodi.sourceforge.net/DTD/sodipodi-0.dtd"
   xmlns:inkscape="http://www.inkscape.org/namespaces/inkscape"
   version="1.1"
   id="Layer_1"
   x="0px"
   y="0px"
   width="277.71701"
   height="277.71899"
   viewBox="0 0 277.71701 277.719"
   enable-background="new 0 0 266.893 266.895"
   xml:space="preserve"
   inkscape:version="0.91 r13725"
   sodipodi:docname="fb-negative.svg"><metadata
     id="metadata4529"><rdf:RDF><cc:Work
         rdf:about=""><dc:format>image/svg+xml</dc:format><dc:type
           rdf:resource="http://purl.org/dc/dcmitype/StillImage" /><dc:title></dc:title></cc:Work></rdf:RDF></metadata><defs
     id="defs4527" /><sodipodi:namedview
     pagecolor="#ffffff"
     bordercolor="#666666"
     borderopacity="1"
     objecttolerance="10"
     gridtolerance="10"
     guidetolerance="10"
     inkscape:pageopacity="0"
     inkscape:pageshadow="2"
     inkscape:window-width="1444"
     inkscape:window-height="861"
     id="namedview4525"
     showgrid="false"
     fit-margin-top="0"
     fit-margin-left="0"
     fit-margin-right="0"
     fit-margin-bottom="0"
     inkscape:zoom="0.8842429"
     inkscape:cx="138.8585"
     inkscape:cy="138.85951"
     inkscape:window-x="0"
     inkscape:window-y="0"
     inkscape:window-maximized="0"
     inkscape:current-layer="Layer_1" /><path
     id="Blue_1_"
     d="m 253.494,267.719 c 7.854,0 14.223,-6.369 14.223,-14.225 l 0,-229.27 C 267.717,16.367 261.349,10 253.494,10 L 24.224,10 C 16.367,10 10,16.367 10,24.224 l 0,229.27 c 0,7.855 6.366,14.225 14.224,14.225 l 229.27,0 z"
     inkscape:connector-curvature="0"
     style="fill:none;stroke:#000000;stroke-width:20;stroke-miterlimit:4;stroke-dasharray:none;stroke-opacity:1" /><path
     id="f"
     d="m 187.821,267.719 0,-99.803 33.499,0 5.016,-38.895 -38.515,0 0,-24.832 c 0,-11.261 3.127,-18.935 19.275,-18.935 l 20.596,-0.009 0,-34.788 c -3.562,-0.474 -15.788,-1.533 -30.012,-1.533 -29.695,0 -50.025,18.126 -50.025,51.413 l 0,28.684 -33.585,0 0,38.895 33.585,0 0,99.803 40.166,0 z"
     inkscape:connector-curvature="0"
     style="fill:#000000;fill-opacity:1" /></svg>