<?xml version="1.0" encoding="UTF-8" standalone="no"?>
<svg
   xmlns:dc="http://purl.org/dc/elements/1.1/"
   xmlns:cc="http://creativecommons.org/ns#"
   xmlns:rdf="http://www.w3.org/1999/02/22-rdf-syntax-ns#"
   xmlns:svg="http://www.w3.org/2000/svg"
   xmlns="http://www.w3.org/2000/svg"
   xmlns:sodipodi="http://sodipodi.sourceforge.net/DTD/sodipodi-0.dtd"
   xmlns:inkscape="http://www.inkscape.org/namespaces/inkscape"
   version="1.1"
   id="Layer_1"
   x="0px"
   y="0px"
   width="277.71701"
   height="277.71899"
   viewBox="0 0 277.71701 277.719"
   enable-background="new 0 0 266.893 266.895"
   xml:space="preserve"
   inkscape:version="0.91 r13725"
   sodipodi:docname="insta-negative.svg"><metadata
     id="metadata4529"><rdf:RDF><cc:Work
         rdf:about=""><dc:format>image/svg+xml</dc:format><dc:type
           rdf:resource="http://purl.org/dc/dcmitype/StillImage" /><dc:title></dc:title></cc:Work></rdf:RDF></metadata><defs
     id="defs4527" /><sodipodi:namedview
     pagecolor="#ffffff"
     bordercolor="#666666"
     borderopacity="1"
     objecttolerance="10"
     gridtolerance="10"
     guidetolerance="10"
     inkscape:pageopacity="0"
     inkscape:pageshadow="2"
     inkscape:window-width="1440"
     inkscape:window-height="855"
     id="namedview4525"
     showgrid="false"
     fit-margin-top="0"
     fit-margin-left="0"
     fit-margin-right="0"
     fit-margin-bottom="0"
     inkscape:zoom="2.7941913"
     inkscape:cx="138.85851"
     inkscape:cy="138.8595"
     inkscape:window-x="0"
     inkscape:window-y="0"
     inkscape:window-maximized="0"
     inkscape:current-layer="Layer_1" /><rect
     style="fill:none;fill-opacity:1;stroke:#ffffff;stroke-width:0;stroke-linejoin:round;stroke-miterlimit:4;stroke-dasharray:none;stroke-opacity:1"
     id="rect6389"
     width="40.712776"
     height="62.2001"
     x="147.01843"
     y="251.70804" /><g
     id="5151e0c8492e5103c096af88a50059a5"
     transform="translate(-116.41787,-117.13848)"><g
       id="g4337" /><path
       style="clip-rule:evenodd;display:inline;fill-rule:evenodd"
       d="M 35.552734 -0.0390625 C 15.938564 -0.0390625 -0.1015625 16.001064 -0.1015625 35.615234 L -0.1015625 101.0957 L 64.087891 101.0957 C 79.065984 76.058058 107.26285 59.261719 139.1543 59.261719 C 158.02912 59.261719 175.60125 65.157389 189.91406 75.150391 C 189.81928 74.533033 189.75391 73.906414 189.75391 73.263672 L 189.75391 43.326172 C 189.75391 36.449062 195.38461 30.820313 202.26172 30.820312 L 233.66406 30.820312 C 240.54171 30.820312 246.16992 36.449062 246.16992 43.326172 L 246.16992 73.263672 C 246.16992 80.141322 240.54116 85.769531 233.66406 85.769531 L 202.41211 85.769531 C 206.92534 90.414803 210.90199 95.548091 214.2207 101.0957 L 277.70117 101.0957 L 277.70117 35.615234 C 277.70117 16.001064 261.65321 -0.0390625 242.03906 -0.0390625 L 35.552734 -0.0390625 z M 139.1543 83.705078 C 104.44938 83.705078 77.154297 110.05357 77.154297 142.13477 C 77.154297 174.21596 104.44938 200.56641 139.1543 200.56641 C 173.85922 200.56641 201.15625 174.21596 201.15625 142.13477 C 201.15625 110.05357 173.85922 83.705078 139.1543 83.705078 z M -0.1015625 124.04688 L -0.1015625 242.10156 C -0.1015625 261.71571 15.938564 277.76367 35.552734 277.76367 L 242.03906 277.76367 C 261.65321 277.76367 277.70117 261.71571 277.70117 242.10156 L 277.70117 124.04688 L 223.51953 124.04688 C 224.87669 129.86524 225.59961 135.91615 225.59961 142.13477 C 225.59961 188.09409 186.43413 225.00977 139.1543 225.00977 C 91.874457 225.00977 52.708984 188.09409 52.708984 142.13477 C 52.708984 135.91615 53.431901 129.86524 54.789062 124.04688 L -0.1015625 124.04688 z "
       transform="translate(116.41787,117.13848)"
       id="path4339" /></g></svg>