<?xml version="1.0" encoding="UTF-8" standalone="no"?>
<svg
   xmlns:dc="http://purl.org/dc/elements/1.1/"
   xmlns:cc="http://creativecommons.org/ns#"
   xmlns:rdf="http://www.w3.org/1999/02/22-rdf-syntax-ns#"
   xmlns:svg="http://www.w3.org/2000/svg"
   xmlns="http://www.w3.org/2000/svg"
   xmlns:sodipodi="http://sodipodi.sourceforge.net/DTD/sodipodi-0.dtd"
   xmlns:inkscape="http://www.inkscape.org/namespaces/inkscape"
   version="1.1"
   id="Layer_1"
   x="0px"
   y="0px"
   width="277.71701"
   height="277.71899"
   viewBox="0 0 277.71701 277.719"
   enable-background="new 0 0 266.893 266.895"
   xml:space="preserve"
   inkscape:version="0.91 r13725"
   sodipodi:docname="insta.svg"><metadata
     id="metadata4529"><rdf:RDF><cc:Work
         rdf:about=""><dc:format>image/svg+xml</dc:format><dc:type
           rdf:resource="http://purl.org/dc/dcmitype/StillImage" /><dc:title></dc:title></cc:Work></rdf:RDF></metadata><defs
     id="defs4527" /><sodipodi:namedview
     pagecolor="#ffffff"
     bordercolor="#666666"
     borderopacity="1"
     objecttolerance="10"
     gridtolerance="10"
     guidetolerance="10"
     inkscape:pageopacity="0"
     inkscape:pageshadow="2"
     inkscape:window-width="1440"
     inkscape:window-height="855"
     id="namedview4525"
     showgrid="false"
     fit-margin-top="0"
     fit-margin-left="0"
     fit-margin-right="0"
     fit-margin-bottom="0"
     inkscape:zoom="2.3505912"
     inkscape:cx="138.07585"
     inkscape:cy="138.85747"
     inkscape:window-x="0"
     inkscape:window-y="0"
     inkscape:window-maximized="0"
     inkscape:current-layer="Layer_1" /><rect
     style="fill:none;fill-opacity:1;stroke:#ffffff;stroke-width:0;stroke-linejoin:round;stroke-miterlimit:4;stroke-dasharray:none;stroke-opacity:1"
     id="rect6389"
     width="40.712776"
     height="62.2001"
     x="147.01843"
     y="251.70804" /><g
     id="5151e0c8492e5103c096af88a50059a5"
     transform="translate(-116.41787,-117.13848)"><g
       id="g4337" /><path
       id="path4339"
       d="m 151.97063,117.09878 206.48659,0 c 19.61415,0 35.66146,16.04023 35.66146,35.6544 l 0,206.48659 c 0,19.61415 -16.04731,35.66146 -35.66146,35.66146 l -206.48659,0 c -19.61417,0 -35.6544,-16.04731 -35.6544,-35.66146 l 0,-206.48659 c 0,-19.61417 16.04023,-35.6544 35.6544,-35.6544 l 0,0 z m 166.70865,30.85945 c -6.87711,0 -12.50656,5.62943 -12.50656,12.50654 l 0,29.93689 c 0,6.8771 5.6289,12.50654 12.50656,12.50654 l 31.402,0 c 6.8771,0 12.50655,-5.62889 12.50655,-12.50654 l 0,-29.93689 c 0,-6.87711 -5.6289,-12.50654 -12.50655,-12.50654 l -31.402,0 0,0 z m 44.03739,86.61673 -24.45041,0 c 2.31266,7.55503 3.56086,15.55151 3.56086,23.83992 0,46.20762 -38.65912,83.66583 -86.35198,83.66583 -47.68634,0 -86.34545,-37.45821 -86.34545,-83.66583 0,-8.28788 1.24766,-16.28434 3.56086,-23.83992 l -25.50835,0 0,117.34734 c 0,6.07687 4.96456,11.04796 11.04197,11.04796 l 193.45108,0 c 6.07033,0 11.04197,-4.97164 11.04197,-11.04796 l 0,-117.34734 -5.5e-4,0 z M 255.47568,201.3349 c -30.81214,0 -55.79153,24.20578 -55.79153,54.06166 0,29.85588 24.97939,54.06165 55.79153,54.06165 30.81814,0 55.79753,-24.20577 55.79753,-54.06165 0,-29.85588 -24.97939,-54.06166 -55.79753,-54.06166 z"
       display="inline"
       inkscape:connector-curvature="0"
       style="clip-rule:evenodd;display:inline;fill-rule:evenodd" /></g></svg>