<?xml version="1.0" encoding="UTF-8" standalone="no"?>
<!-- Created with Inkscape (http://www.inkscape.org/) -->

<svg
   xmlns:dc="http://purl.org/dc/elements/1.1/"
   xmlns:cc="http://creativecommons.org/ns#"
   xmlns:rdf="http://www.w3.org/1999/02/22-rdf-syntax-ns#"
   xmlns:svg="http://www.w3.org/2000/svg"
   xmlns="http://www.w3.org/2000/svg"
   xmlns:sodipodi="http://sodipodi.sourceforge.net/DTD/sodipodi-0.dtd"
   xmlns:inkscape="http://www.inkscape.org/namespaces/inkscape"
   width="92.686852mm"
   height="10.414179mm"
   viewBox="0 0 328.41798 36.900634"
   id="svg2"
   version="1.1"
   inkscape:version="0.91 r13725"
   sodipodi:docname="austin-chapel.svg">
  <defs
     id="defs4" />
  <sodipodi:namedview
     id="base"
     pagecolor="#ffffff"
     bordercolor="#666666"
     borderopacity="1.0"
     inkscape:pageopacity="0.0"
     inkscape:pageshadow="2"
     inkscape:zoom="2.5303122"
     inkscape:cx="164.20899"
     inkscape:cy="18.450317"
     inkscape:document-units="px"
     inkscape:current-layer="text4136"
     showgrid="false"
     fit-margin-top="0"
     fit-margin-left="0"
     fit-margin-right="0"
     fit-margin-bottom="0"
     inkscape:window-width="1440"
     inkscape:window-height="851"
     inkscape:window-x="0"
     inkscape:window-y="0"
     inkscape:window-maximized="1" />
  <metadata
     id="metadata7">
    <rdf:RDF>
      <cc:Work
         rdf:about="">
        <dc:format>image/svg+xml</dc:format>
        <dc:type
           rdf:resource="http://purl.org/dc/dcmitype/StillImage" />
        <dc:title></dc:title>
      </cc:Work>
    </rdf:RDF>
  </metadata>
  <g
     inkscape:label="Layer 1"
     inkscape:groupmode="layer"
     id="layer1"
     transform="translate(1006.2897,-407.78162)">
    <g
       style="font-style:normal;font-variant:normal;font-weight:normal;font-stretch:normal;font-size:40px;line-height:125%;font-family:'Rock Salt';-inkscape-font-specification:'Rock Salt';letter-spacing:0px;word-spacing:0px;fill:#000000;fill-opacity:1;stroke:none;stroke-width:1px;stroke-linecap:butt;stroke-linejoin:miter;stroke-opacity:1"
       id="text4136">
      <path
         d="m -983.90814,440.73938 q -0.0696,0.39429 -0.32471,0.55664 -0.23193,0.18555 -0.44067,0.51025 l -0.0928,0 q -0.23193,0 -0.46386,0.0464 -0.20874,0.0464 -0.44068,0.11597 -0.11596,-0.0464 -0.27832,-0.0696 -0.16235,-0.0232 -0.20874,-0.16236 -0.18554,0.0928 -0.51025,0.0928 -0.53345,0 -1.02051,-0.30152 -0.46387,-0.30151 -0.97412,-0.46386 -0.13916,-0.27832 -0.3479,-0.51026 -0.18555,-0.20874 -0.39429,-0.41748 -0.18555,-0.20874 -0.37109,-0.44067 -0.18555,-0.23193 -0.30152,-0.55664 -0.0464,-0.13916 -0.11596,-0.16236 -0.0696,-0.0232 -0.20874,0 0.0232,-0.25512 -0.0696,-0.44067 -0.0696,-0.18555 -0.3479,-0.23193 0,-0.30152 -0.0928,-0.51026 -0.0928,-0.20874 -0.23193,-0.37109 -0.11597,-0.13916 -0.27832,-0.30151 -0.13916,-0.16236 -0.23193,-0.39429 -0.20874,-0.0464 -0.41748,-0.0696 -0.18555,0 -0.41749,0 -1.11328,0 -2.15698,0.41748 -0.11596,0.0464 -0.25512,0.11597 -0.11597,0.0696 -0.23194,0.11596 -0.0464,0 -0.0928,0 -0.0232,0.0232 -0.0696,0.0232 -0.16236,0 -0.30152,-0.0696 -0.13916,-0.0464 -0.30151,-0.0464 -0.0696,0 -0.16235,0.0232 -0.0696,0.0464 -0.13916,0.0696 -0.3479,0.11597 -0.64942,0.13916 -0.95092,0.18555 -2.01782,0.27832 -1.0437,0.0928 -1.92504,0.48706 -0.1856,0.0928 -0.2319,0.27832 -0.046,0.20874 -0.023,0.39429 -0.2552,0.18555 -0.3943,0.48706 -0.116,0.30152 -0.232,0.62622 -0.093,0.3479 -0.2087,0.67261 -0.116,0.32471 -0.3247,0.55664 0.07,0.13916 0.07,0.30151 0,0.3479 -0.232,0.6958 -0.2319,0.34791 -0.3479,0.67261 -0.1159,0.32471 -0.1855,0.62622 -0.07,0.32471 -0.2087,0.57984 -0.1392,0.25512 -0.3711,0.41748 -0.2552,0.16235 -0.6958,0.16235 -0.4175,0 -0.719,-0.16235 -0.3015,-0.16236 -0.4871,-0.41748 -0.1855,-0.25513 -0.3015,-0.60303 -0.116,-0.3479 -0.1856,-0.6958 0.2552,-0.51026 0.4871,-0.88135 0.2319,-0.37109 0.3479,-0.95093 0.4175,-0.30151 0.6262,-0.74218 0.1856,-0.41748 0.2088,-0.92774 0.2551,-0.16235 0.3711,-0.44067 0.093,-0.25513 0.1159,-0.55664 -0.5566,-0.0464 -1.1596,-0.0928 -0.6263,-0.0464 -1.1597,-0.23193 0,-0.0464 0.023,-0.0928 0,-0.0464 0,-0.0928 0,-0.30151 -0.1392,-0.55664 -0.1391,-0.23193 -0.1391,-0.51025 l 0,-0.18555 q 0.1855,-0.18555 0.3479,-0.39429 0.1391,-0.18554 0.3015,-0.3479 0.1623,-0.16235 0.3711,-0.27832 0.2087,-0.0928 0.5334,-0.0928 0.4407,0 0.8582,0.0464 0.4175,0.0696 0.8581,0.0696 0.3015,0 0.6263,-0.0696 0.5102,-1.0437 0.9045,-2.1106 0.3943,-1.09009 0.603,-2.20337 0.1624,-0.23193 0.3015,-0.53344 0.1392,-0.32471 0.2088,-0.67261 0.093,-0.3479 0.1159,-0.67261 0.046,-0.3479 0.046,-0.62622 0.25515,-0.30151 0.34793,-0.74219 0.11596,-0.44067 0.18554,-0.90454 0.0696,-0.48706 0.13916,-0.95093 0.0928,-0.46386 0.32471,-0.81176 l 0,-0.20874 q 0.0232,-0.3479 -0.0696,-0.62623 0.11597,-0.0464 0.13916,-0.20874 0.0232,-0.16235 0.0928,-0.27832 0.0232,-1.06689 0.23194,-2.0874 0.20874,-1.0437 0.3479,-2.0874 l 0,-0.0696 q 0,-0.11597 -0.0928,-0.11597 -0.0696,-0.0232 -0.0696,-0.13916 0,-0.20874 0.0464,-0.55664 0.0696,-0.3479 0.0928,-0.57983 0.13917,-1.25244 0.13917,-2.48169 0,-1.0437 -0.0696,-2.06421 -0.0696,-1.02051 -0.13916,-2.06421 l 0.18555,-0.27832 q 0.0928,-0.13916 0.16236,-0.27832 0.23193,-0.0928 0.37109,-0.18555 0.16235,-0.11596 0.41748,-0.11596 0.0696,0 0.11597,0.0232 0.0464,0 0.0928,0 0.13916,0.0928 0.20874,0.25513 0.0928,0.16235 0.16235,0.30151 0.0928,0.13916 0.23194,0.23193 0.13916,0.0928 0.39428,0.0464 0.11597,0.64941 0.64942,0.67261 0.11596,0.32471 0.27832,0.64941 0.18555,0.32471 0.48706,0.51026 -0.0232,0.0928 -0.0232,0.25512 0,0.32471 0.13916,0.62622 0.16235,0.30152 0.39428,0.55664 l 0,0.0464 q 0,0.25513 -0.18554,0.3479 0.20874,0.23193 0.30151,0.55664 0.0928,0.32471 0.16235,0.67261 0.0696,0.32471 0.16236,0.62622 0.11596,0.30151 0.37109,0.46387 l 0,0.0696 q 0,0.11596 -0.0928,0.13916 -0.0696,0.0232 -0.0696,0.13916 0.41748,0.76538 0.57983,1.66992 0.16235,0.90454 0.41748,1.7395 0.0928,0.0928 0.20874,0.11597 0.13916,0.0232 0.20874,0.11597 -0.13916,0.0928 -0.13916,0.3247 0,0.23194 -0.11597,0.3479 0.18555,0.16236 0.16236,0.48706 0,0.30152 0.18555,0.44068 l 0,0.0928 q 0,0.0928 -0.0464,0.16235 -0.0464,0.0464 -0.0464,0.13916 l 0,0.0928 q 0.18555,0.81177 0.27832,1.62353 0.11597,0.81177 0.23194,1.62354 0.11596,0.81177 0.25512,1.62353 0.13916,0.78858 0.39429,1.55396 0.0232,0.0232 0.0232,0.0696 0,0.11596 -0.0928,0.13916 -0.0928,0 -0.0928,0.11597 0,0.11596 0.0696,0.27832 0.0928,0.13916 0.18554,0.23193 -0.0232,0.0928 -0.0232,0.27832 0,0.3479 0.11597,0.67261 0.13916,0.3247 0.27832,0.64941 0.16235,0.30151 0.27832,0.64941 0.11596,0.34791 0.0928,0.74219 0.13916,0.20874 0.3479,0.3479 0.23193,0.13916 0.46387,0.25513 0.23193,0.11597 0.41748,0.27832 0.20874,0.16235 0.27832,0.44067 -0.18555,0.16236 -0.25513,0.39429 -0.0696,0.25513 -0.25512,0.44067 0.16235,0.39429 0.37109,0.719 0.23193,0.3479 0.46387,0.67261 l 0.48706,0.64941 q 0.25512,0.32471 0.44067,0.6958 0.25513,0 0.37109,0.13916 0.11597,0.13916 0.3711,0.11597 0.0928,0.18554 0.0696,0.41748 0.46387,-0.16235 0.92773,-0.16235 0.25513,0 0.46387,0.0232 0.23193,0.0232 0.46387,0.0232 0.27832,0 0.48706,-0.0696 0.0928,0.13916 0.13916,0.30152 0.0464,0.18554 0.0696,0.37109 l 0.0696,0.37109 q 0.0464,0.18555 0.13916,0.32471 z m -8.7439,-6.42456 q -0.32471,-1.60034 -0.67261,-3.17749 -0.3247,-1.60034 -0.57983,-3.22388 -0.13916,-0.85815 -0.20874,-1.71631 -0.0696,-0.85815 -0.18555,-1.69311 -0.0928,-0.85816 -0.27832,-1.69312 -0.16235,-0.83496 -0.48706,-1.64673 l 0,-0.0464 q 0,-0.0696 0.0464,-0.11597 0.0464,-0.0464 0.0464,-0.16235 l 0,-0.0928 q -0.30152,-0.20874 -0.41748,-0.57983 -0.11597,-0.39429 -0.20875,-0.81177 -0.0696,-0.44067 -0.20874,-0.83496 -0.11596,-0.41748 -0.41748,-0.6958 -0.11596,1.34522 -0.25512,2.69043 -0.11597,1.32202 -0.16236,2.66724 -0.23193,0.13916 -0.30151,0.46386 -0.0696,0.32471 -0.0696,0.57984 0,0.18554 0.0232,0.39429 0.0232,0.18554 0.0928,0.39428 -0.41748,1.0437 -0.60303,2.15698 -0.18555,1.09009 -0.41748,2.18018 -0.0232,0.0696 -0.0928,0.32471 -0.0464,0.23193 -0.11597,0.48706 -0.0696,0.25512 -0.11597,0.46387 -0.0464,0.18554 -0.0464,0.20874 -0.0232,0.16235 -0.0232,0.3247 0.0232,0.16236 0.0232,0.32471 l -0.34791,0.3479 q -0.0928,0.88135 -0.3479,1.71631 -0.23193,0.81177 -0.48706,1.66992 0.16236,0.0232 0.30152,0.0232 0.16235,0.0232 0.3247,0.0232 0.74219,0 1.48438,-0.0928 0.76538,-0.11596 1.50757,-0.20874 0.25512,-0.0464 0.53345,-0.0696 0.27832,-0.0464 0.53344,-0.0464 0.11597,-0.0232 0.27832,0 0.16236,0 0.27832,-0.0232 0.18555,-0.0464 0.23194,-0.13916 0.0696,-0.11596 0.25512,-0.13916 0.13916,0.0696 0.32471,0.0696 0.20874,0 0.39429,-0.0928 0.18554,-0.0928 0.37109,-0.20874 z"
         style="font-size:23.75px"
         id="path4141" />
      <path
         d="m -972.79852,431.46204 q -0.0928,0.3479 -0.30152,0.57983 -0.20874,0.23193 -0.48706,0.41748 -0.25512,0.18555 -0.55664,0.3479 -0.30151,0.13916 -0.57983,0.32471 l -0.30152,0 q -0.97412,0 -1.50756,-0.46387 -0.51026,-0.48706 -0.78858,-1.18286 -0.27832,-0.71899 -0.41748,-1.53076 -0.11597,-0.81177 -0.30151,-1.48438 -0.27832,0.23194 -0.46387,0.55664 -0.18555,0.30152 -0.39429,0.60303 -0.18554,0.30151 -0.44067,0.55664 -0.23193,0.25513 -0.62622,0.3479 -0.0696,0.16236 -0.16235,0.32471 -0.0696,0.16235 -0.0928,0.3479 -0.51025,0.27832 -0.92773,0.64941 -0.41748,0.3711 -0.83496,0.76538 -0.41748,0.39429 -0.85816,0.76538 -0.41748,0.34791 -0.95093,0.57984 -0.0232,-0.0232 -0.0928,-0.0232 -0.27832,0 -0.51025,0.13916 -0.23194,0.11596 -0.51026,0.11596 -0.18554,0 -0.3479,-0.0696 -0.13916,-0.0696 -0.30151,-0.16235 -0.13916,-0.0928 -0.30151,-0.13916 -0.16236,-0.0464 -0.3479,-0.0232 -0.23194,-0.41749 -0.62623,-0.76539 -0.37109,-0.37109 -0.46386,-0.83496 -0.0464,-0.20874 -0.0696,-0.41748 0,-0.23193 -0.0464,-0.46386 -0.0696,-0.3479 -0.18555,-0.6958 -0.11596,-0.3711 -0.18554,-0.74219 0.11596,-0.62622 0.23193,-1.36841 0.0928,-0.76538 0.23193,-1.50757 0.16236,-0.76538 0.41748,-1.43799 0.27832,-0.6958 0.69581,-1.18286 l -0.0232,-0.16235 q 0,-0.3711 0.13916,-0.6958 0.13916,-0.32471 0.30152,-0.62622 0.16235,-0.30152 0.27832,-0.60303 0.11596,-0.30151 0.0464,-0.67261 0.27832,-0.13916 0.57984,-0.23193 0.30151,-0.0928 0.62622,-0.0928 0.30151,0 0.55664,0.0928 -0.0464,0.18555 0.16235,0.23193 l 0,0.0696 q 0,0.48706 -0.11597,0.95093 -0.11596,0.46387 -0.27832,0.92773 -0.16235,0.44068 -0.3247,0.90454 -0.13916,0.44068 -0.20874,0.90455 -0.0928,0.0232 -0.13916,0.0928 -0.0232,0.0696 -0.0464,0.13916 -0.0232,0.0696 -0.0696,0.11597 -0.0464,0.0464 -0.13916,0.0464 -0.13916,0.81177 -0.30151,1.62354 -0.13916,0.78857 -0.13916,1.60034 0,0.48706 0.0928,0.99731 0.0928,0.51026 0.3479,0.97413 l 0.0928,-0.0232 q 0.25513,0 0.39429,0.11597 0.16235,0.11597 0.41748,0.23193 0.18555,-0.0464 0.3479,-0.11596 0.16236,-0.0928 0.13916,-0.30152 0.30152,-0.0232 0.51026,-0.13916 0.20874,-0.13916 0.37109,-0.30151 l 0.3479,-0.32471 q 0.18555,-0.16235 0.44067,-0.23193 0,-0.13916 0.0696,-0.20874 l 0.13916,-0.13916 q 0.0696,-0.0696 0.0928,-0.13916 0.0464,-0.0928 0.0232,-0.25513 0.27832,-0.0232 0.41748,-0.13916 0.16235,-0.11597 0.27832,-0.25513 0.13916,-0.16235 0.25513,-0.3247 0.11597,-0.16236 0.30151,-0.27832 0.16236,-0.3479 0.44068,-0.92774 0.30151,-0.57983 0.57983,-1.20605 0.30151,-0.62622 0.51025,-1.18286 0.23194,-0.57984 0.23194,-0.88135 0,-0.11597 -0.0696,-0.20874 -0.0464,-0.0928 -0.0232,-0.20874 l 0,-0.0696 q 0.18555,-0.23194 0.32471,-0.51026 0.16235,-0.27832 0.32471,-0.53344 0.18554,-0.25513 0.39429,-0.46387 0.20874,-0.20874 0.53344,-0.32471 0.3711,0.11597 0.74219,0.16236 0.39429,0.0464 0.74219,0.18554 0.0232,0.57984 0.11596,1.34522 0.0928,0.76538 0.32471,1.29883 0,0.30151 -0.0232,0.57983 0,0.27832 0,0.55664 0,0.46387 0.0232,0.95093 0.0464,0.48706 0.16235,0.90454 -0.16235,0.3479 -0.16235,0.74219 0,0.53344 0.16235,1.0205 0.16236,0.46387 0.23194,0.99732 0.30151,0.41748 0.78857,0.41748 0.11597,0 0.18555,-0.0232 0.0928,-0.0232 0.18555,-0.0696 0.18554,0.20874 0.3247,0.41748 0.16236,0.18554 0.3711,0.3479 z"
         style="font-size:23.75px"
         id="path4143" />
      <path
         d="m -959.76385,432.297 q 0,0.39428 -0.20875,0.6958 -0.18554,0.27832 -0.13916,0.6958 -0.3247,0.18555 -0.53344,0.48706 -0.20874,0.30151 -0.39429,0.62622 -1.53076,0.99731 -3.29346,1.60034 -1.7395,0.62622 -3.59497,0.62622 -0.11596,0 -0.20874,-0.11596 -0.0928,-0.0928 -0.18554,-0.20874 -0.0928,-0.11597 -0.20874,-0.23194 -0.0928,-0.0928 -0.23194,-0.0928 -0.16235,0 -0.25513,0.0696 0,-0.0464 0,-0.0928 0.0232,-0.0232 0.0232,-0.0696 0,-0.27832 -0.0696,-0.57983 -0.0696,-0.27832 -0.0696,-0.55664 0,-0.32471 0.11596,-0.53345 l 0.27832,0 q 0.23194,0 0.44068,-0.0232 0.23193,-0.0464 0.48706,-0.0464 0.25513,0 0.46387,0.13916 1.27563,-0.0464 2.41211,-0.46386 1.15966,-0.44068 2.34253,-0.85816 0.18554,-0.25513 0.20874,-0.55664 0.0464,-0.32471 0.18554,-0.60303 -0.60303,-0.51025 -1.22925,-0.78857 -0.60302,-0.30151 -1.41479,-0.20874 -0.48706,-0.30151 -1.0437,-0.3479 -0.53345,-0.0464 -1.09009,-0.13916 -0.13916,-0.0232 -0.30151,-0.0464 -0.13916,-0.0464 -0.30152,-0.0464 -0.11596,0 -0.23193,0.0696 -0.0928,0.0464 -0.0464,0.16235 -0.11596,-0.18555 -0.3247,-0.20874 -0.18555,-0.0464 -0.32471,-0.18555 -0.74219,-0.0464 -1.29883,-0.25513 -0.55664,-0.23193 -1.22925,-0.51025 -0.18554,-0.0696 -0.37109,-0.0928 -0.16235,-0.0464 -0.32471,-0.13916 -0.41748,-0.20874 -0.67261,-0.55664 -0.25512,-0.3479 -0.39428,-0.76538 -0.16236,-0.44068 -0.23194,-0.90455 -0.0696,-0.46386 -0.13916,-0.85815 0.20874,-0.37109 0.39429,-0.76538 0.16235,-0.39429 0.27832,-0.83496 0.13916,-0.0696 0.27832,-0.11597 0.13916,-0.0464 0.30151,-0.11596 -0.0232,-0.0464 -0.0232,-0.11597 0,-0.11597 0.0696,-0.23194 0.0928,-0.11596 0.0464,-0.23193 0.51025,-0.46387 0.97412,-0.95093 0.48706,-0.51025 0.83496,-1.11328 0.3479,-0.11596 0.55664,-0.3479 0.20874,-0.23193 0.41748,-0.46387 0.20874,-0.25512 0.46387,-0.44067 0.25513,-0.20874 0.64941,-0.25513 0.0928,-0.16235 0.25513,-0.25512 0.16235,-0.11597 0.32471,-0.20874 0.16235,-0.0928 0.30151,-0.20874 0.13916,-0.11597 0.20874,-0.32471 0.37109,0 0.67261,-0.13916 0.3247,-0.13916 0.62622,-0.30151 0.30151,-0.16236 0.60303,-0.30152 0.3247,-0.13916 0.6958,-0.13916 0.0928,0 0.18554,0.0232 0.0928,0 0.20874,0.0232 0.16236,0.16235 0.20874,0.39429 0.0696,0.20874 0.0928,0.46386 0.0232,0.25513 0.0232,0.51026 0.0232,0.25512 0.0928,0.46386 -0.20874,0.39429 -0.46386,0.78858 -0.23194,0.39429 -0.62622,0.60303 l -0.0464,0 q -0.16235,0.0232 -0.30151,-0.0696 -0.13916,-0.0928 -0.32471,-0.0928 -0.11597,0 -0.18555,0.0696 l -0.11596,0.11597 q -0.0464,0.0464 -0.13916,0.0928 -0.0696,0.0464 -0.20875,0 -0.3247,0.11597 -0.25512,0.39429 -0.44068,0.0464 -0.74219,0.27832 -0.30151,0.20874 -0.55664,0.48706 -0.25513,0.25513 -0.51025,0.48706 -0.25513,0.20874 -0.60303,0.23193 -0.39429,0.6958 -0.97412,1.22925 -0.55664,0.53345 -0.92774,1.20606 0.0696,0.18554 0.0928,0.39428 0.0232,0.20874 0.0696,0.44068 0.20874,0.27832 0.48706,0.48706 0.30151,0.20874 0.57983,0.41748 l 0.0696,0 q 0.46387,0 0.85816,0.18555 0.39428,0.16235 0.83496,0.16235 0.23193,0 0.39428,-0.0928 0.60303,0.13916 1.18286,0.23193 0.60303,0.0928 1.20606,0.13916 0.30151,0.0464 0.60303,0.0464 0.3247,0 0.60302,0.0696 0.25513,0.0696 0.51026,0.18554 0.25513,0.0928 0.51025,0.20874 0.53345,0.23194 0.99732,0.51026 0.48706,0.27832 0.85815,0.6726 0.37109,0.3711 0.57983,0.88135 0.20875,0.48706 0.20875,1.13648 z"
         style="font-size:23.75px"
         id="path4145" />
      <path
         d="m -939.58563,420.30603 q -0.0928,0.30151 -0.30152,0.55664 l -0.39428,0.48706 q -0.18555,0.23194 -0.32471,0.51026 -0.11597,0.25512 -0.0696,0.60302 -0.0464,0 -0.11597,0 -0.0696,-0.0232 -0.11596,-0.0232 -0.3711,0 -0.57984,0.18555 -0.18554,0.16235 -0.51025,0.27832 -0.0464,-0.13916 -0.11597,-0.25513 -0.0696,-0.13916 -0.20874,-0.18555 -0.55664,0.11597 -1.11328,0.18555 -0.55664,0.0464 -1.11328,0.13916 -0.25513,0.0464 -0.51026,0.13916 -0.25512,0.0696 -0.53344,0.13916 -0.13916,0.0464 -0.30152,0.0464 -0.16235,-0.0232 -0.3247,0 -0.55664,0.0232 -1.20606,0.0928 -0.64941,0.0464 -1.15967,0.3479 -0.23193,-0.0464 -0.48706,-0.0696 -0.25512,-0.0232 -0.51025,-0.0232 -0.55664,0 -1.22925,0.11596 -0.64941,0.0928 -1.15967,0.39429 -0.11596,-0.0464 -0.25512,-0.0696 -0.11597,-0.0232 -0.27832,-0.0232 -0.0464,0 -0.0696,0.0232 -0.0232,0 -0.0696,0 -0.0232,0.20874 0.0464,0.41748 0.0928,0.18555 0.30152,0.30152 -0.0928,0.25512 -0.0928,0.55664 0,0.39428 0.0464,0.78857 0.0696,0.39429 0.0696,0.78857 0,0.44068 -0.11597,0.6958 0.23194,0.69581 0.23194,1.48438 0,0.27832 -0.0464,0.55664 -0.0232,0.25513 -0.0232,0.55664 0,0.25513 0.18554,0.41748 0.18555,0.13916 0.18555,0.39429 0,0.0928 -0.0464,0.18555 0.32471,-0.0696 0.62622,-0.18555 0.30152,-0.13916 0.62623,-0.13916 0.18554,0 0.3479,0.0696 0.18554,0.0696 0.3247,0.18555 -0.0232,0.11596 -0.0464,0.25512 0,0.13916 0,0.27832 0,0.25513 0,0.48706 0.0232,0.20874 0.0464,0.46387 -0.18554,0.32471 -0.44067,0.57983 -0.23193,0.25513 -0.32471,0.64942 -0.3479,0 -0.62622,0.16235 -0.25513,0.13916 -0.48706,0.32471 -0.23193,0.16235 -0.46387,0.32471 -0.23193,0.13916 -0.51025,0.13916 -0.3479,0 -0.48706,-0.0928 -0.13916,-0.11596 -0.20874,-0.23193 -0.0696,-0.11597 -0.13916,-0.20874 -0.0464,-0.0928 -0.23194,-0.0696 -0.0464,-0.30151 -0.18554,-0.55664 -0.13916,-0.27832 -0.30152,-0.53345 -0.13916,-0.25513 -0.30151,-0.51025 -0.13916,-0.27832 -0.20874,-0.55664 -0.13916,-0.60303 -0.11597,-1.25244 0.0232,-0.64942 -0.20874,-1.25245 0.0464,-0.3247 0.0696,-0.64941 0.0232,-0.3479 0.0232,-0.67261 0,-0.64941 -0.0464,-1.27563 -0.0232,-0.64942 -0.0464,-1.32202 -0.16235,-0.20874 -0.20874,-0.46387 -0.0232,-0.27832 -0.0464,-0.53345 -0.0696,-0.0696 -0.16236,-0.13916 -0.0696,-0.0696 -0.0928,-0.18555 -0.18555,-0.0464 -0.27832,-0.0464 -0.32471,0 -0.55664,0.16235 -0.20874,0.13916 -0.39429,0.13916 -0.18555,0 -0.3479,-0.0464 -0.16235,-0.0464 -0.32471,-0.0464 -0.13916,0 -0.16235,0.0696 0,0.0464 -0.0928,0.0928 -0.0696,0.0464 -0.32471,0.0928 -0.25513,0.0464 -0.57983,0.0928 -0.30152,0.0232 -0.60303,0.0464 -0.27832,0.0232 -0.37109,0.0232 -0.3711,0 -0.55665,-0.13916 -0.20874,-0.16236 -0.48706,-0.3479 0.0464,-0.13916 0.0464,-0.18555 0,-0.23193 -0.13916,-0.37109 -0.13916,-0.16236 -0.13916,-0.27832 0,-0.25513 0.20874,-0.39429 0.18555,-0.13916 0.20874,-0.44067 0.53345,-0.23194 1.09009,-0.3479 0.55664,-0.11597 1.13647,-0.18555 0.57984,-0.0696 1.13648,-0.16235 0.57983,-0.0928 1.13647,-0.30152 0.16236,0.0232 0.30152,0.0464 0.16235,0 0.3247,0 0.6958,0 1.36841,-0.13916 0.6958,-0.16236 1.4148,-0.16236 0.18554,0 0.37109,0.0232 0.18555,0.0232 0.37109,0.0696 0.92774,-0.13916 1.83228,-0.30152 0.92773,-0.16235 1.90185,-0.27832 0.46387,-0.0464 0.90455,-0.0696 0.46386,-0.0464 0.92773,-0.11596 0.16235,-0.0232 0.23193,-0.0696 0.0928,-0.0696 0.0928,-0.25513 0.20874,0.0928 0.46386,0.0928 0.39429,0 0.76539,-0.13916 0.37109,-0.13916 0.76538,-0.13916 0.0928,0 0.16235,0.0232 0.0696,0 0.13916,0 0.16235,0 0.16235,-0.13916 0.0232,-0.16236 0.23194,-0.20874 0.16235,-0.0464 0.46386,-0.0696 0.30152,-0.0232 0.62622,-0.0464 0.34791,-0.0464 0.62623,-0.0928 0.30151,-0.0696 0.44067,-0.18555 l 0.16235,-0.25513 q 0.41748,0.0232 0.60303,0.3711 0.20874,0.3247 0.23193,0.71899 0.0928,0.0928 0.25513,0.0928 0.18555,-0.0232 0.32471,-0.0232 l 0.0696,0 z"
         style="font-size:23.75px"
         id="path4147" />
      <path
         d="m -937.79974,432.04187 q -0.11597,0.18555 -0.27832,0.3479 -0.16236,0.13916 -0.30152,0.30151 -0.16235,0.0696 -0.37109,0.0696 -0.18555,0 -0.3711,0 -0.16235,-0.0232 -0.3247,0 -0.13916,0 -0.23194,0.0928 -0.18554,-0.0464 -0.27832,-0.16236 -0.0928,-0.13916 -0.3247,-0.16235 -0.0928,-0.0232 -0.18555,0 -0.3479,-0.39429 -0.64941,-0.83496 -0.27832,-0.44067 -0.53345,-0.83496 -0.0232,-0.85816 -0.13916,-1.7395 -0.0232,-0.20874 -0.0696,-0.41748 -0.0464,-0.20874 -0.0696,-0.39429 0,-0.23193 0.0232,-0.44067 0.0464,-0.23194 0.0696,-0.41749 0.0928,-0.6726 0.20874,-1.32202 0.11597,-0.64941 0.20874,-1.32202 0.0928,-0.60303 0.0928,-1.25244 0,-0.67261 -0.20874,-1.25244 l -0.0232,-0.11597 q 0.0464,-0.18554 0.0928,-0.30151 0.0696,-0.13916 0.0928,-0.30151 0.0464,-0.25513 -0.11597,-0.3711 0.0696,-0.18555 0.23194,-0.23193 0.16235,-0.0696 0.18554,-0.27832 0.0232,-0.0928 0,-0.18555 0.18555,-0.0696 0.3711,-0.11597 0.20874,-0.0696 0.39428,-0.0232 0.30152,0.0464 0.53345,0.20874 0.23193,0.13916 0.44067,0.32471 0.3711,1.11328 0.30152,2.36572 -0.0696,1.22925 -0.23194,2.48169 -0.16235,1.25244 -0.20874,2.4585 -0.0464,1.18286 0.3711,2.20336 l 0.0464,0.0232 q 0.11597,0.0232 0.18555,-0.0696 0.0696,-0.11597 0.18555,-0.0928 0.0928,0.0464 0.11597,0.0464 0.0928,0.46387 0.30151,0.88135 0.20874,0.41748 0.46387,0.83496 z"
         style="font-size:23.75px"
         id="path4149" />
      <path
         d="m -920.35834,419.98132 q -0.0464,0.27832 -0.13916,0.48706 -0.0696,0.18555 -0.0232,0.51026 -0.23193,0.0232 -0.37109,0.16235 -0.11597,0.11597 -0.20874,0.27832 -0.0696,0.16236 -0.16236,0.3479 -0.0696,0.16236 -0.18555,0.30152 0.18555,0.83496 0.20874,1.69311 0.0232,0.85816 0.11597,1.69312 0.11597,1.06689 0.3479,2.11059 0.25513,1.02051 0.25513,2.0874 0,0.32471 -0.0232,0.60303 0,0.27832 0,0.57984 0,0.18554 0,0.39428 0.0232,0.18555 0.0232,0.3711 0,0.6726 -0.18555,1.34521 -0.16235,0.67261 -0.25512,1.34522 -0.27833,0.25512 -0.48707,0.55664 -0.18554,0.30151 -0.39428,0.55664 -0.20874,0.25512 -0.48706,0.44067 -0.27832,0.20874 -0.6958,0.27832 -0.0696,0.23193 -0.27832,0.3479 -0.18555,0.11597 -0.32471,0.32471 l -0.0464,0 q -0.57983,0 -0.99731,-0.16235 -0.41748,-0.16236 -0.78858,-0.3711 -0.3479,-0.20874 -0.71899,-0.44067 -0.37109,-0.23194 -0.85815,-0.3711 -0.64942,-0.53344 -1.18287,-1.15966 -0.53344,-0.64942 -1.20605,-1.15967 -0.16235,-0.46387 -0.44067,-0.76538 -0.25513,-0.30152 -0.51026,-0.6958 -0.11597,-0.16236 -0.18555,-0.30152 -0.0464,-0.13916 -0.13916,-0.3247 -0.0696,-0.18555 -0.23193,-0.25513 -0.13916,-0.0696 -0.25513,-0.16235 -0.18554,-0.719 -0.53344,-1.32203 -0.3479,-0.60302 -0.81177,-1.15966 -0.13916,0.25512 -0.23193,0.55664 -0.0696,0.27832 -0.13916,0.57983 -0.0696,0.27832 -0.18555,0.57983 -0.0928,0.27832 -0.25513,0.51026 l 0,0.0696 q 0,0.11597 0.0928,0.13916 0.0928,0.0232 0.0928,0.13916 0,0.0232 -0.0232,0.0464 0,0.0232 0,0.0464 -0.11596,0.0928 -0.18554,0.23194 -0.0464,0.13916 -0.23194,0.16235 0.0232,0.11597 0.0232,0.23193 l 0,0.20874 q 0,0.67261 -0.16236,1.34522 -0.13916,0.67261 -0.13916,1.36841 l 0,0.30151 q 0,0.16235 0.0232,0.30151 0.0464,0.13916 0.13916,0.27832 0.0928,0.13916 0.0928,0.25513 0,0.16235 -0.13916,0.30151 0.16235,0.11597 0.37109,0.25513 0.20874,0.13916 0.3711,0.30151 0.18555,0.18555 0.30151,0.3711 0.11597,0.20874 0.11597,0.44067 0,0.39429 -0.25513,0.55664 -0.25513,0.16236 -0.62622,0.25513 -0.3479,0.0928 -0.74219,0.16235 -0.37109,0.0928 -0.62622,0.30152 l -0.0696,0 q -0.27832,0 -0.41748,-0.16236 -0.13916,-0.16235 -0.41748,-0.16235 -0.44067,-0.71899 -0.60303,-1.62353 -0.16235,-0.88135 -0.16235,-1.69312 0,-0.99731 0.18555,-1.99463 0.16235,-0.99731 0.41748,-1.97143 0.23193,-0.97413 0.51025,-1.92505 0.30152,-0.97412 0.55664,-1.94825 l 0.0232,-0.0696 q 0,-0.11596 -0.0696,-0.16235 -0.0464,-0.0464 -0.0464,-0.13916 0,-0.0464 0.0232,-0.0464 0.0696,-0.23193 0.13916,-0.44067 0.0928,-0.20874 0.13916,-0.46387 0.13916,-0.64941 0.18555,-1.32202 0.0696,-0.6958 0.0696,-1.36841 0.0232,-0.6726 0.0464,-1.34521 0.0464,-0.6958 0.16235,-1.36841 0.18555,-0.18555 0.3479,-0.39429 0.16235,-0.20874 0.41748,-0.37109 0.46387,0.0232 0.92774,0.13916 0.46386,0.11597 0.88134,0.37109 0.27832,0.99732 0.3711,1.99463 0.11596,0.99732 0.37109,1.99463 l 0,0.0696 q 0,0.11597 0.11597,0.11597 0.13916,-0.0232 0.20874,0.0696 -0.0464,0.0696 -0.0696,0.16235 0,0.0928 0,0.18555 l 0,0.39429 q 0.0464,0.18554 0.11596,0.39428 0.0696,0.20874 0.30152,0.25513 0.11597,0.74219 0.3479,1.36841 0.23193,0.62622 0.53345,1.20605 0.30151,0.57984 0.64941,1.15967 0.3479,0.55664 0.71899,1.18286 0.57984,0.44068 0.99732,1.02051 0.41748,0.55664 0.83496,1.09009 0.44067,0.51025 0.97412,0.90454 0.55664,0.39429 1.43799,0.48706 0.11597,-0.0928 0.16235,-0.25513 l 0.11597,-0.3247 q 0.0696,-0.16236 0.13916,-0.27833 0.0928,-0.13916 0.25513,-0.20874 0.0464,-0.64941 0.0928,-1.32202 0.0696,-0.6726 0.30151,-1.27563 -0.11596,-0.20874 -0.11596,-0.51026 0,-0.23193 0.0232,-0.44067 0.0464,-0.20874 0.0464,-0.41748 0,-0.44067 -0.18555,-0.71899 0,-0.16236 0.0232,-0.32471 0.0232,-0.18555 0.13916,-0.3479 -0.18554,-0.46387 -0.30151,-0.97412 -0.0928,-0.51026 -0.0928,-1.0437 0,-0.30152 0.0696,-0.62622 -0.13916,-0.3479 -0.18555,-0.81177 l -0.0928,-0.95093 q -0.0464,-0.48706 -0.13916,-0.90454 -0.0928,-0.41748 -0.3479,-0.67261 0.13916,-0.20874 0.13916,-0.48706 0,-0.46387 -0.13916,-0.88135 -0.13916,-0.41748 -0.13916,-0.88134 0,-0.32471 0.13916,-0.64942 0.51025,0.0232 0.99731,0.11597 0.51025,0.0696 0.99731,0.0696 0.13916,0.18555 0.32471,0.30151 0.18555,0.11597 0.39429,0.23194 0.20874,0.0928 0.39429,0.20874 0.20874,0.11596 0.3247,0.3247 z"
         style="font-size:23.75px"
         id="path4151" />
      <path
         d="m -883.78241,441.22644 q 0,0.20874 -0.16235,0.37109 -0.13916,0.16236 -0.3479,0.25513 -0.20874,0.11597 -0.44068,0.20874 -0.20874,0.0928 -0.37109,0.16235 -0.25513,-0.13916 -0.53345,-0.18554 -0.25513,-0.0464 -0.46387,-0.23194 l -0.16235,0 q -0.37109,0 -0.57983,0.0928 -0.32471,-0.11597 -0.53345,-0.3479 -0.20874,-0.20874 -0.39429,-0.46387 -0.18554,-0.23193 -0.37109,-0.46387 -0.18555,-0.23193 -0.46387,-0.39428 -0.41748,-1.15967 -0.74219,-2.34253 -0.3247,-1.18286 -0.48706,-2.41211 0.0464,-0.11597 0.0696,-0.25513 0.0232,-0.13916 0.0232,-0.25513 0,-0.0928 -0.0464,-0.18554 -0.0232,-0.11597 -0.13916,-0.13916 0.11597,-0.18555 0.13916,-0.41748 0.0464,-0.25513 0.0464,-0.46387 0,-0.46387 -0.0928,-0.76538 0.13916,-0.11597 0.11597,-0.3711 -0.0232,-0.27832 0.11597,-0.39428 -0.11597,-0.39429 -0.11597,-0.76538 0,-0.51026 0.11597,-0.99732 0.13916,-0.48706 0.13916,-0.99731 0,-0.11597 -0.0232,-0.23194 0,-0.11596 -0.0232,-0.23193 0.11597,-0.37109 0.20874,-0.74219 0.11597,-0.39428 0.11597,-0.78857 0,-0.27832 -0.0928,-0.46387 0.30152,-1.06689 0.41748,-2.11059 0.13916,-1.0669 0.25513,-2.15699 -0.0232,-0.0464 -0.0464,-0.0696 -0.0232,-0.0232 -0.0232,-0.0696 0,-0.11596 0.11597,-0.18554 0.13916,-0.0696 0.11597,-0.25513 -0.27833,0.27832 -0.46387,0.64941 -0.16236,0.3711 -0.32471,0.74219 -0.13916,0.37109 -0.32471,0.74219 -0.16235,0.3479 -0.44067,0.62622 -0.0232,0.25513 -0.16235,0.48706 -0.11597,0.23193 -0.11597,0.51025 -0.0232,0 -0.0464,0 -0.0232,-0.0232 -0.0696,-0.0232 -0.0928,0 -0.13916,0.11597 -0.0232,0.11596 -0.13916,0.0696 -0.53344,1.0437 -1.18286,2.04101 -0.62622,0.99732 -1.64673,1.60034 -0.18554,-0.0696 -0.3479,-0.0696 -0.30151,0 -0.60302,0.18555 -0.27833,0.16235 -0.3711,0.16235 -0.23193,0 -0.57983,-0.23193 -0.32471,-0.25513 -0.67261,-0.27832 -0.37109,-0.25513 -0.62622,-0.51025 -0.23193,-0.27832 -0.71899,-0.32471 -0.32471,-0.48706 -0.64942,-0.92773 -0.30151,-0.44068 -0.60303,-0.85816 -0.27832,-0.44067 -0.51025,-0.92773 -0.20874,-0.48706 -0.32471,-1.09009 0.0232,-0.0464 0.0232,-0.0928 0,-0.13916 -0.13916,-0.11597 -0.11597,0.0232 -0.11597,-0.13916 l 0,-0.16236 q 0,-0.18554 -0.0696,-0.3247 -0.0464,-0.16236 -0.0232,-0.3479 -0.16236,-0.25513 -0.25513,-0.53345 -0.0928,-0.27832 -0.32471,-0.48706 l 0,-0.20874 q 0,-0.13916 -0.0232,-0.25513 0,-0.13916 -0.0696,-0.23193 -0.0464,-0.11597 -0.16236,-0.13916 -0.0232,-0.83496 -0.3479,-1.69312 -0.30151,-0.88134 -0.55664,-1.69311 -0.18554,0.60303 -0.27832,1.22925 -0.0928,0.60302 -0.0928,1.22924 l 0,0.39429 q 0,0.18555 0.0464,0.3711 -0.0696,0.11596 -0.20874,0.16235 -0.11597,0.0464 -0.13916,0.18555 -0.0232,0.11596 -0.0232,0.23193 0.0232,0.11597 0,0.23193 -0.0464,0.55664 -0.13916,1.0669 -0.13916,0.76538 -0.3247,1.55395 -0.18555,0.76538 -0.18555,1.57715 0,0.0464 0,0.13916 0.0232,0.0696 0.0232,0.11597 -0.37109,0.3247 -0.39428,0.81177 -0.0232,0.48706 -0.11597,0.92773 -0.11597,0.64941 -0.27832,1.29883 -0.16236,0.62622 -0.27832,1.29883 -0.0696,0.37109 -0.11597,0.74218 -0.0464,0.3479 -0.0928,0.719 -0.0232,0.20874 -0.16236,0.3479 -0.11596,0.13916 -0.16235,0.3247 -0.0232,0.16236 -0.0232,0.3711 0.0232,0.18555 0.0232,0.3479 0,0.27832 -0.0464,0.53345 -0.0464,0.23193 -0.27832,0.41748 0.0464,0.60302 0.20874,1.0205 0.16236,0.44068 0.3711,0.97413 l 0.57983,0 0,0.0928 q 0,0.23193 0.0696,0.41748 0.0928,0.18555 0.3479,0.16235 -0.0232,0.0928 -0.0232,0.23194 0,0.20874 0.0696,0.37109 0.0928,0.18555 0.13916,0.39429 -0.46387,0.76538 -0.99732,1.13647 -0.53344,0.3711 -1.46118,0.3711 l -0.37109,0 q -0.11597,-0.3711 -0.27832,-0.719 -0.16235,-0.3479 -0.32471,-0.6958 -0.13916,-0.3479 -0.25513,-0.71899 -0.0928,-0.3479 -0.0928,-0.74219 0,-0.0928 0.0232,-0.18555 0.0232,-0.0696 0.0232,-0.16235 0,-0.11597 -0.0928,-0.13916 -0.0928,-0.0232 -0.0928,-0.23193 0,-0.16236 -0.0232,-0.30152 0,-0.13916 0,-0.30151 0,-0.76538 0.11596,-1.50757 0.11597,-0.76538 0.16236,-1.53076 0.11596,-0.11597 0.11596,-0.30152 0,-0.18554 0.11597,-0.30151 l 0,-0.16235 q 0,-0.41748 0.0928,-0.83496 0.0928,-0.41748 0.20875,-0.81177 0.11596,-0.39429 0.20874,-0.81177 0.0928,-0.41748 0.0928,-0.83496 l 0,-0.37109 q 0,-0.16236 0.13916,-0.13916 0.16235,0 0.18555,-0.18555 0.0464,-0.32471 0.0464,-0.62622 0.0232,-0.32471 0.0696,-0.64942 0.11597,-0.62622 0.25513,-1.25244 0.13916,-0.64941 0.13916,-1.29883 l 0,-0.0696 q 0,-0.0696 0.11597,-0.27832 0.11596,-0.23193 0.11596,-0.44067 0,-0.16235 -0.0696,-0.30151 0.0232,0.0232 0.0928,0.0232 0.0928,0 0.11596,-0.0464 0.0464,-0.0696 0.11597,-0.11596 -0.0696,-0.0928 -0.0696,-0.18555 0,-0.11597 0.0232,-0.20874 0.0464,-0.11597 0.0464,-0.23193 0,-0.16236 -0.16235,-0.23194 0.27832,-0.51025 0.39428,-1.09009 0.13916,-0.57983 0.18555,-1.18286 0.0696,-0.60302 0.11597,-1.20605 0.0464,-0.62622 0.20874,-1.18286 -0.0464,-0.13916 -0.0696,-0.30152 0,-0.16235 0,-0.30151 0,-0.0928 -0.0232,-0.18555 -0.0232,-0.11596 0.0232,-0.20874 0,-0.0464 0.0232,-0.11596 l 0.0464,-0.13916 q 0.0464,-0.16236 0.0464,-0.32471 0.0232,-0.18555 0.0464,-0.37109 0.0464,-0.53345 0.0232,-1.09009 0,-0.55664 0.0464,-1.11328 -0.0696,-0.0928 -0.13916,-0.13916 -0.0696,-0.0696 -0.0928,-0.18555 0.18554,-0.32471 0.39428,-0.60303 0.23194,-0.30151 0.60303,-0.46387 0.0696,0.25513 0.3711,0.25513 0.13916,0 0.3479,-0.0696 0.20874,-0.0696 0.27832,-0.18555 0.39428,0.13916 0.78857,0.13916 0.41748,-0.0232 0.76538,0.18555 0.0696,0.3479 0.18555,0.719 0.11597,0.37109 0.32471,0.6726 0.0464,0.30152 0.0928,0.74219 0.0464,0.41748 0.0928,0.88135 0.0464,0.44067 0.13916,0.85815 0.0928,0.39429 0.25513,0.62622 0.0232,0.41748 0.13916,0.83496 0.11597,0.41748 0.25513,0.81177 0.13916,0.3711 0.23193,0.6958 0.11597,0.32471 0.11597,0.53345 0,0.18555 -0.0696,0.25513 -0.0464,0.0464 -0.0928,0.18554 0.0928,0.25513 0.25513,0.44068 0.16235,0.16235 0.3479,0.39428 0.3479,1.32203 0.90454,2.57447 0.55664,1.25244 1.34522,2.41211 0.20874,0.0232 0.3247,0.11596 0.13916,0.0928 0.41748,0.0464 l 0,0.16235 q 0,0.23194 0.0928,0.32471 0.20874,0.13916 0.48706,0.13916 0.30151,0 0.46387,-0.16235 0.18554,-0.18555 0.3479,-0.41748 0.16235,-0.23194 0.3247,-0.44068 0.16236,-0.20874 0.44068,-0.27832 l 0,-0.0464 q 0,-0.18555 0.0696,-0.30152 0.0928,-0.13916 0.0928,-0.30151 0.25513,-0.18555 0.39429,-0.46387 0.13916,-0.27832 0.25512,-0.55664 0.11597,-0.30151 0.25513,-0.55664 0.16235,-0.25513 0.41748,-0.41748 0.32471,-0.99731 0.78858,-1.85547 0.46386,-0.85815 0.97412,-1.7395 0,-0.0696 -0.0232,-0.13916 -0.0232,-0.0928 -0.0232,-0.16235 0,-0.0232 0.0464,-0.20874 0.11596,-0.23194 0.20874,-0.44068 0.0928,-0.20874 0.16235,-0.46387 0.23193,-0.71899 0.41748,-1.41479 0.20874,-0.6958 0.60303,-1.32202 l 0,-0.57984 q 0.41748,-0.83496 0.57983,-1.76269 0.18555,-0.92774 0.44068,-1.80908 0.0464,-0.25513 0.16235,-0.51026 0.13916,-0.27832 0.32471,-0.39428 -0.0696,-0.13916 -0.0696,-0.27832 0,-0.18555 0.0464,-0.32471 0.0696,-0.16236 0.11597,-0.32471 -0.0696,-0.16235 -0.0696,-0.41748 0,-0.32471 0.18555,-0.60303 0.18554,-0.30151 0.55664,-0.39428 0.23193,0.0696 0.39428,0.23193 0.16236,0.16235 0.30152,0.3479 0.16235,0.16235 0.32471,0.27832 0.18554,0.0928 0.46386,0.0464 0.18555,0.3479 0.25513,0.74218 0.0696,0.3711 0.0696,0.76539 0,0.53344 -0.0928,1.11328 -0.0928,0.55664 -0.0696,1.13647 -0.18555,0.3711 -0.27832,0.81177 -0.0696,0.41748 -0.13916,0.85815 -0.0696,0.44068 -0.16236,0.85816 -0.0928,0.41748 -0.3247,0.78857 -0.0696,1.0437 -0.16236,2.04102 -0.0696,0.99731 -0.23193,1.99463 l -0.20874,1.32202 q -0.0464,0.16235 -0.0928,0.37109 -0.0464,0.18555 -0.0464,0.32471 0,0.13916 0.0232,0.30151 0.0232,0.13916 0.13916,0.20874 -0.16235,0.23194 -0.23193,0.55664 -0.0696,0.32471 -0.13916,0.6958 l -0.11597,0.719 q -0.0464,0.3479 -0.18555,0.62622 l 0,0.25513 q 0,0.92773 -0.3247,1.90185 l 0,0.11597 q 0,0.11596 -0.0232,0.20874 0,0.0696 0,0.18555 0,0.16235 0.0928,0.25512 -0.18555,0.60303 -0.3479,1.25244 -0.16236,0.62622 -0.23194,1.29883 -0.0696,0.90454 -0.0232,1.85547 0.0464,0.92773 -0.23193,1.80908 0.13916,0.41748 0.18554,0.90454 l 0.0928,0.97412 q 0.0464,0.48707 0.13916,0.92774 0.11596,0.46387 0.41748,0.76538 0.0232,0.0464 0.0232,0.13916 0,0.18555 -0.0928,0.27832 0.0464,0.23193 0.16235,0.39429 0.11597,0.16235 0.23193,0.30151 0.11597,0.16235 0.18555,0.3479 0.0928,0.18555 0.0928,0.46387 0.18555,0.25513 0.57984,0.39429 0.39429,0.13916 0.78857,0.27832 0.41748,0.13916 0.719,0.3479 0.30151,0.23193 0.30151,0.64941 z"
         style="font-size:23.75px"
         id="path4153" />
      <path
         d="m -877.49701,432.04187 q -0.11597,0.18555 -0.27832,0.3479 -0.16235,0.13916 -0.30151,0.30151 -0.16236,0.0696 -0.3711,0.0696 -0.18554,0 -0.37109,0 -0.16235,-0.0232 -0.32471,0 -0.13916,0 -0.23193,0.0928 -0.18555,-0.0464 -0.27832,-0.16236 -0.0928,-0.13916 -0.32471,-0.16235 -0.0928,-0.0232 -0.18555,0 -0.3479,-0.39429 -0.64941,-0.83496 -0.27832,-0.44067 -0.53345,-0.83496 -0.0232,-0.85816 -0.13916,-1.7395 -0.0232,-0.20874 -0.0696,-0.41748 -0.0464,-0.20874 -0.0696,-0.39429 0,-0.23193 0.0232,-0.44067 0.0464,-0.23194 0.0696,-0.41749 0.0928,-0.6726 0.20874,-1.32202 0.11596,-0.64941 0.20874,-1.32202 0.0928,-0.60303 0.0928,-1.25244 0,-0.67261 -0.20874,-1.25244 l -0.0232,-0.11597 q 0.0464,-0.18554 0.0928,-0.30151 0.0696,-0.13916 0.0928,-0.30151 0.0464,-0.25513 -0.11596,-0.3711 0.0696,-0.18555 0.23193,-0.23193 0.16235,-0.0696 0.18555,-0.27832 0.0232,-0.0928 0,-0.18555 0.18554,-0.0696 0.37109,-0.11597 0.20874,-0.0696 0.39429,-0.0232 0.30151,0.0464 0.53345,0.20874 0.23193,0.13916 0.44067,0.32471 0.37109,1.11328 0.30151,2.36572 -0.0696,1.22925 -0.23193,2.48169 -0.16235,1.25244 -0.20874,2.4585 -0.0464,1.18286 0.37109,2.20336 l 0.0464,0.0232 q 0.11597,0.0232 0.18555,-0.0696 0.0696,-0.11597 0.18554,-0.0928 0.0928,0.0464 0.11597,0.0464 0.0928,0.46387 0.30151,0.88135 0.20874,0.41748 0.46387,0.83496 z"
         style="font-size:23.75px"
         id="path4155" />
      <path
         d="m -859.7309,423.78503 q 0,0.23194 -0.16235,0.30152 -0.16235,0.0696 -0.16235,0.27832 0,0.0696 0.0464,0.11596 0.0464,0.0464 0.0464,0.13917 l 0,0.0928 q -0.27832,1.34521 -0.81177,2.34253 -0.51025,0.99731 -1.20605,1.83227 -0.6958,0.83496 -1.57715,1.57715 -0.85815,0.74219 -1.85547,1.55396 -0.27832,0.23193 -0.57983,0.46386 -0.27832,0.23194 -0.53345,0.48706 l -0.51025,0.48707 q -0.0232,0.0232 -0.25513,0.11596 -0.23193,0.0696 -0.27832,0.0928 -0.32471,0.13916 -0.6958,0.3247 -0.3479,0.18555 -0.60303,0.46387 -0.46387,0 -0.78857,0.13916 -0.32471,0.13916 -0.719,0.37109 -0.11596,0 -0.20874,-0.0464 -0.0696,-0.0464 -0.16235,-0.0928 -0.0928,-0.0464 -0.20874,-0.0464 -0.0928,-0.0232 -0.25513,0.0232 -0.27832,-0.46387 -0.60303,-0.78857 -0.3247,-0.32471 -0.88134,-0.39429 -0.0696,-0.39429 -0.32471,-0.60303 -0.25513,-0.23193 -0.51025,-0.48706 -0.0464,-0.13916 -0.0696,-0.32471 -0.0232,-0.18554 -0.0928,-0.3479 -0.0696,-0.16235 -0.18555,-0.27832 -0.11596,-0.11596 -0.3247,-0.11596 -0.0232,-0.13916 0.11596,-0.13916 0.13916,0 0.13916,-0.11597 0,-0.13916 -0.0464,-0.27832 -0.0464,-0.13916 -0.0464,-0.30151 0,-0.11597 0.0232,-0.20875 0.0232,-0.0928 0.0696,-0.20874 -0.0696,-0.62622 -0.0696,-1.27563 0,-1.25244 0.16236,-2.4585 0.18555,-1.22924 0.18555,-2.48169 0,-0.55664 -0.0696,-1.11328 -0.0464,-0.55664 -0.20874,-1.09008 -0.53344,0.11596 -1.06689,0.27832 -0.53345,0.13916 -0.99731,0.39428 -0.25513,-0.16235 -0.53345,-0.18554 -0.30152,-0.0464 -0.57984,-0.13916 -0.16235,-0.32471 -0.16235,-0.67261 0,-0.32471 0.11597,-0.62622 l 0.23193,-0.60303 q 0.55664,-0.11597 1.11328,-0.3479 0.53345,-0.23193 1.09009,-0.41748 0.18555,-0.0464 0.46387,-0.11597 0.30151,-0.0696 0.41748,-0.11596 0.16235,-0.0696 0.20874,-0.25513 0.0696,-0.20874 0.18555,-0.3479 l 0.39428,0 q 0.13916,0 0.30152,0.0232 0.16235,0 0.30151,0.0696 0.83496,-0.20874 1.66992,-0.25513 0.83496,-0.0696 1.71631,-0.18554 0.0928,0 0.27832,-0.0232 l 0.39429,-0.0696 q 0.20874,-0.0464 0.37109,-0.0696 0.18555,-0.0464 0.25513,-0.0464 0.0696,0 0.0696,0.0696 l 0.39429,0 q 0.99731,0 1.94824,0.25512 l 1.90185,0.51026 q 0.39429,0.32471 0.78858,0.62622 0.39428,0.30151 0.88135,0.53345 0.11596,0.37109 0.3479,0.60302 0.25512,0.20874 0.55664,0.46387 0.11596,0.30151 0.30151,0.64942 0.20874,0.3247 0.39429,0.6726 0.18554,0.3479 0.3247,0.6958 0.13916,0.32471 0.13916,0.62622 z m -2.15698,0.3479 q -0.25513,-0.53344 -0.48706,-1.11328 -0.23193,-0.57983 -0.57983,-1.0437 -0.41748,-0.11596 -0.85816,-0.27832 -0.41748,-0.18555 -0.57983,-0.62622 -0.0464,0.0232 -0.16235,0.0232 -0.20874,0 -0.3711,-0.16235 -0.16235,-0.16235 -0.37109,-0.20874 -0.18555,-0.0232 -0.51026,-0.0696 -0.30151,-0.0464 -0.64941,-0.0696 -0.3479,-0.0232 -0.6958,-0.0464 -0.32471,-0.0232 -0.51025,-0.0232 -0.18555,0 -0.39429,0.0232 -0.18555,0 -0.39429,0.0232 -0.18555,0 -0.23193,0.0696 -0.0464,0.0464 -0.18555,0.0928 -0.11597,-0.0464 -0.25513,-0.0464 l -0.27832,0 q -0.48706,0 -0.97412,0.16236 -0.46387,0.13916 -0.92773,0.39428 l 0,0.0928 q 0,0.18554 0.16235,0.20874 0.16235,0.0232 0.18555,0.18555 -0.11597,0 -0.18555,0.0232 -0.0696,0 -0.0696,0.16235 0,0.23194 0.0464,0.51026 0.0696,0.27832 0.0696,0.55664 0,0.20874 -0.0464,0.48706 -0.0464,0.27832 -0.23193,0.44067 0.23193,0.20874 0.23193,0.55664 0,0.23194 -0.0928,0.48706 -0.0928,0.25513 -0.23194,0.44068 -0.0464,0.97412 -0.18554,1.97143 -0.13916,0.99732 -0.13916,1.97144 0,0.48706 0.0464,0.95092 0.0696,0.46387 0.20874,0.92774 0.25513,0.25513 0.53345,0.39429 0.30152,0.13916 0.62622,0.27832 l 0,0.0696 q 0,0.0696 -0.0928,0.13916 -0.0928,0.0696 -0.0928,0.18554 0,0.0928 0.0928,0.0928 0.97412,-0.27832 1.83227,-0.67261 0.85816,-0.39429 1.60035,-1.06689 0.0696,-0.0696 0.13916,-0.0696 0.0464,0 0.11596,0.0232 0.0928,0.0232 0.16236,0.0464 l -0.0232,-0.0928 q 0,-0.13916 0.0696,-0.25513 0.0928,-0.11596 0.20874,-0.20874 l 0.23194,-0.20874 q 0.11596,-0.11596 0.18554,-0.23193 0.18555,-0.0464 0.25513,-0.18555 0.0928,-0.13916 0.30151,-0.13916 0.0464,-0.25512 0.25513,-0.37109 0.20874,-0.13916 0.25513,-0.39429 0.46387,-0.25512 0.81177,-0.62622 0.37109,-0.37109 0.6726,-0.78857 0.32471,-0.41748 0.60303,-0.85816 0.27832,-0.46386 0.57983,-0.88134 l 0,-0.0928 q 0,-0.37109 0.11597,-0.60302 0.13916,-0.23194 0.20874,-0.55665 z"
         style="font-size:23.75px"
         id="path4157" />
      <path
         d="m -838.74091,420.30603 q -0.0928,0.30151 -0.30151,0.55664 l -0.39429,0.48706 q -0.18554,0.23194 -0.3247,0.51026 -0.11597,0.25512 -0.0696,0.60302 -0.0464,0 -0.11597,0 -0.0696,-0.0232 -0.11597,-0.0232 -0.37109,0 -0.57983,0.18555 -0.18555,0.16235 -0.51026,0.27832 -0.0464,-0.13916 -0.11596,-0.25513 -0.0696,-0.13916 -0.20874,-0.18555 -0.55664,0.11597 -1.11328,0.18555 -0.55664,0.0464 -1.11328,0.13916 -0.25513,0.0464 -0.51026,0.13916 -0.25513,0.0696 -0.53345,0.13916 -0.13916,0.0464 -0.30151,0.0464 -0.16235,-0.0232 -0.32471,0 -0.55664,0.0232 -1.20605,0.0928 -0.64942,0.0464 -1.15967,0.3479 -0.23193,-0.0464 -0.48706,-0.0696 -0.25513,-0.0232 -0.51025,-0.0232 -0.55664,0 -1.22925,0.11596 -0.64942,0.0928 -1.15967,0.39429 -0.11597,-0.0464 -0.25513,-0.0696 -0.11596,-0.0232 -0.27832,-0.0232 -0.0464,0 -0.0696,0.0232 -0.0232,0 -0.0696,0 -0.0232,0.20874 0.0464,0.41748 0.0928,0.18555 0.30151,0.30152 -0.0928,0.25512 -0.0928,0.55664 0,0.39428 0.0464,0.78857 0.0696,0.39429 0.0696,0.78857 0,0.44068 -0.11597,0.6958 0.23193,0.69581 0.23193,1.48438 0,0.27832 -0.0464,0.55664 -0.0232,0.25513 -0.0232,0.55664 0,0.25513 0.18555,0.41748 0.18555,0.13916 0.18555,0.39429 0,0.0928 -0.0464,0.18555 0.32471,-0.0696 0.62622,-0.18555 0.30151,-0.13916 0.62622,-0.13916 0.18555,0 0.3479,0.0696 0.18555,0.0696 0.32471,0.18555 -0.0232,0.11596 -0.0464,0.25512 0,0.13916 0,0.27832 0,0.25513 0,0.48706 0.0232,0.20874 0.0464,0.46387 -0.18555,0.32471 -0.44067,0.57983 -0.23194,0.25513 -0.32471,0.64942 -0.3479,0 -0.62622,0.16235 -0.25513,0.13916 -0.48706,0.32471 -0.23194,0.16235 -0.46387,0.32471 -0.23193,0.13916 -0.51025,0.13916 -0.3479,0 -0.48706,-0.0928 -0.13916,-0.11596 -0.20874,-0.23193 -0.0696,-0.11597 -0.13916,-0.20874 -0.0464,-0.0928 -0.23194,-0.0696 -0.0464,-0.30151 -0.18555,-0.55664 -0.13916,-0.27832 -0.30151,-0.53345 -0.13916,-0.25513 -0.30151,-0.51025 -0.13916,-0.27832 -0.20874,-0.55664 -0.13916,-0.60303 -0.11597,-1.25244 0.0232,-0.64942 -0.20874,-1.25245 0.0464,-0.3247 0.0696,-0.64941 0.0232,-0.3479 0.0232,-0.67261 0,-0.64941 -0.0464,-1.27563 -0.0232,-0.64942 -0.0464,-1.32202 -0.16235,-0.20874 -0.20874,-0.46387 -0.0232,-0.27832 -0.0464,-0.53345 -0.0696,-0.0696 -0.16235,-0.13916 -0.0696,-0.0696 -0.0928,-0.18555 -0.18555,-0.0464 -0.27832,-0.0464 -0.32471,0 -0.55664,0.16235 -0.20875,0.13916 -0.39429,0.13916 -0.18555,0 -0.3479,-0.0464 -0.16236,-0.0464 -0.32471,-0.0464 -0.13916,0 -0.16235,0.0696 0,0.0464 -0.0928,0.0928 -0.0696,0.0464 -0.3247,0.0928 -0.25513,0.0464 -0.57984,0.0928 -0.30151,0.0232 -0.60302,0.0464 -0.27832,0.0232 -0.3711,0.0232 -0.37109,0 -0.55664,-0.13916 -0.20874,-0.16236 -0.48706,-0.3479 0.0464,-0.13916 0.0464,-0.18555 0,-0.23193 -0.13916,-0.37109 -0.13916,-0.16236 -0.13916,-0.27832 0,-0.25513 0.20874,-0.39429 0.18554,-0.13916 0.20874,-0.44067 0.53344,-0.23194 1.09009,-0.3479 0.55664,-0.11597 1.13647,-0.18555 0.57983,-0.0696 1.13647,-0.16235 0.57984,-0.0928 1.13648,-0.30152 0.16235,0.0232 0.30151,0.0464 0.16236,0 0.32471,0 0.6958,0 1.36841,-0.13916 0.6958,-0.16236 1.41479,-0.16236 0.18555,0 0.3711,0.0232 0.18554,0.0232 0.37109,0.0696 0.92773,-0.13916 1.83228,-0.30152 0.92773,-0.16235 1.90185,-0.27832 0.46387,-0.0464 0.90454,-0.0696 0.46387,-0.0464 0.92774,-0.11596 0.16235,-0.0232 0.23193,-0.0696 0.0928,-0.0696 0.0928,-0.25513 0.20874,0.0928 0.46387,0.0928 0.39429,0 0.76538,-0.13916 0.3711,-0.13916 0.76538,-0.13916 0.0928,0 0.16236,0.0232 0.0696,0 0.13916,0 0.16235,0 0.16235,-0.13916 0.0232,-0.16236 0.23193,-0.20874 0.16236,-0.0464 0.46387,-0.0696 0.30151,-0.0232 0.62622,-0.0464 0.3479,-0.0464 0.62622,-0.0928 0.30152,-0.0696 0.44068,-0.18555 l 0.16235,-0.25513 q 0.41748,0.0232 0.60303,0.3711 0.20874,0.3247 0.23193,0.71899 0.0928,0.0928 0.25513,0.0928 0.18554,-0.0232 0.3247,-0.0232 l 0.0696,0 z"
         style="font-size:23.75px"
         id="path4159" />
      <path
         d="m -827.28339,421.79041 q -0.13916,0.20874 -0.16235,0.46386 -0.0232,0.25513 -0.0232,0.46387 0,0.27832 0,0.55664 0.0232,0.25513 0.0232,0.51025 l 0,0.3479 q -0.0464,0.16236 -0.13916,0.32471 -0.0928,0.16236 -0.13916,0.32471 -0.32471,0.85815 -0.32471,1.71631 l 0,0.0464 q -0.11596,0.27832 -0.23193,0.51026 -0.0928,0.23193 -0.18555,0.46387 -0.0928,0.20874 -0.13916,0.46386 -0.0464,0.23194 -0.0232,0.55664 -0.32471,0.81177 -0.85816,1.48438 -0.53344,0.64941 -1.0437,1.34521 -0.48706,0.18555 -0.90454,0.48706 -0.39428,0.30152 -0.76538,0.67261 -0.71899,0.23193 -1.41479,0.53345 -0.6958,0.30151 -1.25244,0.81177 -0.44068,0.0464 -0.88135,0.13916 -0.44068,0.0928 -0.85816,0.27832 l -0.27832,0 q -0.20874,0 -0.30151,-0.0928 -0.30151,0.16236 -0.62622,0.23194 -0.32471,0.0464 -0.64942,0.0464 -0.41748,0 -0.83496,-0.0464 -0.39428,-0.0696 -0.81176,-0.13916 -0.23194,-0.32471 -0.64942,-0.48706 -0.41748,-0.18555 -0.74219,-0.3479 -0.6726,-0.92774 -0.97412,-1.78589 -0.30151,-0.88135 -0.62622,-1.97144 0.0464,-0.32471 0.16236,-0.62622 0.11596,-0.32471 0.0928,-0.6958 0.41748,-1.20606 1.09009,-2.18018 0.6958,-0.99731 1.57715,-1.90185 0,-0.13916 0.0464,-0.23194 0.0696,-0.0928 0.0232,-0.27832 0.0232,0.0232 0.0928,0.0232 0.18555,0 0.23193,-0.0928 0.0464,-0.11596 0.0232,-0.25512 0.83496,-0.53345 1.50756,-1.22925 0.69581,-0.6958 1.57715,-1.15967 0.0696,-0.20874 0.23194,-0.3479 0.16235,-0.13916 0.25512,-0.32471 0.74219,-0.20874 1.34522,-0.62622 0.60303,-0.41748 1.27563,-0.74218 0.3711,-0.20874 0.6958,-0.27832 0.3479,-0.0928 0.74219,-0.18555 0.13916,-0.0464 0.25513,-0.0696 0.11597,-0.0232 0.25513,-0.0232 0.41748,0 0.81176,0.16236 0.39429,0.13916 0.81177,0.13916 0.11597,0 0.18555,0 0.0928,-0.0232 0.18554,-0.0464 0.39429,0.48706 0.99732,0.74219 0.13916,0.3479 0.32471,0.60303 0.20874,0.25512 0.41748,0.51025 0.20874,0.23193 0.37109,0.53345 0.18555,0.27832 0.23193,0.67261 z m -2.31933,1.20605 q 0,-0.11597 -0.0232,-0.20874 -0.23193,-0.0696 -0.44067,-0.18555 -0.20874,-0.11596 -0.46387,-0.11596 -0.16235,0 -0.3247,0.0696 -0.0232,-0.16236 -0.13916,-0.23194 -0.0928,-0.0696 -0.23194,-0.11596 -0.11596,-0.0696 -0.25512,-0.0928 -0.11597,-0.0464 -0.20874,-0.13916 -0.0696,-0.18554 -0.16236,-0.37109 -0.0696,-0.20874 -0.27832,-0.30152 -0.20874,0.20874 -0.48706,0.34791 -0.27832,0.11596 -0.57983,0.23193 -0.27832,0.11597 -0.55664,0.27832 -0.25513,0.16235 -0.44068,0.39429 l -0.41748,0 q -0.13916,0.25512 -0.39428,0.39428 -0.25513,0.11597 -0.44068,0.3479 -0.37109,0.18555 -0.6958,0.46387 -0.30151,0.25513 -0.60303,0.55664 -0.30151,0.27832 -0.60302,0.57984 -0.27832,0.30151 -0.60303,0.55664 -0.30152,0.64941 -0.67261,1.13647 -0.3479,0.46387 -0.67261,0.95093 -0.30151,0.48706 -0.53344,1.06689 -0.20874,0.55664 -0.20874,1.3916 l 0,0.23194 q 0,0.11596 0.0232,0.23193 0.30151,0.32471 0.48706,0.6958 0.20874,0.3711 0.67261,0.53345 0.46386,0.18555 0.97412,0.16235 0.53345,-0.0232 1.02051,0.11597 1.11328,-0.20874 2.13379,-0.67261 1.0437,-0.48706 1.97143,-1.15967 0.13916,-0.11596 0.32471,-0.23193 0.18554,-0.13916 0.30151,-0.27832 0.11597,-0.11597 0.18555,-0.25513 0.0928,-0.13916 0.18555,-0.25512 0.18554,-0.30152 0.41748,-0.60303 0.23193,-0.30151 0.48706,-0.55664 0.11596,-0.51026 0.30151,-0.97412 0.18555,-0.48706 0.37109,-0.95093 0.18555,-0.46387 0.30152,-0.95093 0.13916,-0.48706 0.13916,-1.02051 0,-0.11596 -0.0232,-0.25512 0,-0.13916 -0.0232,-0.25513 0.18555,-0.25513 0.18555,-0.55664 z"
         style="font-size:23.75px"
         id="path4161" />
      <path
         d="m -806.13104,420.3988 -0.0928,0 q -0.0464,-0.0232 -0.0928,0 -0.0464,0.0232 -0.0464,0.0696 0.0464,0.18555 0.0464,0.25513 0,0.27832 -0.18555,0.48706 -0.16235,0.18555 -0.16235,0.32471 0,0.0696 0.0696,0.11597 0.0928,0.0464 0.13916,0.0696 -0.11597,0.13916 -0.20874,0.30151 -0.0928,0.16235 -0.20874,0.27832 0.0464,0.81177 0.18555,1.60034 0.16235,0.76538 0.16235,1.55396 0,0.39428 -0.0928,0.78857 -0.0696,0.37109 -0.16236,0.76538 -0.0928,0.37109 -0.18554,0.76538 -0.0696,0.3711 -0.0696,0.76538 -0.30152,0.60303 -0.64942,1.15967 -0.3479,0.53345 -0.51025,1.18286 -0.53345,0.32471 -0.92774,0.81177 -0.37109,0.46387 -0.74218,0.92773 -0.81177,0.27832 -1.48438,0.74219 -0.11597,0.0232 -0.20874,0.0232 l -0.18555,0 q -0.88134,0 -1.50756,-0.3247 -0.62622,-0.32471 -1.09009,-0.83496 -0.44068,-0.53345 -0.76538,-1.20606 -0.32471,-0.67261 -0.60303,-1.3916 -0.53345,0.39429 -0.97412,0.90454 -0.41748,0.48706 -0.85816,0.97412 -0.13916,0.18555 -0.3479,0.44068 -0.18554,0.23193 -0.37109,0.3479 -0.0928,0.0464 -0.20874,0.0928 -0.0928,0.0232 -0.20874,0.0696 -0.64941,0.37109 -1.02051,0.99732 -0.46386,0.18554 -0.90454,0.41748 -0.41748,0.23193 -0.81177,0.48706 -0.44067,0.0232 -0.88134,0.0696 -0.41748,0.0232 -0.83496,0.0232 -0.64942,0 -0.92774,-0.0696 -0.25513,-0.0928 -0.41748,-0.20874 -0.13916,-0.13916 -0.30151,-0.32471 -0.13916,-0.18554 -0.55664,-0.39428 -0.11597,-0.30152 -0.23194,-0.60303 -0.0928,-0.30152 -0.27832,-0.55664 l 0,-0.32471 q 0,-0.20874 -0.0232,-0.39429 0,-0.18554 -0.0696,-0.3247 -0.0696,-0.16236 -0.23193,-0.20874 0,-0.85816 0.20874,-1.69312 0.20874,-0.83496 0.3479,-1.69311 0.11596,-0.48707 0.13916,-0.99732 0.0232,-0.11597 0.0232,-0.25513 0,-0.13916 0.0464,-0.27832 0.0464,-0.13916 0.16235,-0.23193 0.11597,-0.0928 0.16235,-0.27832 0.11597,-0.32471 0.13916,-0.71899 0.0232,-0.39429 0.0696,-0.74219 0.11597,-0.6958 0.25513,-1.3916 0.16235,-0.6958 0.37109,-1.36841 -0.0232,-0.11597 -0.0232,-0.20874 l 0,-0.23194 q 0,-0.88134 0.11597,-1.7163 0.13916,-0.83497 0.13916,-1.71631 0,-0.41748 -0.0696,-0.88135 0.11596,-0.23193 0.25512,-0.41748 0.16236,-0.20874 0.41748,-0.32471 0.48707,0.25513 0.95093,0.55664 0.48706,0.27832 0.92774,0.62622 l 0,0.55664 q 0,0.67261 -0.0464,1.43799 -0.0232,0.74219 -0.13916,1.50757 -0.0928,0.76538 -0.25513,1.48438 -0.16235,0.71899 -0.44067,1.32202 l 0,0.74218 q -0.41748,0.74219 -0.55664,1.55396 -0.13916,0.81177 -0.32471,1.62353 -0.0464,0.25513 -0.18555,0.60303 -0.13916,0.3479 -0.13916,0.60303 0,0.11597 0.0232,0.23193 0.0464,0.11597 0.0696,0.23194 -0.18555,0.41748 -0.20874,0.90454 0,0.46386 -0.11597,0.92773 0.18555,0.30152 0.32471,0.64942 0.16235,0.3247 0.3479,0.6726 l 0.23193,-0.0232 q 0.20874,0 0.44068,0.0464 0.23193,0.0232 0.44067,0.0232 0.11597,0 0.23193,0 0.11597,-0.0232 0.23194,-0.0464 0.13916,-0.25512 0.37109,-0.39428 0.23193,-0.16236 0.46387,-0.27832 0.25512,-0.11597 0.46386,-0.25513 0.23194,-0.13916 0.3711,-0.39429 l 0.32471,0 q 0.0464,-0.0696 0.16235,-0.18554 0.13916,-0.11597 0.25513,-0.23194 0.11596,-0.11597 0.18554,-0.23193 0.0928,-0.11597 0.0696,-0.18555 0.27832,-0.11597 0.46387,-0.30151 0.20874,-0.20874 0.39429,-0.41748 0.18554,-0.23194 0.37109,-0.44068 0.18555,-0.20874 0.44068,-0.3479 -0.0232,-0.0464 -0.0232,-0.11596 0,-0.20874 0.11597,-0.32471 0.13916,-0.11597 0.0696,-0.41748 l 0.0696,0.0232 q 0.11597,0 0.16235,-0.0696 0.0464,-0.0696 0.0696,-0.16235 0.0464,-0.0928 0.0928,-0.16236 0.0696,-0.0928 0.18554,-0.11596 l 0,-0.0464 q 0,-0.41748 0.16236,-0.78857 0.18554,-0.3711 0.18554,-0.78858 0,-0.11596 -0.0232,-0.20874 -0.0232,-0.11596 -0.0696,-0.23193 0.20874,-0.23193 0.25513,-0.53345 0.0696,-0.30151 0.0696,-0.62622 0.0232,-0.32471 0.0464,-0.64941 0.0232,-0.32471 0.18555,-0.62622 0,-0.23194 -0.16235,-0.32471 l 0.27832,-0.37109 q 0.13916,-0.18555 0.3247,-0.30152 l 0.0464,0 q 0.25513,0 0.44067,0.13916 0.20874,0.11597 0.3711,0.27832 0.18555,0.13916 0.37109,0.30152 0.18555,0.13916 0.41748,0.20874 l 0,0.51025 q 0.23194,0.0928 0.3479,0.32471 -0.0232,0.62622 -0.0464,1.25244 0,0.62622 0,1.22925 0,0.92773 0.0464,1.85547 0.0464,0.90454 0.23194,1.80908 0.25512,0.25512 0.51025,0.51025 0.27832,0.25513 0.41748,0.57984 l 0.27832,0 q 0.81177,0 1.25244,-0.51026 0.44068,-0.53345 0.62622,-1.22925 0.3479,-0.16235 0.51026,-0.44067 0.18554,-0.30151 0.27832,-0.64941 0.11596,-0.34791 0.18554,-0.69581 0.0928,-0.37109 0.27832,-0.64941 0.0232,-0.27832 0.0232,-0.55664 l 0,-0.57983 q 0,-1.34522 -0.13916,-2.66724 -0.11597,-1.34522 -0.13916,-2.66724 -0.0928,-0.18554 -0.13916,-0.44067 l -0.0696,-0.51025 q -0.0232,-0.25513 -0.11597,-0.46387 -0.0696,-0.23194 -0.23193,-0.32471 0.0696,-0.23193 0.0696,-0.55664 0,-0.30151 -0.0696,-0.60303 -0.0464,-0.30151 -0.11597,-0.60302 0.18555,-0.16236 0.30151,-0.32471 0.11597,-0.16235 0.39429,-0.16235 0.16235,0 0.27832,0.0928 0.13916,0.0928 0.25513,0.20874 0.11597,0.11597 0.23193,0.20874 0.13916,0.0928 0.32471,0.0928 0.0464,0 0.0928,0 0.0696,-0.0232 0.13916,-0.0232 0.23194,0.23193 0.3711,0.57983 0.16235,0.3479 0.27832,0.74219 0.13916,0.37109 0.27832,0.74219 0.16235,0.37109 0.39428,0.67261 0,0.0696 -0.0232,0.13916 0,0.0464 0,0.11596 0,0.20874 0.0696,0.41748 0.0696,0.20874 0.11597,0.41748 z"
         style="font-size:23.75px"
         id="path4163" />
      <path
         d="m -789.36224,419.98132 q -0.0464,0.27832 -0.13916,0.48706 -0.0696,0.18555 -0.0232,0.51026 -0.23193,0.0232 -0.37109,0.16235 -0.11597,0.11597 -0.20874,0.27832 -0.0696,0.16236 -0.16235,0.3479 -0.0696,0.16236 -0.18555,0.30152 0.18555,0.83496 0.20874,1.69311 0.0232,0.85816 0.11597,1.69312 0.11596,1.06689 0.3479,2.11059 0.25512,1.02051 0.25512,2.0874 0,0.32471 -0.0232,0.60303 0,0.27832 0,0.57984 0,0.18554 0,0.39428 0.0232,0.18555 0.0232,0.3711 0,0.6726 -0.18554,1.34521 -0.16236,0.67261 -0.25513,1.34522 -0.27832,0.25512 -0.48706,0.55664 -0.18555,0.30151 -0.39429,0.55664 -0.20874,0.25512 -0.48706,0.44067 -0.27832,0.20874 -0.6958,0.27832 -0.0696,0.23193 -0.27832,0.3479 -0.18555,0.11597 -0.32471,0.32471 l -0.0464,0 q -0.57984,0 -0.99732,-0.16235 -0.41748,-0.16236 -0.78857,-0.3711 -0.3479,-0.20874 -0.719,-0.44067 -0.37109,-0.23194 -0.85815,-0.3711 -0.64942,-0.53344 -1.18286,-1.15966 -0.53345,-0.64942 -1.20606,-1.15967 -0.16235,-0.46387 -0.44067,-0.76538 -0.25513,-0.30152 -0.51025,-0.6958 -0.11597,-0.16236 -0.18555,-0.30152 -0.0464,-0.13916 -0.13916,-0.3247 -0.0696,-0.18555 -0.23194,-0.25513 -0.13916,-0.0696 -0.25512,-0.16235 -0.18555,-0.719 -0.53345,-1.32203 -0.3479,-0.60302 -0.81177,-1.15966 -0.13916,0.25512 -0.23193,0.55664 -0.0696,0.27832 -0.13916,0.57983 -0.0696,0.27832 -0.18555,0.57983 -0.0928,0.27832 -0.25512,0.51026 l 0,0.0696 q 0,0.11597 0.0928,0.13916 0.0928,0.0232 0.0928,0.13916 0,0.0232 -0.0232,0.0464 0,0.0232 0,0.0464 -0.11597,0.0928 -0.18555,0.23194 -0.0464,0.13916 -0.23193,0.16235 0.0232,0.11597 0.0232,0.23193 l 0,0.20874 q 0,0.67261 -0.16235,1.34522 -0.13916,0.67261 -0.13916,1.36841 l 0,0.30151 q 0,0.16235 0.0232,0.30151 0.0464,0.13916 0.13916,0.27832 0.0928,0.13916 0.0928,0.25513 0,0.16235 -0.13916,0.30151 0.16236,0.11597 0.3711,0.25513 0.20874,0.13916 0.37109,0.30151 0.18555,0.18555 0.30152,0.3711 0.11596,0.20874 0.11596,0.44067 0,0.39429 -0.25512,0.55664 -0.25513,0.16236 -0.62623,0.25513 -0.3479,0.0928 -0.74218,0.16235 -0.3711,0.0928 -0.62622,0.30152 l -0.0696,0 q -0.27832,0 -0.41748,-0.16236 -0.13916,-0.16235 -0.41748,-0.16235 -0.44068,-0.71899 -0.60303,-1.62353 -0.16236,-0.88135 -0.16236,-1.69312 0,-0.99731 0.18555,-1.99463 0.16236,-0.99731 0.41748,-1.97143 0.23194,-0.97413 0.51026,-1.92505 0.30151,-0.97412 0.55664,-1.94825 l 0.0232,-0.0696 q 0,-0.11596 -0.0696,-0.16235 -0.0464,-0.0464 -0.0464,-0.13916 0,-0.0464 0.0232,-0.0464 0.0696,-0.23193 0.13916,-0.44067 0.0928,-0.20874 0.13916,-0.46387 0.13916,-0.64941 0.18554,-1.32202 0.0696,-0.6958 0.0696,-1.36841 0.0232,-0.6726 0.0464,-1.34521 0.0464,-0.6958 0.16235,-1.36841 0.18555,-0.18555 0.3479,-0.39429 0.16236,-0.20874 0.41749,-0.37109 0.46386,0.0232 0.92773,0.13916 0.46387,0.11597 0.88135,0.37109 0.27832,0.99732 0.37109,1.99463 0.11597,0.99732 0.37109,1.99463 l 0,0.0696 q 0,0.11597 0.11597,0.11597 0.13916,-0.0232 0.20874,0.0696 -0.0464,0.0696 -0.0696,0.16235 0,0.0928 0,0.18555 l 0,0.39429 q 0.0464,0.18554 0.11597,0.39428 0.0696,0.20874 0.30151,0.25513 0.11597,0.74219 0.3479,1.36841 0.23194,0.62622 0.53345,1.20605 0.30151,0.57984 0.64941,1.15967 0.3479,0.55664 0.719,1.18286 0.57983,0.44068 0.99731,1.02051 0.41748,0.55664 0.83496,1.09009 0.44068,0.51025 0.97412,0.90454 0.55664,0.39429 1.43799,0.48706 0.11597,-0.0928 0.16236,-0.25513 l 0.11596,-0.3247 q 0.0696,-0.16236 0.13916,-0.27833 0.0928,-0.13916 0.25513,-0.20874 0.0464,-0.64941 0.0928,-1.32202 0.0696,-0.6726 0.30152,-1.27563 -0.11597,-0.20874 -0.11597,-0.51026 0,-0.23193 0.0232,-0.44067 0.0464,-0.20874 0.0464,-0.41748 0,-0.44067 -0.18555,-0.71899 0,-0.16236 0.0232,-0.32471 0.0232,-0.18555 0.13916,-0.3479 -0.18555,-0.46387 -0.30152,-0.97412 -0.0928,-0.51026 -0.0928,-1.0437 0,-0.30152 0.0696,-0.62622 -0.13916,-0.3479 -0.18555,-0.81177 l -0.0928,-0.95093 q -0.0464,-0.48706 -0.13916,-0.90454 -0.0928,-0.41748 -0.3479,-0.67261 0.13916,-0.20874 0.13916,-0.48706 0,-0.46387 -0.13916,-0.88135 -0.13916,-0.41748 -0.13916,-0.88134 0,-0.32471 0.13916,-0.64942 0.51025,0.0232 0.99731,0.11597 0.51026,0.0696 0.99732,0.0696 0.13916,0.18555 0.32471,0.30151 0.18554,0.11597 0.39428,0.23194 0.20874,0.0928 0.39429,0.20874 0.20874,0.11596 0.32471,0.3247 z"
         style="font-size:23.75px"
         id="path4165" />
      <path
         d="m -752.60077,433.89734 q 0,0.18555 -0.13916,0.25513 -0.11597,0.0696 -0.0464,0.3247 -0.18554,0.0232 -0.3247,0.18555 -0.13916,0.16235 -0.32471,0.16235 -0.11597,0 -0.18555,-0.11596 -0.0464,0.16235 -0.18554,0.23193 -0.11597,0.0696 -0.25513,0.11597 -0.13916,0.0464 -0.27832,0.11596 -0.13916,0.0696 -0.18555,0.20874 l -0.11596,0 q -0.27832,0 -0.44068,0.23194 -0.13916,0.23193 -0.3479,0.23193 -0.0696,0 -0.0928,-0.0232 -0.11597,0.0232 -0.0928,0.13916 0.0232,0.13916 -0.0696,0.18554 l -0.11596,0 q -0.60303,0 -1.22925,0.25513 -0.62622,0.25513 -1.27564,0.57984 -0.62622,0.3247 -1.29882,0.60302 -0.64942,0.30152 -1.32203,0.39429 -0.13916,0.13916 -0.3479,0.20874 -0.18554,0.0928 -0.41748,0.13916 -0.23193,0.0464 -0.46386,0.0928 -0.20874,0.0696 -0.3711,0.20874 -0.57983,0.0464 -1.15966,0.20874 -0.57984,0.16236 -1.15967,0.30152 -0.55664,0.16235 -1.15967,0.25513 -0.57983,0.11596 -1.18286,0.0696 -0.18555,0.13916 -0.41748,0.20874 -0.20874,0.0928 -0.39429,0.23193 -0.95093,-0.13916 -1.90186,-0.20874 -0.92773,-0.0696 -1.83227,-0.32471 0,-0.0696 -0.0464,-0.0928 -0.0464,-0.0232 -0.11596,-0.0464 -0.0464,0 -0.0928,-0.0464 -0.0464,-0.0232 0,-0.11596 -0.20874,0.0696 -0.37109,0.0696 -0.23193,0 -0.46387,-0.11597 -0.20874,-0.11597 -0.46387,-0.25513 -0.23193,-0.13916 -0.48706,-0.27832 -0.25512,-0.11596 -0.55664,-0.11596 -0.18554,-0.18555 -0.3479,-0.3711 -0.13916,-0.18554 -0.20874,-0.46386 -0.0928,-0.0232 -0.20874,0 -0.0928,0.0232 -0.16235,0.0232 -0.13916,0 -0.13916,-0.0928 -0.48706,-0.3479 -0.6958,-0.74219 -0.20874,-0.39429 -0.46387,-0.90454 -0.0696,-0.16236 -0.18555,-0.27832 -0.0928,-0.0928 -0.13916,-0.23194 -0.0928,-0.23193 -0.11596,-0.48706 -0.0232,-0.25512 -0.0464,-0.48706 0,-0.25512 -0.0696,-0.48706 -0.0464,-0.25512 -0.20874,-0.46387 0.0464,-0.88134 0.18555,-1.76269 0.16235,-0.88135 0.39428,-1.7627 0.0928,-0.39428 0.20874,-0.76538 0.11597,-0.37109 0.20874,-0.76538 0.0232,-0.13916 0.0696,-0.18554 0.0696,-0.0696 0.11597,-0.0928 l 0.0928,-0.0696 q 0.0464,-0.0464 0.0696,-0.13916 l 0.18555,-0.78857 q 0.18555,-0.76538 0.48706,-1.48438 0.30152,-0.71899 0.81177,-1.32202 0.0464,-0.57983 0.25513,-1.09009 0.23193,-0.53344 0.51025,-1.0205 0.27832,-0.51026 0.55664,-0.99732 0.27832,-0.48706 0.44068,-1.0437 l -0.0232,-0.0464 q 0,-0.0928 0.0928,-0.0928 0.11596,-0.0232 0.16235,-0.0232 0.0232,-0.3711 0.16235,-0.62622 0.16236,-0.27832 0.32471,-0.51026 0.18555,-0.23193 0.32471,-0.48706 0.16235,-0.27832 0.18554,-0.64941 0.44068,-0.25513 0.74219,-0.62622 0.32471,-0.39429 0.60303,-0.78858 0.30151,-0.41748 0.62622,-0.78857 0.32471,-0.39429 0.78857,-0.62622 0.11597,-0.13916 0.0696,-0.39429 0.719,-0.53345 1.48438,-0.95093 0.76538,-0.41748 1.43799,-0.97412 l 0.83496,0 q 0.30151,-0.23193 0.6726,-0.23193 0.27832,0 0.53345,0.11596 0.27832,0.11597 0.51026,0.27833 0.25512,0.13916 0.51025,0.30151 0.25513,0.13916 0.51025,0.20874 0.25513,0.3479 0.3479,0.81177 0.11597,0.44067 0.23194,0.83496 -0.20874,0.62622 -0.25513,1.29883 -0.0464,0.64941 -0.16235,1.29882 -0.16236,0.18555 -0.27832,0.41748 -0.11597,0.20874 -0.25513,0.44068 -0.11597,0.20874 -0.25513,0.41748 -0.13916,0.18555 -0.37109,0.30151 -0.18555,0.67261 -0.57983,1.0669 -0.39429,0.39428 -0.76539,0.92773 -0.3479,0.23193 -0.74218,0.23193 -0.32471,0 -0.57984,-0.13916 -0.25512,-0.16235 -0.46386,-0.39428 -0.20874,-0.25513 -0.3479,-0.53345 -0.11597,-0.30151 -0.18555,-0.57983 0.16235,-0.48706 0.51025,-0.83496 0.3711,-0.34791 0.74219,-0.69581 0.37109,-0.3479 0.64941,-0.74218 0.27832,-0.39429 0.27832,-0.95093 0,-0.0464 -0.0232,-0.0928 0,-0.0464 0,-0.0928 0,-0.0928 0.0696,-0.16235 0.0696,-0.0696 0.13916,-0.11597 l 0.13916,-0.11596 q 0.0696,-0.0696 0.0696,-0.16236 0,-0.0928 -0.0928,-0.18555 -0.88135,0.0696 -1.34522,0.30152 -0.44067,0.23193 -0.6958,0.51025 -0.25512,0.27832 -0.46387,0.55664 -0.18554,0.25513 -0.55664,0.3711 -0.0696,0.18554 -0.20874,0.3247 -0.11596,0.11597 -0.25512,0.25513 -0.13916,0.11597 -0.25513,0.27832 -0.0928,0.16235 -0.11597,0.39429 l -0.41748,0 q -0.0928,0.20874 -0.27832,0.41748 -0.16235,0.18555 -0.3479,0.37109 -0.16235,0.18555 -0.30151,0.41748 -0.11597,0.20874 -0.0696,0.46387 -0.25513,0.0928 -0.39429,0.30151 -0.11597,0.20874 -0.3479,0.3479 l 0,0.13916 q 0,0.18555 -0.0696,0.3479 -0.0696,0.16236 -0.0232,0.34791 -0.27832,0.25512 -0.41748,0.64941 -0.11597,0.37109 -0.25513,0.6958 -0.32471,0.16235 -0.44067,0.44067 -0.11597,0.27832 -0.11597,0.64942 -0.3479,0.3479 -0.62622,0.81177 -0.27832,0.46386 -0.51026,0.95092 -0.20874,0.48706 -0.39428,0.99732 -0.18555,0.51025 -0.39429,0.95093 l 0,0.6726 q -0.32471,0.3711 -0.46387,0.88135 -0.11596,0.48706 -0.37109,0.88135 -0.0464,0.25512 -0.0464,0.51025 0.0232,0.25513 0.0232,0.51026 0,0.27832 -0.0464,0.57983 -0.0464,0.30151 -0.16235,0.55664 0.0928,0.3479 0.13916,0.83496 0.0464,0.46387 0.16235,0.95093 0.11597,0.46387 0.32471,0.85815 0.20874,0.3711 0.60302,0.51026 0.0928,0.51025 0.44068,0.76538 0.37109,0.27832 0.83496,0.44067 0.46387,0.16236 0.95093,0.27832 0.48706,0.13916 0.85815,0.3479 0.13916,-0.0696 0.32471,-0.0696 0.18554,0 0.32471,0.0464 0.16235,0.0464 0.3479,0.0928 0.3247,-0.0464 0.78857,-0.0464 0.48706,0 0.97412,-0.0464 0.48706,-0.0232 0.90454,-0.11597 0.41748,-0.0928 0.67261,-0.3479 0.16235,0 0.20874,0.0928 0.0696,0.0928 0.23193,0.0928 0.16236,0 0.48706,-0.0928 0.32471,-0.0696 0.67261,-0.18555 0.3479,-0.0928 0.64942,-0.20874 0.3247,-0.11597 0.46386,-0.20874 0.0696,0.0232 0.13916,0.0232 l 0.16236,0 q 0.3247,0 0.60302,-0.11597 0.27832,-0.11596 0.60303,-0.0696 1.0669,-0.53344 2.15698,-0.92773 1.11328,-0.37109 2.24976,-0.67261 0.13916,-0.20874 0.32471,-0.30151 0.20874,-0.0928 0.44067,-0.13916 0.23193,-0.0696 0.46387,-0.0928 0.23193,-0.0464 0.44067,-0.11597 0.13916,-0.0696 0.23193,-0.16235 0.11597,-0.11597 0.27832,-0.18555 0.16236,-0.0696 0.34791,-0.0928 0.20874,-0.0232 0.39428,-0.0464 0.20874,-0.0464 0.3711,-0.11597 0.18554,-0.0696 0.30151,-0.23193 0.32471,0.13916 0.64941,0.30151 0.3479,0.16236 0.57984,0.46387 l 0.0232,0.0696 z"
         style="font-size:23.75px"
         id="path4167" />
      <path
         d="m -741.58392,424.38806 q -0.0928,0.23194 -0.18555,0.44068 -0.0928,0.20874 -0.13916,0.46386 -0.16235,0.11597 -0.37109,0.18555 -0.18555,0.0464 -0.39429,0.11597 -0.20874,0.0464 -0.39429,0.13916 -0.16235,0.0696 -0.25513,0.23193 -0.0696,0.3479 -0.0696,0.64941 0,0.39429 0.13916,0.67261 -0.0696,0.20874 -0.0928,0.44068 -0.0232,0.23193 -0.0232,0.44067 0,0.76538 0.18554,1.53076 0.18555,0.74219 0.20875,1.50757 0,0.11597 -0.0232,0.25513 -0.0232,0.13916 -0.0232,0.25512 0,0.48706 0.37109,0.64942 -0.0696,0.11596 -0.0696,0.20874 0,0.18554 0.0464,0.3247 0.0464,0.13916 0.0232,0.30152 0.11597,0.23193 0.23194,0.41748 0.11596,0.16235 0.16235,0.41748 -0.16235,0.32471 -0.39429,0.60303 -0.23193,0.25512 -0.3247,0.64941 -0.0928,-0.0232 -0.20875,-0.0232 -0.16235,0 -0.25512,0.0696 -0.0928,0.0696 -0.16236,0.16235 -0.0464,0.11597 -0.11596,0.20874 -0.0696,0.11597 -0.18555,0.16235 l -0.0696,0 q -0.11597,0.0232 -0.20874,-0.0232 -0.0696,-0.0232 -0.13916,-0.0232 -0.0464,0 -0.18555,0.0464 -0.18554,-0.23193 -0.25512,-0.55664 -0.0696,-0.30151 -0.0696,-0.60302 0,-0.32471 0.0928,-0.57984 -0.25513,-0.20874 -0.32471,-0.62622 -0.0464,-0.41748 -0.11596,-0.6958 -0.18555,-0.85815 -0.44068,-1.66992 -0.23193,-0.81177 -0.27832,-1.66992 -0.0232,-0.32471 -0.0232,-0.62622 l 0,-1.20606 q 0,-0.30151 0.0232,-0.57983 0,-0.20874 0.0232,-0.39429 0.0464,-0.20874 0.0464,-0.41748 0,-0.27832 -0.18554,-0.53345 -1.64673,0.0696 -3.13111,0.60303 -1.46118,0.51025 -2.92236,1.22925 -0.0928,0.53345 -0.11597,1.0437 -0.0232,0.51025 -0.0232,1.0437 l 0,1.02051 q 0,0.57983 0.0464,0.97412 0.11597,0.67261 0.67261,1.0437 0.57984,0.3479 1.15967,0.53345 -0.0232,0.3479 -0.13916,0.60303 -0.11597,0.23193 -0.30151,0.44067 -0.16236,0.18555 -0.3711,0.37109 -0.20874,0.18555 -0.41748,0.41748 -0.18554,-0.11596 -0.37109,-0.16235 -0.18555,-0.0464 -0.39429,-0.0464 -0.20874,-0.0232 -0.41748,-0.0464 -0.20874,-0.0232 -0.41748,-0.0928 l -0.51025,-0.6958 q -0.25513,-0.3479 -0.55664,-0.6958 l 0,-0.20874 q 0,-0.62622 -0.23194,-1.20605 -0.23193,-0.57984 -0.3479,-1.18286 0.0696,-0.20874 0.0928,-0.41749 0.0232,-0.20874 0.0232,-0.44067 0,-0.46387 -0.0464,-0.90454 -0.0232,-0.44067 0.0232,-0.88135 l -0.11597,0 q -0.20874,0 -0.44068,0.11597 -0.23193,0.0928 -0.46386,0.23193 -0.20874,0.11597 -0.41748,0.23194 -0.18555,0.0928 -0.32471,0.0928 -0.0696,0 -0.13916,-0.0232 -0.0696,-0.0232 -0.16235,-0.0232 -0.11597,0 -0.27832,0.0928 -0.16236,0.0928 -0.3479,0.20874 -0.20874,0.0928 -0.41748,0.18554 -0.20875,0.0928 -0.41749,0.0928 -0.3247,0 -0.64941,-0.27832 -0.0464,-0.18555 -0.0232,-0.3479 0,-0.16236 0,-0.3479 0,-0.18555 -0.0696,-0.39429 0.16235,-0.30151 0.44067,-0.46387 0.25513,-0.18555 0.55664,-0.32471 0.27832,-0.16235 0.57984,-0.30151 0.30151,-0.16235 0.51025,-0.41748 l 0.13916,0 q 0.32471,0 0.57983,-0.13916 0.27832,-0.13916 0.62622,-0.11597 0.11597,-0.0464 0.16236,-0.3479 l 0.0928,0.0232 q 0.51026,0 0.90454,-0.3479 0.25513,-1.43799 0.41748,-2.89917 0.16236,-1.46119 0.16236,-2.92237 0,-0.13916 -0.0928,-0.27832 -0.0464,-0.18554 -0.0464,-0.3479 l 0,-0.3479 q 0,-0.25513 0.0232,-0.53345 0.0232,-0.27832 0.11597,-0.55664 0.23193,-0.13916 0.48706,-0.13916 0.30151,0 0.57983,0.0928 0.30151,0.0696 0.57983,0.11596 0.20875,0.20874 0.30152,0.46387 0.11597,0.25513 0.13916,0.53345 0.0232,0.25513 0,0.53345 0,0.25512 0,0.51025 0,0.51025 0.11597,0.99731 0.11596,0.48706 0.11596,0.95093 0,0.11597 -0.0928,0.18555 -0.0696,0.0464 -0.0696,0.30151 0,0.25513 0.0464,0.53345 0.0464,0.27832 0.0464,0.55664 0,0.32471 -0.0928,0.67261 -0.0928,0.3479 -0.16235,0.67261 1.3916,-0.11597 2.85278,-0.34791 1.46118,-0.23193 2.7832,-0.74218 0.0232,-0.0464 0.0232,-0.13916 0,-0.13916 -0.0232,-0.27832 -0.0232,-0.13916 -0.0232,-0.30152 0,-0.27832 0.18555,-0.44067 -0.11597,-0.64941 -0.16236,-1.29883 -0.0464,-0.64941 -0.0464,-1.29883 l 0,-1.32202 q 0,-0.64941 -0.0232,-1.29883 0.18555,-0.11596 0.39429,-0.11596 0.25513,0 0.46387,0.13916 0.23193,0.11596 0.53344,0.11596 0.20874,0 0.3479,-0.0696 0.25513,0.23194 0.3479,0.60303 0.0928,0.37109 0.16236,0.76538 0.0696,0.39429 0.13916,0.78858 0.0928,0.37109 0.3479,0.60302 l 0.0232,0.0696 q 0,0.0928 -0.0928,0.13916 -0.0928,0.0464 -0.0928,0.18555 l 0,0.0928 q 0.0928,0.3711 0.13916,0.76538 0.0464,0.39429 0.0696,0.81177 0.0464,0.39429 0.11597,0.78858 0.0696,0.37109 0.25513,0.6958 0.11597,-0.0232 0.30151,-0.0232 0.46387,0 0.719,0.32471 0.27832,0.30151 0.48706,0.62622 z"
         style="font-size:23.75px"
         id="path4169" />
      <path
         d="m -722.84369,433.52625 q -0.0696,0.3247 -0.30151,0.53344 -0.20874,0.18555 -0.51026,0.30152 -0.30151,0.11596 -0.62622,0.16235 -0.30151,0.0232 -0.55664,0.0232 -0.11596,0 -0.23193,0 -0.0928,-0.0232 -0.20874,-0.0232 -0.11597,0 -0.11597,0.11597 0,0.11596 -0.11597,0.16235 -0.11596,-0.0464 -0.23193,-0.0696 -0.11597,-0.0232 -0.23193,-0.0232 -0.16236,0 -0.32471,0.0232 -0.13916,0.0232 -0.27832,0.0232 -0.18555,0 -0.27832,-0.0464 -0.0696,-0.0464 -0.13916,-0.0928 -0.0464,-0.0696 -0.11597,-0.13916 -0.0464,-0.0696 -0.16235,-0.11596 -0.16235,-0.0696 -0.27832,-0.0232 -0.0928,0.0464 -0.30151,-0.13916 -0.27832,-0.23193 -0.48707,-0.55664 -0.18554,-0.3479 -0.37109,-0.71899 -0.18555,-0.3711 -0.39429,-0.74219 -0.20874,-0.37109 -0.48706,-0.64941 l -0.18554,0 q -0.41748,0 -0.57984,0.3479 -0.11596,-0.0696 -0.23193,-0.16236 -0.11597,-0.11596 -0.25513,-0.18554 -0.53345,0.16235 -1.11328,0.27832 -0.57983,0.11596 -1.15967,0.11596 l -0.3247,0 q -0.13916,0 -0.30152,-0.0464 -0.23193,0.0928 -0.41748,0.23193 -0.18555,0.11597 -0.41748,0.11597 -0.13916,0 -0.32471,-0.0928 -0.13916,0 -0.13916,0.11597 0.0232,0.11597 -0.13916,0.11597 l -0.20874,0 q -0.3247,0 -0.64941,0.0232 -0.30151,0.0232 -0.62622,0.0232 -0.44067,0 -0.90454,-0.11596 -0.11597,0.0696 -0.25513,0.0696 -0.0928,0.0464 -0.13916,0.16235 -0.0464,0.0928 -0.0928,0.18555 -0.0464,0.0696 -0.13916,0.13916 -0.0696,0.0464 -0.20874,0.0232 -0.0464,0.27832 -0.23194,0.44067 -0.18554,0.16236 -0.18554,0.48707 -0.25513,0.13916 -0.41748,0.3479 -0.16236,0.20874 -0.32471,0.44067 -0.16235,0.23193 -0.3479,0.44067 -0.16235,0.20874 -0.41748,0.32471 -0.11597,0.13916 -0.0696,0.44067 -0.25513,0.20874 -0.62622,0.3711 -0.3711,0.16235 -0.6958,0.16235 -0.67261,0 -0.92774,-0.71899 0,-0.23194 0.0464,-0.48706 0.0232,-0.27832 0.0928,-0.51026 0.0696,-0.25512 0.20874,-0.44067 0.13916,-0.20874 0.39429,-0.30151 0,-0.20874 -0.13916,-0.27832 -0.13916,-0.0928 -0.11597,-0.30152 0.62622,-0.30151 1.09009,-0.78857 0.46387,-0.48706 0.83496,-1.02051 0.39429,-0.55664 0.78858,-1.11328 0.39428,-0.55664 0.88134,-0.99732 l 0,-0.48706 q 0.6958,-0.74218 0.90454,-1.66992 0.25513,-0.0464 0.32471,-0.23193 0.0928,-0.18555 0.0928,-0.44068 0.11597,0 0.13917,-0.0928 0.0464,-0.11597 0.20874,-0.0696 0.20874,-0.55664 0.46386,-1.02051 0.25513,-0.46386 0.51026,-0.92773 0.25512,-0.48706 0.44067,-0.99732 0.20874,-0.51025 0.30151,-1.13647 0.32471,-0.0232 0.3479,-0.30151 0.0464,-0.30152 0.0928,-0.53345 0.3479,-0.32471 0.51025,-0.76538 0.18555,-0.44068 0.32471,-0.90454 0.13916,-0.48706 0.30151,-0.95093 0.18555,-0.48706 0.51026,-0.85816 l 0,-0.0696 q 0,-0.11596 -0.0928,-0.13916 -0.0928,-0.0464 -0.0928,-0.16235 0.0232,-0.0232 0.0232,-0.0464 0.27832,-0.11596 0.41748,-0.37109 0.13916,-0.27832 0.41748,-0.39429 0.48706,0.39429 0.85816,0.48706 0.37109,0.0696 0.97412,0.11597 0.30151,0.32471 0.32471,0.78857 0.0464,0.44068 0.16235,0.88135 0.18555,0.74219 0.39429,1.46118 0.23193,0.6958 0.3479,1.43799 0.0696,0.44068 0.25512,0.83496 0.18555,0.39429 0.25513,0.81177 0.0464,0.32471 0,0.74219 -0.0464,0.39429 0.0928,0.6958 l 0.16236,0.37109 q 0.11596,0.25513 0.18554,0.53345 0.0928,0.27832 0.16236,0.55664 0.18555,0.6958 0.32471,1.50757 0.16235,0.78857 0.48706,1.43799 0.11596,0.23193 0.3479,0.3247 0.25512,0.0928 0.55664,0.13916 0.30151,0.0232 0.57983,0.0232 0.30151,-0.0232 0.51025,-0.0232 l 0.23194,0 q 0.13916,0 0.27832,0.0464 0.0928,0.18555 0.0928,0.32471 0,0.27832 -0.18554,0.44067 -0.18555,0.16236 -0.18555,0.3711 0,0.11596 0.0928,0.25512 -0.0928,-0.0232 -0.27832,-0.0232 -0.53345,0 -1.0437,0.18555 0.18555,0.39428 0.48706,0.6726 0.32471,0.25513 0.67261,0.48706 0.23193,-0.18554 0.48706,-0.18554 0.27832,0 0.51025,0.13916 0.25513,0.11596 0.53345,0.11596 0.20874,0 0.30151,-0.0696 0.18555,0.20874 0.30152,0.44068 0.11596,0.20874 0.30151,0.39429 z m -7.25952,-3.71094 q -0.0464,-0.39429 -0.16235,-0.55664 -0.0928,-0.18555 -0.16236,-0.44068 -0.0928,-0.3247 -0.13916,-0.6958 -0.0232,-0.37109 -0.0928,-0.71899 -0.16235,-0.78858 -0.37109,-1.57715 -0.18555,-0.78857 -0.48707,-1.53076 0.0928,-0.13916 0.0928,-0.25513 l 0,-0.0696 q -0.20874,-0.23193 -0.30152,-0.55664 -0.0928,-0.3479 -0.18554,-0.67261 -0.0696,-0.3479 -0.20874,-0.62622 -0.11597,-0.30151 -0.39429,-0.48706 -0.0696,0.13916 -0.0696,0.32471 0,0.16235 0.0232,0.30151 0.0464,0.13916 0.0464,0.30152 -0.23193,0.11596 -0.3479,0.37109 -0.0928,0.23193 -0.32471,0.37109 -0.18554,0.74219 -0.53344,1.4148 -0.3479,0.64941 -0.74219,1.29883 -0.3711,0.64941 -0.719,1.32202 -0.3479,0.64941 -0.55664,1.36841 -0.30151,0.20874 -0.41748,0.53344 -0.0928,0.32471 -0.0928,0.64942 0.20874,0.11596 0.46387,0.13916 0.27832,0 0.53344,0 0.25513,0 0.48706,0.0464 0.23194,0.0464 0.41748,0.23194 0.30152,-0.0928 0.64942,-0.11597 0.37109,-0.0464 0.60303,-0.20874 0.46386,0.16235 0.99731,0.16235 0.27832,0 0.53345,-0.0464 0.27832,-0.0464 0.53345,-0.11597 0.20874,0.0464 0.3247,0.16235 0.11597,0.0928 0.3479,0.0696 0.11597,-0.0928 0.13916,-0.18554 0.0232,-0.11597 0.11597,-0.20874 z"
         style="font-size:23.75px"
         id="path4171" />
      <path
         d="m -704.86884,422.32385 q 0,0.32471 -0.0232,0.64942 -0.0232,0.3247 -0.0696,0.64941 -0.16235,0.23193 -0.32471,0.41748 -0.13916,0.16235 -0.18554,0.41748 -0.25513,0.18555 -0.57984,0.51026 -0.30151,0.3247 -0.25512,0.64941 l -0.32471,0 q -0.27832,0.41748 -0.64941,0.71899 -0.3711,0.30152 -0.78858,0.57984 l -0.81177,0.53344 q -0.39428,0.25513 -0.74218,0.60303 -0.18555,0.0232 -0.30152,0.0696 -0.11596,0.0464 -0.30151,0.0232 -0.719,0.46386 -1.50757,0.81176 -0.76538,0.3479 -1.55395,0.6958 -0.76539,0.32471 -1.53077,0.6958 -0.76538,0.3711 -1.46118,0.85816 -0.0696,-0.0232 -0.18555,-0.0232 -0.20874,0 -0.41748,0.0696 -0.20874,0.0464 -0.41748,0.0464 -0.0928,0 -0.25512,-0.0232 -0.13916,-0.0232 -0.20874,-0.0696 -0.11597,-0.0696 -0.20874,-0.20874 -0.0928,-0.13916 -0.13916,-0.30151 -0.0464,-0.18555 -0.0696,-0.34791 -0.0232,-0.16235 -0.0232,-0.27832 0,-0.13916 0.0232,-0.30151 0.0232,-0.16235 0.0696,-0.30151 0.6726,-0.0464 1.34521,-0.3479 0.6958,-0.30152 1.32202,-0.57984 0.16236,-0.0696 0.25513,-0.16235 0.11597,-0.11597 0.23193,-0.18555 0.11597,-0.0928 0.25513,-0.16235 0.13916,-0.0696 0.3479,-0.0696 l 0.0696,0 q 1.46118,-0.67261 2.85278,-1.46118 1.4148,-0.78858 2.8064,-1.60034 0.0696,-0.20874 0.20874,-0.41749 0.16235,-0.20874 0.30151,-0.39428 0.13916,-0.20874 0.25513,-0.41748 0.11597,-0.20874 0.11597,-0.41748 0,-0.41748 -0.39429,-0.6958 l -0.0928,0 q -0.27832,0 -0.48706,-0.0696 -0.20874,-0.0928 -0.39429,-0.16236 -0.18555,-0.0928 -0.41748,-0.13916 -0.23193,-0.0696 -0.53345,-0.0464 -0.11596,-0.0928 -0.37109,-0.16236 -0.25513,-0.0696 -0.41748,-0.0696 -0.83496,0 -1.64673,0.11597 -0.81177,0.0928 -1.62354,0.11597 -0.20874,0.11596 -0.39428,0.20874 -0.18555,0.0928 -0.44068,0.0928 -0.11596,0 -0.20874,0 -0.0928,-0.0232 -0.20874,-0.0464 -0.44067,0.18555 -0.99731,0.32471 -0.55664,0.11597 -1.11328,0.30151 -0.53345,0.16236 -0.99732,0.41748 -0.46386,0.25513 -0.71899,0.6958 0,0.11597 0.0464,0.20874 0.0464,0.0696 0.0464,0.18555 l 0,0.0928 q -0.13916,0.13916 -0.18554,0.3247 -0.0464,0.16236 -0.0696,0.3479 -0.0232,0.16236 -0.0696,0.3479 -0.0232,0.16236 -0.16235,0.32471 0.0928,0.3479 0.0928,0.76538 0,0.46387 -0.0696,0.92774 -0.0464,0.46386 -0.0464,0.92773 0,0.44067 0.0928,0.78857 -0.13916,0.13916 -0.11597,0.41748 0.0232,0.27832 -0.11596,0.41748 0,0.18555 0.0928,0.25513 0.11597,0.0696 0.13916,0.23194 -0.0928,0.39428 -0.0928,0.85815 0,0.67261 0.13916,1.36841 0.16235,0.6958 0.37109,1.36841 0.3711,-0.11597 0.78858,-0.18555 0.44067,-0.0928 0.83496,-0.0928 0.0696,0 0.13916,0.0232 0.0696,0 0.13916,0 0.0464,0.25513 0.18554,0.46387 0.13916,0.20874 0.25513,0.46386 -0.11597,0.16236 -0.20874,0.25513 -0.0696,0.11597 -0.0696,0.30151 -0.32471,0.0232 -0.53345,0.16236 -0.20874,0.16235 -0.46386,0.3479 l -0.0928,0 q -0.39428,0 -0.64941,0.13916 -0.25513,0.16235 -0.57984,0.3479 -0.27832,-0.11597 -0.55664,-0.11597 -0.30151,0 -0.60302,0.11597 -0.3711,-0.16236 -0.60303,-0.51026 -0.23193,-0.3247 -0.39429,-0.74218 -0.16235,-0.39429 -0.30151,-0.81177 -0.11597,-0.41748 -0.27832,-0.76538 l 0,-0.3711 q 0,-0.53344 -0.0928,-1.0205 -0.0696,-0.51026 -0.0696,-1.0437 0,-0.20874 0.0232,-0.44068 0.0464,-0.23193 0.13916,-0.44067 -0.0464,-0.20874 -0.0464,-0.39429 l 0,-0.44067 q 0,-0.6958 0.0464,-1.3916 0.0696,-0.69581 0.0696,-1.39161 0,-0.51025 -0.0696,-1.0437 -0.11597,0.0464 -0.20874,0.0928 -0.0928,0.0464 -0.20874,0.0464 -0.11597,0 -0.23194,-0.0232 -0.0928,-0.0232 -0.18554,-0.0464 -0.23194,-0.20874 -0.32471,-0.51025 -0.0928,-0.30151 -0.25513,-0.55664 0,-0.44068 0.13916,-0.719 0.11597,-0.30151 0.30152,-0.53344 0.18554,-0.25513 0.37109,-0.48706 0.20874,-0.23194 0.3479,-0.57984 l 0.0928,0 q 0.37109,0 0.74218,-0.23193 0.3711,-0.25513 0.83496,-0.25513 0.16236,-0.20874 0.44068,-0.3479 0.27832,-0.16235 0.57983,-0.25513 0.32471,-0.0928 0.62622,-0.11596 0.32471,-0.0464 0.60303,-0.0464 0.0928,-0.16235 0.27832,-0.20874 0.18555,-0.0696 0.37109,-0.11597 0.20874,-0.0696 0.3711,-0.11596 0.18554,-0.0696 0.30151,-0.23194 0.18555,0.0464 0.3479,0.0464 0.30151,0 0.57984,-0.0696 0.27832,-0.0928 0.55664,-0.18555 0.27832,-0.11596 0.55664,-0.20874 0.30151,-0.0928 0.62622,-0.0928 0.11596,0 0.23193,0.0232 0.11597,0 0.23193,0 0.18555,0 0.20874,-0.13916 0.0464,-0.13916 0.16236,-0.20874 0.0696,0.0232 0.25513,0.0232 0.46386,0 0.90454,-0.0696 0.44067,-0.0928 0.90454,-0.0928 0.20874,0 0.41748,0.0232 0.20874,0.0232 0.41748,0.11596 0.0464,-0.0696 0.0928,-0.11596 0.0464,-0.0464 0.0696,-0.11597 1.13648,0.0696 2.13379,0.46387 1.02051,0.39428 2.1106,0.6958 0.13916,0.20874 0.3247,0.37109 l 0.39429,0.32471 q 0.20874,0.16235 0.39429,0.32471 0.18554,0.16235 0.3247,0.39428 l 0,0.3479 z"
         style="font-size:23.75px"
         id="path4173" />
      <path
         d="m -689.42206,420.46838 0,0.0928 q -0.16235,0.0464 -0.16235,0.23193 -0.25513,0.11597 -0.53345,0.18555 -0.27832,0.0464 -0.53345,0.16235 -0.25512,-0.0232 -0.53344,-0.0232 -0.25513,-0.0232 -0.51026,-0.0232 -0.6958,0 -1.3916,0.0464 -0.6958,0.0464 -1.3916,0 -0.32471,0.18555 -0.71899,0.30151 -0.3711,0.0928 -0.719,0.0928 -0.27832,0 -0.48706,-0.0696 -0.55664,0.27832 -1.22925,0.46387 -0.64941,0.18554 -1.32202,0.37109 -0.67261,0.16235 -1.29883,0.39429 -0.60302,0.20874 -1.06689,0.60302 -0.0464,0.32471 -0.0696,0.64942 -0.0232,0.30151 -0.0232,0.60303 0,0.3247 0.0232,0.60302 0.0464,0.27832 0.16235,0.55664 0.11597,0.0464 0.25513,0.0696 0.16235,0.0232 0.27832,0.0232 0.11597,0 0.23193,-0.0232 0.11597,-0.0464 0.16236,-0.16235 0.3479,-0.0464 0.6958,-0.0232 0.3479,0 0.6958,0 0.3479,0 0.67261,-0.0232 0.3479,-0.0232 0.6726,-0.11596 0.3711,-0.0928 0.719,-0.11597 0.37109,-0.0232 0.71899,-0.0464 0.3479,-0.0232 0.719,-0.0696 0.37109,-0.0696 0.76538,-0.25512 0.30151,0.11596 0.60302,0.11596 0.32471,0 0.62622,0.0464 0.16236,0.11597 0.25513,0.25513 0.11597,0.13916 0.11597,0.3247 0,0.32471 -0.23194,0.64942 -0.23193,0.3247 -0.37109,0.60302 l -0.25513,0 q -0.55664,0 -1.09008,0.16236 -0.51026,0.13916 -1.04371,0.3479 -0.51025,0.18555 -1.0437,0.3479 -0.51025,0.13916 -1.06689,0.13916 -0.0928,0 -0.11597,0.11597 0,0.0928 -0.0464,0.13916 -0.11597,-0.0232 -0.34791,-0.0232 -0.53344,0 -1.0205,0.11597 -0.48706,0.11597 -0.99732,0.11597 -0.13916,0 -0.27832,0 -0.13916,-0.0232 -0.27832,-0.0464 -0.11596,0.18555 -0.30151,0.25513 -0.18555,0.0464 -0.3479,0.18554 -0.0696,0.20874 -0.0928,0.51026 0,0.30151 -0.0232,0.62622 0,0.30151 -0.0464,0.57983 -0.0464,0.27832 -0.18554,0.44068 0.0232,0.11596 0.18554,0.0928 0.16236,-0.0464 0.16236,0.13916 0,0.20874 -0.0464,0.44067 -0.0464,0.23194 -0.0464,0.46387 0,0.44067 0.0928,0.97412 0.11596,0.51026 0.3247,0.95093 0.23194,0.44067 0.60303,0.74219 0.3711,0.27832 0.92774,0.27832 0.37109,0 0.6958,-0.13916 0.3247,-0.13916 0.53344,-0.46387 l 0.11597,-0.0232 q 0.0928,0 0.16236,0.0232 0.0928,0.0232 0.18554,0.0232 0.13916,0 0.3479,-0.16235 0.23194,-0.18555 0.48706,-0.41748 0.27832,-0.23193 0.55664,-0.44067 0.27832,-0.23194 0.53345,-0.32471 0.16235,-0.32471 0.30151,-0.64942 0.16236,-0.3247 0.46387,-0.51025 l 0,-0.67261 q 0.23194,-0.25512 0.48706,-0.46386 0.27832,-0.20874 0.41748,-0.53345 0.11597,0.0464 0.20874,0.0696 0.11597,0.0232 0.23194,0.0232 0.11596,0 0.23193,-0.0232 0.13916,-0.0232 0.25513,-0.0696 0.18554,0.25513 0.27832,0.57983 0.11596,0.30152 0.27832,0.57984 -0.20874,0.41748 -0.48706,0.99731 -0.27832,0.57983 -0.60303,1.15967 -0.32471,0.57983 -0.6958,1.11328 -0.3479,0.51025 -0.6958,0.78857 -0.0696,0.0696 -0.30152,0.16236 -0.25512,0.18554 -0.46386,0.3479 -0.20874,0.18554 -0.39429,0.41748 -0.67261,0.20874 -1.29883,0.55664 -0.60303,0.3479 -1.20605,0.67261 -0.27832,-0.0696 -0.60303,-0.0696 -0.27832,0 -0.55664,0.0232 -0.27832,0.0464 -0.60303,0.0464 -0.0928,-0.11597 -0.27832,-0.16236 -0.16235,-0.0232 -0.11597,-0.23193 -0.78857,-0.0464 -1.27563,-0.44067 -0.48706,-0.3711 -0.83496,-0.92774 -0.32471,-0.55664 -0.53345,-1.20605 -0.20874,-0.64942 -0.44067,-1.25244 l 0,-0.0696 q 0,-0.11596 0.0928,-0.13916 0.0928,-0.0232 0.0928,-0.13916 0,-0.0464 -0.0232,-0.0696 -0.0696,-0.25512 -0.11597,-0.44067 -0.0464,-0.18555 -0.0464,-0.44067 0,-0.3711 0.0464,-0.719 0.0464,-0.37109 0.0464,-0.74218 0,-0.3711 -0.0928,-0.64942 0.0928,-0.11597 0.16235,-0.30151 0.0464,-0.20874 0.0696,-0.41748 0.0232,-0.20874 0.0232,-0.41748 0.0232,-0.20874 0.0696,-0.3711 -0.0928,-0.25512 -0.16236,-0.44067 -0.0696,-0.20874 -0.0696,-0.48706 l 0,-0.16236 q 0.23194,-0.39428 0.39429,-0.81176 0.16235,-0.41748 0.3479,-0.85816 l 0,-0.0696 q 0,-0.6726 -0.0464,-1.34521 -0.0464,-0.67261 -0.0464,-1.34522 l 0,-0.44067 q 0,-0.23193 0.0232,-0.44067 0.18555,-0.0928 0.27832,-0.25513 0.0928,-0.16235 0.27832,-0.25513 l 0.76538,0 0.13916,-0.23193 q 0.0696,-0.11597 0.0928,-0.25513 0.25513,-0.0696 0.48706,-0.18555 0.25513,-0.13916 0.46387,-0.27832 0.32471,-0.18554 0.57984,-0.3247 0.27832,-0.16236 0.53344,-0.25513 0.27832,-0.11597 0.57984,-0.18555 0.30151,-0.0696 0.6958,-0.11596 0.18554,0 0.23193,-0.0696 0.0696,-0.0696 0.18555,-0.16236 0.27832,0.0464 0.55664,0.0928 0.27832,0.0232 0.55664,0.0232 0.55664,0 1.0437,-0.20874 0.6958,0 1.36841,-0.0232 0.6958,-0.0232 1.3916,-0.0232 0.60303,0 1.20606,0.0464 0.60302,0.0464 1.18286,0.16235 0.20874,-0.0696 0.46386,-0.0696 0.27832,0 0.55664,0.0696 0.30152,0.0464 0.57984,0 0.0232,0.25513 0.11597,0.44068 0.11596,0.16235 0.11596,0.39428 z"
         style="font-size:23.75px"
         id="path4175" />
      <path
         d="m -677.87177,429.25867 q 0,0.25512 -0.18554,0.39428 -0.18555,0.11597 -0.18555,0.32471 0,0.0928 0.0928,0.23193 -0.3247,0 -0.44067,0.20874 -0.11597,0.20875 -0.23193,0.46387 l -0.30152,0 q -0.11596,0 -0.18554,0.0464 -0.0696,0.0464 -0.13916,0.13916 -0.0464,0.0696 -0.13916,0.23193 -0.44068,0.0928 -0.85816,0.30152 -0.39429,0.18554 -0.78857,0.41748 -0.3711,0.20874 -0.76538,0.44067 -0.39429,0.20874 -0.81177,0.3479 -0.20874,0.3479 -0.60303,0.55664 l -0.0696,0 q -0.11596,0.0232 -0.20874,-0.0232 -0.0696,-0.0696 -0.18555,-0.0696 -0.0696,0 -0.0928,0.0232 -0.6958,0.46387 -1.55395,0.46387 -0.23194,0 -0.44068,-0.0232 -0.20874,-0.0464 -0.44067,-0.0464 -0.0696,0 -0.0928,0.0464 l -0.0464,0.0928 q -0.0232,0.0464 -0.0696,0.0928 -0.0232,0.0464 -0.16236,0.0464 -0.25512,0 -0.51025,-0.0696 -0.25513,-0.0696 -0.53345,-0.0232 -0.53344,-0.30152 -0.83496,-0.57984 -0.30151,-0.27832 -0.55664,-0.83496 -0.11596,-0.25513 -0.3247,-0.48706 -0.18555,-0.23193 -0.27833,-0.51025 -0.0232,-0.0928 -0.0696,-0.32471 -0.0464,-0.25513 -0.0928,-0.53345 -0.0464,-0.27832 -0.0928,-0.53345 -0.0232,-0.25512 -0.0232,-0.3479 0,-0.27832 0.0232,-0.53344 0.0464,-0.27832 0.0928,-0.55664 0.13916,-0.88135 0.18555,-1.7627 0.0696,-0.90454 0.39429,-1.7395 -0.0464,-0.25513 -0.0464,-0.48706 l 0,-0.51026 q 0,-0.44067 -0.11597,-0.74218 0.18555,-0.30152 0.18555,-0.67261 0,-0.41748 -0.3479,-0.48706 l 0,-0.0696 q 0,-0.48706 -0.32471,-0.76538 0,-0.81177 0.39429,-1.20606 0.41748,-0.41748 1.09009,-0.71899 0.0928,-0.13916 0.0696,-0.23193 0.16235,0.0464 0.30151,0.0928 0.13916,0.0464 0.27832,0.0464 0.23193,0 0.41748,-0.0696 0.0696,0.27832 0.3479,0.3479 0.30151,0.0464 0.48706,0.13916 l 0,0.30151 q 0,0.71899 0.3479,1.36841 -0.0928,0.18555 -0.11596,0.39429 -0.0232,0.20874 -0.0232,0.39428 0,0.27832 0.0232,0.55664 0.0232,0.27832 0.0232,0.53345 0,0.27832 -0.0696,0.55664 -0.0464,0.27832 -0.25513,0.48706 -0.0232,0.30152 -0.0464,0.6958 0,0.3711 -0.0464,0.76538 -0.0232,0.39429 -0.11597,0.76538 -0.0928,0.3711 -0.27832,0.60303 -0.0232,0.3479 -0.0464,0.719 0,0.3479 0,0.6726 0,0.51026 0.0464,1.20606 0.0696,0.6958 0.32471,1.15967 0.11596,0.18554 0.44067,0.27832 0.3479,0.0928 0.55664,0.0928 0.25513,0 0.51026,-0.0696 0.27832,-0.0928 0.39428,-0.30151 0.13916,0.0232 0.18555,0.13916 0.0464,0.11596 0.16235,0.18554 1.32203,-0.55664 2.64405,-1.06689 1.32202,-0.51026 2.59765,-1.18286 0.18555,0.0928 0.39429,0.0928 0.23193,0 0.46387,-0.0464 0.23193,-0.0464 0.46386,-0.0464 l 0.16236,0 q 0.0464,0.13916 0.0464,0.20874 z"
         style="font-size:23.75px"
         id="path4177" />
    </g>
  </g>
</svg>
