<?xml version="1.0" encoding="UTF-8" standalone="no"?>
<!-- Created with Inkscape (http://www.inkscape.org/) -->

<svg
   xmlns:dc="http://purl.org/dc/elements/1.1/"
   xmlns:cc="http://creativecommons.org/ns#"
   xmlns:rdf="http://www.w3.org/1999/02/22-rdf-syntax-ns#"
   xmlns:svg="http://www.w3.org/2000/svg"
   xmlns="http://www.w3.org/2000/svg"
   xmlns:sodipodi="http://sodipodi.sourceforge.net/DTD/sodipodi-0.dtd"
   xmlns:inkscape="http://www.inkscape.org/namespaces/inkscape"
   width="75.313232mm"
   height="43.085743mm"
   viewBox="0 0 266.85789 152.66602"
   id="svg4340"
   version="1.1"
   inkscape:version="0.91 r13725"
   sodipodi:docname="cta-black.svg">
  <defs
     id="defs4342" />
  <sodipodi:namedview
     id="base"
     pagecolor="#ffffff"
     bordercolor="#666666"
     borderopacity="1.0"
     inkscape:pageopacity="0.0"
     inkscape:pageshadow="2"
     inkscape:zoom="2.3441015"
     inkscape:cx="87.956527"
     inkscape:cy="104.44702"
     inkscape:document-units="px"
     inkscape:current-layer="layer1"
     showgrid="false"
     fit-margin-top="0"
     fit-margin-left="0"
     fit-margin-right="0"
     fit-margin-bottom="0"
     inkscape:window-width="1440"
     inkscape:window-height="851"
     inkscape:window-x="0"
     inkscape:window-y="0"
     inkscape:window-maximized="1" />
  <metadata
     id="metadata4345">
    <rdf:RDF>
      <cc:Work
         rdf:about="">
        <dc:format>image/svg+xml</dc:format>
        <dc:type
           rdf:resource="http://purl.org/dc/dcmitype/StillImage" />
        <dc:title></dc:title>
      </cc:Work>
    </rdf:RDF>
  </metadata>
  <g
     inkscape:label="Layer 1"
     inkscape:groupmode="layer"
     id="layer1"
     transform="translate(-252.2646,-266.87741)">
    <g
       style="font-style:normal;font-weight:normal;font-size:40px;line-height:125%;font-family:Sans;letter-spacing:0px;word-spacing:0px;fill:#000000;fill-opacity:1;stroke:none;stroke-width:1px;stroke-linecap:butt;stroke-linejoin:miter;stroke-opacity:1"
       id="text4888">
      <path
         d="m 259.29584,306.64792 -7.03125,-39.375 5.625,0 2.8125,18.28125 1.42822,11.25 1.38428,-11.25 2.8125,-18.28125 5.625,0 2.8125,18.28125 1.38427,11.25 1.42823,-11.25 2.8125,-18.28125 5.625,0 -7.03125,39.375 -5.625,0 -2.8125,-18.28125 -1.40625,-11.25 -1.40625,11.25 -2.8125,18.28125 -5.625,0 z"
         style="font-style:normal;font-variant:normal;font-weight:normal;font-stretch:normal;font-size:45px;font-family:Oswald;-inkscape-font-specification:Oswald;text-align:end;text-anchor:end"
         id="path4216" />
      <path
         d="m 289.11273,306.64792 0,-39.375 5.625,0 0,16.875 9.84375,0 0,-16.875 5.625,0 0,39.375 -5.625,0 0,-18.28125 -9.84375,0 0,18.28125 -5.625,0 z"
         style="font-style:normal;font-variant:normal;font-weight:normal;font-stretch:normal;font-size:45px;font-family:Oswald;-inkscape-font-specification:Oswald;text-align:end;text-anchor:end"
         id="path4218" />
      <path
         d="m 315.83148,306.64792 0,-39.375 15.46875,0 0,4.21875 -9.84375,0 0,12.65625 7.03125,0 0,4.21875 -7.03125,0 0,14.0625 9.84375,0 0,4.21875 -15.46875,0 z"
         style="font-style:normal;font-variant:normal;font-weight:normal;font-stretch:normal;font-size:45px;font-family:Oswald;-inkscape-font-specification:Oswald;text-align:end;text-anchor:end"
         id="path4220" />
      <path
         d="m 340.35297,284.14792 1.40625,0 q 3.51562,0 5.27343,-1.47217 1.75782,-1.49414 1.75782,-4.85596 0,-3.36181 -1.75782,-4.83398 -1.75781,-1.49414 -5.27343,-1.49414 l -1.40625,0 0,12.65625 z m -5.625,22.5 0,-39.375 7.03125,0 q 6.28418,0 9.47021,2.43896 3.18604,2.43897 3.18604,8.10791 0,3.51563 -1.25245,5.88868 -1.25244,2.37304 -3.66943,3.25195 l 6.32813,19.6875 -5.58106,0 -5.66894,-18.28125 -4.21875,0 0,18.28125 -5.625,0 z"
         style="font-style:normal;font-variant:normal;font-weight:normal;font-stretch:normal;font-size:45px;font-family:Oswald;-inkscape-font-specification:Oswald;text-align:end;text-anchor:end"
         id="path4222" />
      <path
         d="m 359.07367,306.64792 0,-39.375 15.46875,0 0,4.21875 -9.84375,0 0,12.65625 7.03125,0 0,4.21875 -7.03125,0 0,14.0625 9.84375,0 0,4.21875 -15.46875,0 z"
         style="font-style:normal;font-variant:normal;font-weight:normal;font-stretch:normal;font-size:45px;font-family:Oswald;-inkscape-font-specification:Oswald;text-align:end;text-anchor:end"
         id="path4224" />
      <path
         d="m 387.11078,306.64792 0,-39.375 8.72314,0 q 6.17432,0 8.70118,2.52685 2.54882,2.52686 2.54882,8.72315 l 0,15.46875 q 0,6.48193 -2.59277,9.58008 -2.5708,3.07617 -8.70117,3.07617 l -8.6792,0 z m 5.625,-4.21875 3.09814,0 q 1.38428,0 2.37305,-0.2417 0.98877,-0.26367 1.604,-0.92285 0.61524,-0.68115 0.9668,-1.27442 0.35156,-0.61523 0.4834,-1.88964 0.15381,-1.27442 0.17578,-2.08741 0.022,-0.83496 0.022,-2.5708 0,-0.57129 0,-0.85693 l 0,-12.65625 q 0,-1.07666 -0.022,-1.71387 0,-0.63721 -0.0659,-1.49414 -0.0439,-0.87891 -0.15381,-1.38428 -0.10986,-0.50537 -0.30761,-1.1206 -0.19776,-0.63721 -0.50537,-0.98877 -0.28565,-0.35156 -0.7251,-0.7251 -0.41748,-0.39551 -0.98877,-0.57129 -0.54932,-0.19775 -1.29639,-0.30762 -0.74707,-0.13183 -1.66992,-0.13183 l -2.98828,0 0,30.9375 z"
         style="font-style:normal;font-variant:normal;font-weight:normal;font-stretch:normal;font-size:45px;font-family:Oswald;-inkscape-font-specification:Oswald;text-align:end;text-anchor:end"
         id="path4226" />
      <path
         d="m 422.13519,307.04343 q -2.96631,0 -5.09765,-0.90088 -2.10938,-0.90088 -3.36182,-2.63672 -1.25244,-1.73584 -1.82373,-4.06494 -0.57129,-2.35108 -0.57129,-5.44922 l 0,-14.28223 q 0,-3.09814 0.57129,-5.40527 0.57129,-2.30713 1.82373,-3.99902 1.25244,-1.71387 3.36182,-2.57081 2.13134,-0.85693 5.09765,-0.85693 5.75684,0 8.30567,3.2959 2.54883,3.2959 2.54883,9.53613 l 0,14.28223 q 0,3.0542 -0.59327,5.40527 -0.57129,2.3291 -1.82373,4.08692 -1.25244,1.73584 -3.38379,2.65869 -2.10937,0.90088 -5.05371,0.90088 z m -4.10888,-6.39405 q 1.14257,1.77979 4.10888,1.77979 2.96631,0 4.08692,-1.77979 1.14258,-1.77978 1.14258,-5.25146 l 0,-17.09473 q 0,-3.42773 -1.12061,-5.11963 -1.12061,-1.69189 -4.10889,-1.69189 -2.98828,0 -4.10888,1.69189 -1.12061,1.6919 -1.12061,5.11963 l 0,17.09473 q 0,3.47168 1.12061,5.25146 z"
         style="font-style:normal;font-variant:normal;font-weight:normal;font-stretch:normal;font-size:45px;font-family:Oswald;-inkscape-font-specification:Oswald;text-align:end;text-anchor:end"
         id="path4228" />
      <path
         d="m 452.61127,306.64792 0,-12.65625 -8.4375,-26.71875 5.625,0 5.625,19.6875 5.625,-19.6875 5.625,0 -8.4375,26.71875 0,12.65625 -5.625,0 z"
         style="font-style:normal;font-variant:normal;font-weight:normal;font-stretch:normal;font-size:45px;font-family:Oswald;-inkscape-font-specification:Oswald;text-align:end;text-anchor:end"
         id="path4230" />
      <path
         d="m 479.08832,307.04343 q -2.96631,0 -5.09766,-0.90088 -2.10937,-0.90088 -3.36181,-2.63672 -1.25245,-1.73584 -1.82374,-4.06494 -0.57128,-2.35108 -0.57128,-5.44922 l 0,-14.28223 q 0,-3.09814 0.57128,-5.40527 0.57129,-2.30713 1.82374,-3.99902 1.25244,-1.71387 3.36181,-2.57081 2.13135,-0.85693 5.09766,-0.85693 5.75683,0 8.30566,3.2959 2.54883,3.2959 2.54883,9.53613 l 0,14.28223 q 0,3.0542 -0.59326,5.40527 -0.57129,2.3291 -1.82373,4.08692 -1.25244,1.73584 -3.38379,2.65869 -2.10938,0.90088 -5.05371,0.90088 z m -4.10889,-6.39405 q 1.14258,1.77979 4.10889,1.77979 2.96631,0 4.08691,-1.77979 1.14258,-1.77978 1.14258,-5.25146 l 0,-17.09473 q 0,-3.42773 -1.12061,-5.11963 -1.1206,-1.69189 -4.10888,-1.69189 -2.98828,0 -4.10889,1.69189 -1.1206,1.6919 -1.1206,5.11963 l 0,17.09473 q 0,3.47168 1.1206,5.25146 z"
         style="font-style:normal;font-variant:normal;font-weight:normal;font-stretch:normal;font-size:45px;font-family:Oswald;-inkscape-font-specification:Oswald;text-align:end;text-anchor:end"
         id="path4232" />
      <path
         d="m 510.33344,306.38425 q -1.95557,0.68115 -4.52637,0.68115 -2.5708,0 -4.52637,-0.68115 -1.95557,-0.68116 -3.22998,-1.88965 -1.25244,-1.23047 -2.04346,-3.07617 -0.79101,-1.84571 -1.1206,-3.97705 -0.32959,-2.15332 -0.32959,-4.85596 l 0,-25.3125 5.625,0 0,25.3125 q 0,1.82373 0.0659,3.0542 0.0879,1.23047 0.41748,2.63672 0.32959,1.38427 0.90088,2.21923 0.59326,0.83497 1.64794,1.38428 1.07666,0.54932 2.59278,0.54932 1.51611,0 2.5708,-0.54932 1.07666,-0.54931 1.64795,-1.38428 0.59326,-0.83496 0.92285,-2.21923 0.32959,-1.40625 0.39551,-2.63672 0.0879,-1.23047 0.0879,-3.0542 l 0,-25.3125 5.625,0 0,25.3125 q 0,2.70264 -0.32959,4.85596 -0.32959,2.13134 -1.12061,3.97705 -0.79101,1.8457 -2.06543,3.07617 -1.25244,1.20849 -3.208,1.88965 z"
         style="font-style:normal;font-variant:normal;font-weight:normal;font-stretch:normal;font-size:45px;font-family:Oswald;-inkscape-font-specification:Oswald;text-align:end;text-anchor:end"
         id="path4234" />
      <path
         d="m 333.40961,362.89792 0,-39.375 15.46875,0 0,4.21875 -9.84375,0 0,12.65625 7.03125,0 0,4.21875 -7.03125,0 0,18.28125 -5.625,0 z"
         style="font-style:normal;font-variant:normal;font-weight:normal;font-stretch:normal;font-size:45px;font-family:Oswald;-inkscape-font-specification:Oswald;text-align:end;text-anchor:end"
         id="path4236" />
      <path
         d="m 351.69086,362.89792 0,-39.375 5.625,0 0,39.375 -5.625,0 z"
         style="font-style:normal;font-variant:normal;font-weight:normal;font-stretch:normal;font-size:45px;font-family:Oswald;-inkscape-font-specification:Oswald;text-align:end;text-anchor:end"
         id="path4238" />
      <path
         d="m 363.38031,362.89792 0,-39.375 4.21875,0 9.84375,24.3457 0,-24.3457 5.625,0 0,39.375 -3.99902,0 -10.06348,-26.19141 0,26.19141 -5.625,0 z"
         style="font-style:normal;font-variant:normal;font-weight:normal;font-stretch:normal;font-size:45px;font-family:Oswald;-inkscape-font-specification:Oswald;text-align:end;text-anchor:end"
         id="path4240" />
      <path
         d="m 388.69281,362.89792 0,-39.375 8.72314,0 q 6.17432,0 8.70118,2.52685 2.54882,2.52686 2.54882,8.72315 l 0,15.46875 q 0,6.48193 -2.59277,9.58008 -2.5708,3.07617 -8.70117,3.07617 l -8.6792,0 z m 5.625,-4.21875 3.09814,0 q 1.38428,0 2.37305,-0.2417 0.98877,-0.26367 1.60401,-0.92285 0.61523,-0.68115 0.96679,-1.27442 0.35156,-0.61523 0.4834,-1.88964 0.15381,-1.27442 0.17578,-2.08741 0.022,-0.83496 0.022,-2.5708 0,-0.57129 0,-0.85693 l 0,-12.65625 q 0,-1.07666 -0.022,-1.71387 0,-0.63721 -0.0659,-1.49414 -0.0439,-0.87891 -0.1538,-1.38428 -0.10987,-0.50537 -0.30762,-1.1206 -0.19776,-0.63721 -0.50537,-0.98877 -0.28565,-0.35156 -0.7251,-0.7251 -0.41748,-0.39551 -0.98877,-0.57129 -0.54932,-0.19775 -1.29639,-0.30762 -0.74707,-0.13183 -1.66992,-0.13183 l -2.98828,0 0,30.9375 z"
         style="font-style:normal;font-variant:normal;font-weight:normal;font-stretch:normal;font-size:45px;font-family:Oswald;-inkscape-font-specification:Oswald;text-align:end;text-anchor:end"
         id="path4242" />
      <path
         d="m 428.26556,362.89792 0,-12.65625 -8.4375,-26.71875 5.625,0 5.625,19.6875 5.625,-19.6875 5.625,0 -8.4375,26.71875 0,12.65625 -5.625,0 z"
         style="font-style:normal;font-variant:normal;font-weight:normal;font-stretch:normal;font-size:45px;font-family:Oswald;-inkscape-font-specification:Oswald;text-align:end;text-anchor:end"
         id="path4244" />
      <path
         d="m 454.74261,363.29343 q -2.9663,0 -5.09765,-0.90088 -2.10938,-0.90088 -3.36182,-2.63672 -1.25244,-1.73584 -1.82373,-4.06494 -0.57129,-2.35108 -0.57129,-5.44922 l 0,-14.28223 q 0,-3.09814 0.57129,-5.40527 0.57129,-2.30713 1.82373,-3.99902 1.25244,-1.71387 3.36182,-2.57081 2.13135,-0.85693 5.09765,-0.85693 5.75684,0 8.30567,3.2959 2.54883,3.2959 2.54883,9.53613 l 0,14.28223 q 0,3.0542 -0.59326,5.40527 -0.57129,2.3291 -1.82374,4.08692 -1.25244,1.73584 -3.38378,2.65869 -2.10938,0.90088 -5.05372,0.90088 z m -4.10888,-6.39405 q 1.14258,1.77979 4.10888,1.77979 2.96631,0 4.08692,-1.77979 1.14258,-1.77978 1.14258,-5.25146 l 0,-17.09473 q 0,-3.42773 -1.12061,-5.11963 -1.1206,-1.69189 -4.10889,-1.69189 -2.98828,0 -4.10888,1.69189 -1.12061,1.6919 -1.12061,5.11963 l 0,17.09473 q 0,3.47168 1.12061,5.25146 z"
         style="font-style:normal;font-variant:normal;font-weight:normal;font-stretch:normal;font-size:45px;font-family:Oswald;-inkscape-font-specification:Oswald;text-align:end;text-anchor:end"
         id="path4246" />
      <path
         d="m 485.98773,362.63425 q -1.95556,0.68115 -4.52637,0.68115 -2.5708,0 -4.52636,-0.68115 -1.95557,-0.68116 -3.22998,-1.88965 -1.25244,-1.23047 -2.04346,-3.07617 -0.79102,-1.84571 -1.12061,-3.97705 -0.32959,-2.15332 -0.32959,-4.85596 l 0,-25.3125 5.625,0 0,25.3125 q 0,1.82373 0.0659,3.0542 0.0879,1.23047 0.41748,2.63672 0.32959,1.38427 0.90088,2.21923 0.59326,0.83497 1.64795,1.38428 1.07666,0.54932 2.59277,0.54932 1.51612,0 2.57081,-0.54932 1.07666,-0.54931 1.64794,-1.38428 0.59327,-0.83496 0.92286,-2.21923 0.32959,-1.40625 0.3955,-2.63672 0.0879,-1.23047 0.0879,-3.0542 l 0,-25.3125 5.625,0 0,25.3125 q 0,2.70264 -0.32959,4.85596 -0.32958,2.13134 -1.1206,3.97705 -0.79102,1.8457 -2.06543,3.07617 -1.25244,1.20849 -3.20801,1.88965 z"
         style="font-style:normal;font-variant:normal;font-weight:normal;font-stretch:normal;font-size:45px;font-family:Oswald;-inkscape-font-specification:Oswald;text-align:end;text-anchor:end"
         id="path4248" />
      <path
         d="m 503.65375,340.39792 1.40625,0 q 3.51562,0 5.27344,-1.47217 1.75781,-1.49414 1.75781,-4.85596 0,-3.36181 -1.75781,-4.83398 -1.75782,-1.49414 -5.27344,-1.49414 l -1.40625,0 0,12.65625 z m -5.625,22.5 0,-39.375 7.03125,0 q 6.28418,0 9.47021,2.43896 3.18604,2.43897 3.18604,8.10791 0,3.51563 -1.25244,5.88868 -1.25245,2.37304 -3.66944,3.25195 l 6.32813,19.6875 -5.58106,0 -5.66894,-18.28125 -4.21875,0 0,18.28125 -5.625,0 z"
         style="font-style:normal;font-variant:normal;font-weight:normal;font-stretch:normal;font-size:45px;font-family:Oswald;-inkscape-font-specification:Oswald;text-align:end;text-anchor:end"
         id="path4250" />
      <path
         d="m 359.77679,419.54343 q -2.48291,0 -4.37255,-0.70313 -1.88965,-0.70312 -3.09815,-1.93359 -1.20849,-1.25244 -1.97754,-3.09815 -0.74707,-1.86767 -1.05469,-3.97705 -0.30761,-2.10937 -0.30761,-4.76806 l 0,-11.22803 q 0,-2.65869 0.30761,-4.76807 0.30762,-2.10937 1.05469,-3.95508 0.76905,-1.86767 1.97754,-3.09814 1.2085,-1.23047 3.09815,-1.93359 1.88964,-0.70313 4.37255,-0.70313 2.74659,0 4.7461,0.81299 1.99951,0.81299 3.18603,2.39502 1.2085,1.58203 1.80176,3.66943 0.61524,2.0874 0.7251,4.87793 0.022,0.41748 0.022,1.29639 l -5.625,0 0,-1.25244 q -0.022,-1.16455 -0.0879,-1.97754 -0.0659,-0.83496 -0.2417,-1.71387 -0.17578,-0.87891 -0.52734,-1.45019 -0.32959,-0.59327 -0.85694,-1.07666 -0.50537,-0.50538 -1.29638,-0.7251 -0.79102,-0.2417 -1.84571,-0.2417 -1.3623,0 -2.35107,0.43945 -0.9668,0.43945 -1.51611,1.14258 -0.54932,0.68115 -0.85694,1.8457 -0.28564,1.16455 -0.37353,2.28516 -0.0879,1.09863 -0.0879,2.72461 l 0,14.0625 q 0,1.40625 0.10986,2.54883 0.13184,1.14257 0.4834,2.28515 0.35156,1.12061 0.90088,1.88965 0.57129,0.76904 1.49414,1.25244 0.94482,0.46143 2.19726,0.46143 1.25245,0 2.15332,-0.4834 0.90088,-0.4834 1.40625,-1.23047 0.52735,-0.74707 0.81299,-1.91162 0.30762,-1.16455 0.39551,-2.26318 0.0879,-1.09864 0.0879,-2.54883 l 0,-1.40625 5.625,0 0,1.40625 q 0,3.0542 -0.54931,5.36133 -0.52735,2.30713 -1.73584,4.08691 -1.18653,1.75781 -3.25196,2.68066 -2.04345,0.92286 -4.94385,0.92286 z"
         style="font-style:normal;font-variant:normal;font-weight:normal;font-stretch:normal;font-size:45px;font-family:Oswald;-inkscape-font-specification:Oswald;text-align:end;text-anchor:end"
         id="path4252" />
      <path
         d="m 379.99164,405.08542 5.625,0 -2.8125,-16.875 -2.8125,16.875 z m -8.4375,14.0625 8.4375,-39.375 5.625,0 8.4375,39.375 -5.625,0 -2.10938,-9.84375 -7.03125,0 -2.10937,9.84375 -5.625,0 z"
         style="font-style:normal;font-variant:normal;font-weight:normal;font-stretch:normal;font-size:45px;font-family:Oswald;-inkscape-font-specification:Oswald;text-align:end;text-anchor:end"
         id="path4254" />
      <path
         d="m 397.2182,419.14792 0,-39.375 5.625,0 0,35.15625 9.84375,0 0,4.21875 -15.46875,0 z"
         style="font-style:normal;font-variant:normal;font-weight:normal;font-stretch:normal;font-size:45px;font-family:Oswald;-inkscape-font-specification:Oswald;text-align:end;text-anchor:end"
         id="path4256" />
      <path
         d="m 415.32367,419.14792 0,-39.375 5.625,0 0,35.15625 9.84375,0 0,4.21875 -15.46875,0 z"
         style="font-style:normal;font-variant:normal;font-weight:normal;font-stretch:normal;font-size:45px;font-family:Oswald;-inkscape-font-specification:Oswald;text-align:end;text-anchor:end"
         id="path4258" />
      <path
         d="m 433.69281,419.14792 0,-39.375 5.625,0 0,39.375 -5.625,0 z"
         style="font-style:normal;font-variant:normal;font-weight:normal;font-stretch:normal;font-size:45px;font-family:Oswald;-inkscape-font-specification:Oswald;text-align:end;text-anchor:end"
         id="path4260" />
      <path
         d="m 445.38226,419.14792 0,-39.375 4.21875,0 9.84375,24.3457 0,-24.3457 5.625,0 0,39.375 -3.99902,0 -10.06348,-26.19141 0,26.19141 -5.625,0 z"
         style="font-style:normal;font-variant:normal;font-weight:normal;font-stretch:normal;font-size:45px;font-family:Oswald;-inkscape-font-specification:Oswald;text-align:end;text-anchor:end"
         id="path4262" />
      <path
         d="m 481.24164,419.54343 q -2.70264,0 -4.70215,-0.76905 -1.97754,-0.76904 -3.22998,-2.0874 -1.25244,-1.31836 -1.99951,-3.36182 -0.74707,-2.04345 -1.03272,-4.30664 -0.28564,-2.26318 -0.28564,-5.20752 l 0,-9.97558 q 0,-14.45801 11.46972,-14.45801 2.74659,0 4.76807,0.83496 2.02149,0.81299 3.27393,2.39502 1.25244,1.58203 1.88965,3.71338 0.6372,2.10938 0.74707,4.8999 0.022,0.39551 0.022,1.2085 l -5.625,0 0,-1.18652 q -0.022,-1.38428 -0.15381,-2.37305 -0.10986,-1.01074 -0.43945,-1.97754 -0.30762,-0.9668 -0.85694,-1.56006 -0.54931,-0.61523 -1.47216,-0.9668 -0.90088,-0.37353 -2.15333,-0.37353 -1.71386,0 -2.90039,0.63721 -1.16455,0.61523 -1.80175,1.82373 -0.61524,1.18652 -0.87891,2.63671 -0.26367,1.42823 -0.26367,3.33985 l 0,12.65625 q 0,1.40625 0.0879,2.54883 0.0879,1.1206 0.28564,2.30713 0.21973,1.16455 0.61524,2.02148 0.41748,0.85693 1.01074,1.56006 0.61523,0.68115 1.51611,1.05469 0.92285,0.35156 2.10938,0.35156 1.40625,0 2.43896,-0.54932 1.03272,-0.54931 1.62598,-1.40625 0.61523,-0.8789 0.9668,-2.21924 0.35156,-1.34033 0.46142,-2.65869 0.13184,-1.31836 0.13184,-3.01025 l 0,-1.40625 -5.625,0 0,-4.17481 11.25,0 0,19.64356 -4.21875,0 -1.40625,-4.21875 q -1.64795,4.61426 -5.625,4.61426 z"
         style="font-style:normal;font-variant:normal;font-weight:normal;font-stretch:normal;font-size:45px;font-family:Oswald;-inkscape-font-specification:Oswald;text-align:end;text-anchor:end"
         id="path4264" />
      <path
         d="m 502.68695,419.14792 0,-5.625 5.625,0 0,5.625 -5.625,0 z m 0,-8.4375 0,-7.03125 q 1.38428,-0.83496 2.39502,-1.53809 1.03272,-0.70312 2.24121,-1.77978 1.23047,-1.09864 1.97754,-2.19727 0.76904,-1.09863 1.29639,-2.59277 0.52734,-1.49414 0.52734,-3.14209 0,-4.21875 -4.21875,-4.21875 -2.37305,0 -3.2959,1.42822 -0.92285,1.40625 -0.92285,4.19678 l -5.625,0 0,-1.40625 q 0,-4.81201 2.52686,-7.3169 2.54882,-2.52685 7.31689,-2.52685 4.81201,0 7.33887,2.54883 2.52685,2.52685 2.52685,7.29492 0,4.6582 -2.24121,7.7124 -2.21924,3.03223 -6.21826,4.94385 l 0,5.625 -5.625,0 z"
         style="font-style:normal;font-variant:normal;font-weight:normal;font-stretch:normal;font-size:45px;font-family:Oswald;-inkscape-font-specification:Oswald;text-align:end;text-anchor:end"
         id="path4266" />
    </g>
  </g>
</svg>
