<?xml version="1.0" encoding="UTF-8" standalone="no"?>
<!-- Created with Inkscape (http://www.inkscape.org/) -->

<svg
   xmlns:dc="http://purl.org/dc/elements/1.1/"
   xmlns:cc="http://creativecommons.org/ns#"
   xmlns:rdf="http://www.w3.org/1999/02/22-rdf-syntax-ns#"
   xmlns:svg="http://www.w3.org/2000/svg"
   xmlns="http://www.w3.org/2000/svg"
   xmlns:sodipodi="http://sodipodi.sourceforge.net/DTD/sodipodi-0.dtd"
   xmlns:inkscape="http://www.inkscape.org/namespaces/inkscape"
   width="110.54623mm"
   height="36.981033mm"
   viewBox="0 0 391.69923 131.03516"
   id="svg2"
   version="1.1"
   inkscape:version="0.91 r13725"
   sodipodi:docname="cta.svg">
  <defs
     id="defs4" />
  <sodipodi:namedview
     id="base"
     pagecolor="#ffffff"
     bordercolor="#666666"
     borderopacity="1.0"
     inkscape:pageopacity="0.0"
     inkscape:pageshadow="2"
     inkscape:zoom="2.1215258"
     inkscape:cx="195.84961"
     inkscape:cy="65.517579"
     inkscape:document-units="px"
     inkscape:current-layer="text4136"
     showgrid="false"
     fit-margin-top="0"
     fit-margin-left="0"
     fit-margin-right="0"
     fit-margin-bottom="0"
     inkscape:window-width="1440"
     inkscape:window-height="851"
     inkscape:window-x="0"
     inkscape:window-y="0"
     inkscape:window-maximized="1" />
  <metadata
     id="metadata7">
    <rdf:RDF>
      <cc:Work
         rdf:about="">
        <dc:format>image/svg+xml</dc:format>
        <dc:type
           rdf:resource="http://purl.org/dc/dcmitype/StillImage" />
        <dc:title></dc:title>
      </cc:Work>
    </rdf:RDF>
  </metadata>
  <g
     inkscape:label="Layer 1"
     inkscape:groupmode="layer"
     id="layer1"
     transform="translate(523.36493,-275.90573)">
    <g
       style="font-style:normal;font-weight:normal;font-size:40px;line-height:125%;font-family:Sans;letter-spacing:0px;word-spacing:0px;fill:#000000;fill-opacity:1;stroke:none;stroke-width:1px;stroke-linecap:butt;stroke-linejoin:miter;stroke-opacity:1"
       id="text4136">
      <path
         d="m -515.06415,276.68698 -3.33984,29.41406 q -0.0586,0.46875 -0.50781,0.48828 l -4.02344,0.13672 q -0.42969,0 -0.42969,-0.37109 l 3.37891,-29.55078 q 0.0781,-0.41016 0.50781,-0.44922 l 3.90625,-0.13672 q 0.50781,0.0195 0.50781,0.46875 z"
         style="font-style:normal;font-variant:normal;font-weight:normal;font-stretch:normal;font-family:'Contrail One';-inkscape-font-specification:'Contrail One';text-align:end;text-anchor:end"
         id="path4164" />
      <path
         d="m -499.88837,293.48386 -6.25,0.21484 -1.40625,12.32422 q -0.0781,0.44922 -0.50781,0.48828 l -4.02344,0.21484 q -0.42968,0 -0.42968,-0.37109 l 3.39843,-29.55078 q 0.0781,-0.41016 0.50782,-0.44922 l 10.70312,-0.44922 q 0.48828,0.0586 0.48828,0.52734 l -0.48828,4.04297 q -0.0586,0.50782 -0.50781,0.52735 l -6.28906,0.21484 -0.85938,7.5 6.17188,-0.21484 q 0.50781,0.0195 0.50781,0.50781 l -0.50781,3.98437 q -0.0781,0.44922 -0.50782,0.48829 z"
         style="font-style:normal;font-variant:normal;font-weight:normal;font-stretch:normal;font-family:'Contrail One';-inkscape-font-specification:'Contrail One';text-align:end;text-anchor:end"
         id="path4166" />
      <path
         d="m -481.06024,276.58932 2.22656,11.15235 4.00391,-10.9375 q 0.15625,-0.42969 0.48828,-0.44922 l 4.02344,-0.13672 q 0.23437,0.0195 0.37109,0.15625 0.15625,0.13672 0.15625,0.29297 l -7.28516,16.28906 -1.5039,13.14453 q -0.0586,0.46875 -0.50782,0.48828 l -4.02343,0.13672 q -0.42969,0 -0.42969,-0.37109 l 1.46484,-12.96875 -3.98437,-16.71875 q 0,-0.27344 0.52734,-0.3125 l 3.96485,-0.15625 q 0.42968,0.0195 0.50781,0.39062 z"
         style="font-style:normal;font-variant:normal;font-weight:normal;font-stretch:normal;font-family:'Contrail One';-inkscape-font-specification:'Contrail One';text-align:end;text-anchor:end"
         id="path4168" />
      <path
         d="m -462.19305,306.94089 q -3.28125,0 -4.96094,-1.95313 -1.67969,-1.95312 -1.67969,-4.88281 0,-7.46094 1.50391,-14.74609 1.1914,-5.72266 3.30078,-7.65625 1.99219,-1.79688 5.2539,-1.79688 3.28125,0 4.96094,1.97266 1.69922,1.97265 1.69922,4.86328 0,2.87109 -0.37109,6.97265 -0.3711,4.08204 -0.91797,6.83594 -0.54688,2.73438 -0.9375,4.00391 -0.3711,1.25 -1.03516,2.53906 -0.66406,1.28906 -1.54297,2.07031 -1.97265,1.77735 -5.27343,1.77735 z m 0.50781,-4.60938 q 2.48047,0 3.18359,-4.57031 0.46875,-3.02734 0.9375,-7.53906 0.46875,-4.51172 0.46875,-6.34766 0,-1.83594 -0.60547,-2.59766 -0.58593,-0.76171 -1.67968,-0.76171 -2.26563,0 -3.06641,4.58984 -0.46875,2.69531 -0.9375,7.32422 -0.46875,4.60937 -0.46875,6.5039 0,1.89454 0.60547,2.65625 0.625,0.74219 1.5625,0.74219 z"
         style="font-style:normal;font-variant:normal;font-weight:normal;font-stretch:normal;font-family:'Contrail One';-inkscape-font-specification:'Contrail One';text-align:end;text-anchor:end"
         id="path4170" />
      <path
         d="m -440.68915,276.68698 -2.24609,20.01953 q -0.27344,2.30469 -0.27344,3.28125 0,0.97656 0.54688,1.66016 0.54687,0.68359 1.77734,0.68359 1.23047,0 1.875,-1.23047 0.64453,-1.23047 0.95703,-3.94531 l 2.28516,-20.35156 q 0.0586,-0.42969 0.52734,-0.44922 l 3.94531,-0.15625 q 0.48828,0.0195 0.48828,0.46875 l -2.24609,20.03906 q -0.68359,6.15235 -3.16406,8.41797 -2.01172,1.81641 -5.25391,1.81641 -3.22265,0 -4.9414,-1.67969 -1.69922,-1.69922 -1.69922,-5 0,-1.58203 0.19531,-3.30078 l 2.30469,-20.15625 q 0.0391,-0.25391 0.11718,-0.33203 0.0977,-0.0977 0.3711,-0.11719 l 3.94531,-0.13672 q 0.48828,0.0195 0.48828,0.46875 z"
         style="font-style:normal;font-variant:normal;font-weight:normal;font-stretch:normal;font-family:'Contrail One';-inkscape-font-specification:'Contrail One';text-align:end;text-anchor:end"
         id="path4172" />
      <path
         d="m -411.58759,306.17917 q 0,0.39062 -0.52734,0.39062 l -4.39453,0.15625 q -0.29297,-0.0195 -0.42969,-0.37109 l -4.90234,-12.42188 -1.36719,12.16797 q -0.0586,0.46875 -0.48828,0.48828 l -4.08203,0.13672 q -0.42969,-0.0391 -0.42969,-0.37109 l 3.37891,-29.39453 q 0.0391,-0.35156 0.17578,-0.46875 0.13672,-0.13672 2.07031,-0.29297 1.93359,-0.17578 5.15625,-0.17578 3.22266,0 4.96094,1.71875 1.75781,1.69922 1.75781,4.39453 0,2.69531 -0.64453,4.76562 -0.64453,2.05079 -2.12891,3.69141 -1.48437,1.64063 -3.71093,2.44141 l 5.54687,12.91015 q 0.0586,0.11719 0.0586,0.23438 z m -8.75,-25.60547 -1.09375,9.70703 q 3.61329,-0.21484 4.98047,-3.28125 0.74219,-1.67969 0.74219,-3.39844 0,-1.73828 -0.72266,-2.42187 -0.70312,-0.70313 -2.05078,-0.70313 -1.34765,0 -1.85547,0.0977 z"
         style="font-style:normal;font-variant:normal;font-weight:normal;font-stretch:normal;font-family:'Contrail One';-inkscape-font-specification:'Contrail One';text-align:end;text-anchor:end"
         id="path4174" />
      <path
         d="m -387.29071,305.76901 q -0.0391,0.23438 -0.13672,0.33203 -0.0977,0.0977 -1.91406,0.42969 -1.81641,0.33203 -3.67188,0.33203 -3.04687,0 -4.66797,-1.97265 -1.62109,-1.97266 -1.62109,-5.3711 0,-6.03515 1.44531,-14.02344 0.76172,-4.29687 1.875,-6.03515 1.17188,-1.81641 2.8125,-2.53906 2.05078,-0.89844 4.375,-0.89844 2.34375,0 3.125,0.13672 0.80078,0.11718 0.89844,0.13672 0.25391,0.0781 0.25391,0.48828 l -0.44922,3.63281 q -0.0781,0.50781 -0.39063,0.50781 -0.3125,0 -1.44531,-0.15625 -1.13281,-0.17578 -1.83594,-0.17578 -1.875,0 -2.85156,0.95703 -0.97656,0.9375 -1.46484,3.63281 -0.46875,2.67579 -0.91797,7.20704 -0.44922,4.51171 -0.44922,6.91406 0,2.83203 2.5,2.83203 0.72266,0 2.51953,-0.23438 1.79688,-0.2539 2.05078,-0.2539 0.41016,0 0.41016,0.48828 l -0.44922,3.63281 z"
         style="font-style:normal;font-variant:normal;font-weight:normal;font-stretch:normal;font-family:'Contrail One';-inkscape-font-specification:'Contrail One';text-align:end;text-anchor:end"
         id="path4176" />
      <path
         d="m -364.65399,276.66745 -3.33985,29.43359 q -0.0781,0.44922 -0.48828,0.48828 l -4.02343,0.13672 q -0.42969,0 -0.42969,-0.37109 l 1.44531,-12.83203 -4.96094,0.17578 -1.40625,12.40234 q -0.0586,0.46875 -0.50781,0.48828 l -4.02344,0.13672 q -0.42968,0 -0.42968,-0.37109 l 3.35937,-29.55078 q 0.0781,-0.41016 0.50781,-0.44922 l 3.92578,-0.15625 q 0.50782,0.0195 0.50782,0.46875 l -1.42578,12.44141 4.98046,-0.17579 1.36719,-12.1289 q 0.0586,-0.42969 0.52735,-0.44922 l 3.90625,-0.15625 q 0.50781,0.0195 0.50781,0.46875 z"
         style="font-style:normal;font-variant:normal;font-weight:normal;font-stretch:normal;font-family:'Contrail One';-inkscape-font-specification:'Contrail One';text-align:end;text-anchor:end"
         id="path4178" />
      <path
         d="m -353.73602,276.68698 -2.2461,20.01953 q -0.27343,2.30469 -0.27343,3.28125 0,0.97656 0.54687,1.66016 0.54688,0.68359 1.77734,0.68359 1.23047,0 1.875,-1.23047 0.64454,-1.23047 0.95704,-3.94531 l 2.28515,-20.35156 q 0.0586,-0.42969 0.52735,-0.44922 l 3.94531,-0.15625 q 0.48828,0.0195 0.48828,0.46875 l -2.24609,20.03906 q -0.6836,6.15235 -3.16407,8.41797 -2.01172,1.81641 -5.2539,1.81641 -3.22266,0 -4.94141,-1.67969 -1.69922,-1.69922 -1.69922,-5 0,-1.58203 0.19531,-3.30078 l 2.30469,-20.15625 q 0.0391,-0.25391 0.11719,-0.33203 0.0977,-0.0977 0.37109,-0.11719 l 3.94532,-0.13672 q 0.48828,0.0195 0.48828,0.46875 z"
         style="font-style:normal;font-variant:normal;font-weight:normal;font-stretch:normal;font-family:'Contrail One';-inkscape-font-specification:'Contrail One';text-align:end;text-anchor:end"
         id="path4180" />
      <path
         d="m -324.63446,306.17917 q 0,0.39062 -0.52734,0.39062 l -4.39454,0.15625 q -0.29296,-0.0195 -0.42968,-0.37109 l -4.90235,-12.42188 -1.36718,12.16797 q -0.0586,0.46875 -0.48829,0.48828 l -4.08203,0.13672 q -0.42968,-0.0391 -0.42968,-0.37109 l 3.3789,-29.39453 q 0.0391,-0.35156 0.17578,-0.46875 0.13672,-0.13672 2.07032,-0.29297 1.93359,-0.17578 5.15625,-0.17578 3.22265,0 4.96093,1.71875 1.75782,1.69922 1.75782,4.39453 0,2.69531 -0.64454,4.76562 -0.64453,2.05079 -2.1289,3.69141 -1.48438,1.64063 -3.71094,2.44141 l 5.54688,12.91015 q 0.0586,0.11719 0.0586,0.23438 z m -8.75,-25.60547 -1.09375,9.70703 q 3.61328,-0.21484 4.98047,-3.28125 0.74219,-1.67969 0.74219,-3.39844 0,-1.73828 -0.72266,-2.42187 -0.70313,-0.70313 -2.05078,-0.70313 -1.34766,0 -1.85547,0.0977 z"
         style="font-style:normal;font-variant:normal;font-weight:normal;font-stretch:normal;font-family:'Contrail One';-inkscape-font-specification:'Contrail One';text-align:end;text-anchor:end"
         id="path4182" />
      <path
         d="m -308.54071,305.76901 q -0.0391,0.23438 -0.13672,0.33203 -0.0977,0.0977 -1.91406,0.42969 -1.81641,0.33203 -3.67188,0.33203 -3.04687,0 -4.66797,-1.97265 -1.62109,-1.97266 -1.62109,-5.3711 0,-6.03515 1.44531,-14.02344 0.76172,-4.29687 1.875,-6.03515 1.17188,-1.81641 2.8125,-2.53906 2.05078,-0.89844 4.375,-0.89844 2.34375,0 3.125,0.13672 0.80078,0.11718 0.89844,0.13672 0.25391,0.0781 0.25391,0.48828 l -0.44922,3.63281 q -0.0781,0.50781 -0.39063,0.50781 -0.3125,0 -1.44531,-0.15625 -1.13281,-0.17578 -1.83594,-0.17578 -1.875,0 -2.85156,0.95703 -0.97656,0.9375 -1.46484,3.63281 -0.46875,2.67579 -0.91797,7.20704 -0.44922,4.51171 -0.44922,6.91406 0,2.83203 2.5,2.83203 0.72266,0 2.51953,-0.23438 1.79688,-0.2539 2.05078,-0.2539 0.41016,0 0.41016,0.48828 l -0.44922,3.63281 z"
         style="font-style:normal;font-variant:normal;font-weight:normal;font-stretch:normal;font-family:'Contrail One';-inkscape-font-specification:'Contrail One';text-align:end;text-anchor:end"
         id="path4184" />
      <path
         d="m -285.90399,276.66745 -3.33985,29.43359 q -0.0781,0.44922 -0.48828,0.48828 l -4.02343,0.13672 q -0.42969,0 -0.42969,-0.37109 l 1.44531,-12.83203 -4.96094,0.17578 -1.40625,12.40234 q -0.0586,0.46875 -0.50781,0.48828 l -4.02344,0.13672 q -0.42968,0 -0.42968,-0.37109 l 3.35937,-29.55078 q 0.0781,-0.41016 0.50781,-0.44922 l 3.92578,-0.15625 q 0.50782,0.0195 0.50782,0.46875 l -1.42578,12.44141 4.98046,-0.17579 1.36719,-12.1289 q 0.0586,-0.42969 0.52735,-0.44922 l 3.90625,-0.15625 q 0.50781,0.0195 0.50781,0.46875 z"
         style="font-style:normal;font-variant:normal;font-weight:normal;font-stretch:normal;font-family:'Contrail One';-inkscape-font-specification:'Contrail One';text-align:end;text-anchor:end"
         id="path4186" />
      <path
         d="m -259.2243,276.21823 q 0.42968,0 0.42968,0.37109 l 0.23438,22.57813 4.84375,-22.34375 q 0.13672,-0.42969 0.46875,-0.46875 l 3.6914,-0.13672 q 0.39063,0.0391 0.39063,0.37109 l -7.85156,29.49219 q -0.13672,0.42969 -0.42969,0.46875 l -4.51172,0.17578 q -0.42969,-0.0195 -0.42969,-0.48828 l -0.17578,-18.30078 -3.76953,18.16406 q -0.11719,0.46875 -0.46875,0.46875 l -4.6875,0.15625 q -0.41016,-0.0195 -0.44922,-0.48828 l -1.64062,-29.41406 q 0,-0.44922 0.52734,-0.46875 l 4.0625,-0.13672 q 0.42969,0 0.42969,0.37109 l 0.27344,22.94922 4.96093,-22.71484 q 0.0781,-0.41016 0.60547,-0.46875 l 3.4961,-0.13672 z"
         style="font-style:normal;font-variant:normal;font-weight:normal;font-stretch:normal;font-family:'Contrail One';-inkscape-font-specification:'Contrail One';text-align:end;text-anchor:end"
         id="path4188" />
      <path
         d="m -235.94305,276.66745 2.28515,29.41406 q 0,0.44922 -0.50781,0.48828 l -4.08203,0.15625 q -0.41016,0 -0.41016,-0.37109 l -0.29297,-6.44531 -4.43359,0.17578 -1.46484,6.01562 q -0.0586,0.27344 -0.15625,0.3711 -0.0977,0.0976 -0.35157,0.11718 l -4.04297,0.13672 q -0.39062,0 -0.39062,-0.37109 l 8.57422,-29.55078 q 0.13672,-0.42969 0.52734,-0.44922 l 4.29688,-0.15625 q 0.41015,0.0195 0.44922,0.46875 z m -3.69141,8.04687 -2.73438,11.21094 3.24219,-0.11719 -0.50781,-11.09375 z"
         style="font-style:normal;font-variant:normal;font-weight:normal;font-stretch:normal;font-family:'Contrail One';-inkscape-font-specification:'Contrail One';text-align:end;text-anchor:end"
         id="path4190" />
      <path
         d="m -229.88837,306.94089 q -0.48828,0 -0.48828,-0.46875 l 0.48828,-4.08203 q 0.0781,-0.42969 0.50782,-0.46875 3.04687,-0.3125 4.02343,-0.95704 0.97657,-0.66406 0.97657,-2.61718 0,-1.95313 -0.9961,-5.07813 -0.99609,-3.14453 -1.28906,-4.17969 -0.9375,-3.32031 -0.9375,-5.42968 0,-2.12891 0.68359,-3.63282 0.6836,-1.5039 1.95313,-2.40234 2.46094,-1.71875 6.62109,-1.71875 0.52735,0 0.52735,0.48828 l -0.52735,4.04297 q -0.0781,0.48828 -0.48828,0.52734 -3.78906,0.25391 -3.78906,2.2461 0,1.83594 1.60156,7.22656 1.62109,5.37109 1.62109,7.69531 0,8.8086 -10.48828,8.8086 z"
         style="font-style:normal;font-variant:normal;font-weight:normal;font-stretch:normal;font-family:'Contrail One';-inkscape-font-specification:'Contrail One';text-align:end;text-anchor:end"
         id="path4192" />
      <path
         d="m -192.79852,280.92526 -3.28125,-0.33203 q -1.77735,0 -2.75391,0.85938 -1.03516,0.95703 -1.52344,3.6914 -0.48828,2.71485 -0.9375,7.2461 -0.44922,4.51171 -0.44922,6.52343 0,1.99219 0.64454,2.83203 0.64453,0.82032 1.52343,0.82032 0.89844,0 1.44532,-0.0195 l 1.28906,-11.07422 q 0.0781,-0.42969 0.50781,-0.46875 l 3.67188,-0.13672 q 0.52734,0.0195 0.52734,0.46875 l -1.64063,14.64844 q -0.0781,0.42968 -0.52734,0.48828 -2.59766,0.39062 -6.32812,0.39062 -4.47266,0 -5.74219,-4.3164 -0.35156,-1.19141 -0.35156,-2.36329 0,-1.17187 0.0781,-2.77343 0.23438,-5.74219 1.36719,-11.91407 0.76172,-4.29687 1.875,-6.03515 1.17187,-1.81641 2.8125,-2.53906 2.05078,-0.89844 4.39453,-0.89844 2.34375,0 3.125,0.13672 0.78125,0.11718 0.87891,0.13672 0.23437,0.0781 0.23437,0.48828 l -0.42969,3.63281 q -0.0781,0.50781 -0.41015,0.50781 z"
         style="font-style:normal;font-variant:normal;font-weight:normal;font-stretch:normal;font-family:'Contrail One';-inkscape-font-specification:'Contrail One';text-align:end;text-anchor:end"
         id="path4194" />
      <path
         d="m -181.4118,306.94089 q -3.28125,0 -4.96094,-1.95313 -1.67969,-1.95312 -1.67969,-4.88281 0,-7.46094 1.50391,-14.74609 1.1914,-5.72266 3.30078,-7.65625 1.99219,-1.79688 5.2539,-1.79688 3.28125,0 4.96094,1.97266 1.69922,1.97265 1.69922,4.86328 0,2.87109 -0.37109,6.97265 -0.3711,4.08204 -0.91797,6.83594 -0.54688,2.73438 -0.9375,4.00391 -0.3711,1.25 -1.03516,2.53906 -0.66406,1.28906 -1.54297,2.07031 -1.97265,1.77735 -5.27343,1.77735 z m 0.50781,-4.60938 q 2.48047,0 3.18359,-4.57031 0.46875,-3.02734 0.9375,-7.53906 0.46875,-4.51172 0.46875,-6.34766 0,-1.83594 -0.60547,-2.59766 -0.58593,-0.76171 -1.67968,-0.76171 -2.26563,0 -3.06641,4.58984 -0.46875,2.69531 -0.9375,7.32422 -0.46875,4.60937 -0.46875,6.5039 0,1.89454 0.60547,2.65625 0.625,0.74219 1.5625,0.74219 z"
         style="font-style:normal;font-variant:normal;font-weight:normal;font-stretch:normal;font-family:'Contrail One';-inkscape-font-specification:'Contrail One';text-align:end;text-anchor:end"
         id="path4196" />
      <path
         d="m -149.57587,276.60886 -3.35937,29.41406 q -0.0781,0.44922 -0.50781,0.48828 l -3.86719,0.21484 q -0.33203,0 -0.39063,-0.37109 l -4.10156,-20.85938 -1.44531,20.60547 q -0.0195,0.46875 -0.50781,0.48828 l -4.02344,0.13672 q -0.42969,0 -0.42969,-0.37109 l 3.37891,-29.55078 q 0.0781,-0.41016 0.50781,-0.44922 l 3.96484,-0.21484 q 0.27344,0 0.35157,0.11718 0.0976,0.0977 0.15625,0.35157 l 3.96484,19.70703 1.36719,-19.51172 q 0.0195,-0.42969 0.52734,-0.44922 l 3.88672,-0.21484 q 0.52734,0 0.52734,0.46875 z"
         style="font-style:normal;font-variant:normal;font-weight:normal;font-stretch:normal;font-family:'Contrail One';-inkscape-font-specification:'Contrail One';text-align:end;text-anchor:end"
         id="path4198" />
      <path
         d="m -134.57587,293.28854 -6.07422,0.23438 -0.91796,8.00781 7.48046,-0.25391 q 0.50782,0.0195 0.50782,0.50782 l -0.50782,4.04297 q -0.0391,0.41015 -0.50781,0.50781 l -12.01172,0.39062 q -0.42968,0 -0.42968,-0.37109 l 3.3789,-29.55078 q 0.0781,-0.41016 0.50781,-0.44922 l 10.70313,-0.37109 q 0.48828,0.0586 0.48828,0.52734 l -0.48828,4.04297 q -0.0586,0.48828 -0.50781,0.52734 l -6.28907,0.17578 -0.83984,7.26563 6.01563,-0.21485 q 0.50781,0.0195 0.50781,0.50782 l -0.50781,3.98437 q -0.0781,0.44922 -0.50782,0.48828 z"
         style="font-style:normal;font-variant:normal;font-weight:normal;font-stretch:normal;font-family:'Contrail One';-inkscape-font-specification:'Contrail One';text-align:end;text-anchor:end"
         id="path4200" />
      <path
         d="m -485.66962,326.43307 12.65625,-0.44921 q 0.44922,0.0195 0.44922,0.48828 l -0.50781,4.0039 q -0.0391,0.29297 -0.13672,0.41016 -0.0781,0.11719 -0.35156,0.13672 l -3.78906,0.13672 -2.85157,24.9414 q -0.0586,0.46875 -0.50781,0.48828 l -4.0625,0.13672 q -0.39062,0 -0.39062,-0.37109 l 2.87109,-25.03906 -3.88672,0.11718 q -0.48828,-0.0195 -0.48828,-0.44921 l 0.48828,-4.0625 q 0.0195,-0.46875 0.50781,-0.48829 z"
         style="font-style:normal;font-variant:normal;font-weight:normal;font-stretch:normal;font-family:'Contrail One';-inkscape-font-specification:'Contrail One';text-align:end;text-anchor:end"
         id="path4202" />
      <path
         d="m -464.8493,356.94089 q -3.28125,0 -4.96094,-1.95313 -1.67969,-1.95312 -1.67969,-4.88281 0,-7.46094 1.50391,-14.74609 1.1914,-5.72266 3.30078,-7.65625 1.99219,-1.79688 5.2539,-1.79688 3.28125,0 4.96094,1.97266 1.69922,1.97265 1.69922,4.86328 0,2.87109 -0.37109,6.97265 -0.3711,4.08204 -0.91797,6.83594 -0.54688,2.73438 -0.9375,4.00391 -0.3711,1.25 -1.03516,2.53906 -0.66406,1.28906 -1.54297,2.07031 -1.97265,1.77735 -5.27343,1.77735 z m 0.50781,-4.60938 q 2.48047,0 3.18359,-4.57031 0.46875,-3.02734 0.9375,-7.53906 0.46875,-4.51172 0.46875,-6.34766 0,-1.83594 -0.60547,-2.59766 -0.58593,-0.76171 -1.67968,-0.76171 -2.26563,0 -3.06641,4.58984 -0.46875,2.69531 -0.9375,7.32422 -0.46875,4.60937 -0.46875,6.5039 0,1.89454 0.60547,2.65625 0.625,0.74219 1.5625,0.74219 z"
         style="font-style:normal;font-variant:normal;font-weight:normal;font-stretch:normal;font-family:'Contrail One';-inkscape-font-specification:'Contrail One';text-align:end;text-anchor:end"
         id="path4204" />
      <path
         d="m -443.87274,356.35495 -1.64063,-23.37891 -1.46484,23.10547 q -0.0391,0.48828 -0.50781,0.50781 l -3.73047,0.13672 q -0.42969,-0.0391 -0.42969,-0.37109 l 3.35938,-29.55078 q 0.0391,-0.23438 0.11718,-0.33203 0.0977,-0.0977 0.39063,-0.11719 l 4.92187,-0.17578 q 0.46875,0.0195 0.50782,0.46875 l 1.77734,23.51562 6.77734,-23.35937 q 0.0977,-0.42969 0.54688,-0.44922 l 5.13672,-0.17578 q 0.48828,0.0195 0.48828,0.46875 l -3.32031,29.45312 q -0.0586,0.46875 -0.52735,0.48828 l -4.02344,0.13672 q -0.41015,0 -0.41015,-0.37109 l 3.80859,-23.80859 -6.99219,23.57421 q -0.15625,0.44922 -0.5664,0.46875 l -3.78906,0.13672 q -0.39063,-0.0391 -0.42969,-0.37109 z"
         style="font-style:normal;font-variant:normal;font-weight:normal;font-stretch:normal;font-family:'Contrail One';-inkscape-font-specification:'Contrail One';text-align:end;text-anchor:end"
         id="path4206" />
      <path
         d="m -417.89618,356.94089 q -3.28125,0 -4.96094,-1.95313 -1.67968,-1.95312 -1.67968,-4.88281 0,-7.46094 1.5039,-14.74609 1.19141,-5.72266 3.30078,-7.65625 1.99219,-1.79688 5.25391,-1.79688 3.28125,0 4.96094,1.97266 1.69922,1.97265 1.69922,4.86328 0,2.87109 -0.3711,6.97265 -0.37109,4.08204 -0.91797,6.83594 -0.54687,2.73438 -0.9375,4.00391 -0.37109,1.25 -1.03515,2.53906 -0.66407,1.28906 -1.54297,2.07031 -1.97266,1.77735 -5.27344,1.77735 z m 0.50781,-4.60938 q 2.48047,0 3.1836,-4.57031 0.46875,-3.02734 0.9375,-7.53906 0.46875,-4.51172 0.46875,-6.34766 0,-1.83594 -0.60547,-2.59766 -0.58594,-0.76171 -1.67969,-0.76171 -2.26562,0 -3.06641,4.58984 -0.46875,2.69531 -0.9375,7.32422 -0.46875,4.60937 -0.46875,6.5039 0,1.89454 0.60547,2.65625 0.625,0.74219 1.5625,0.74219 z"
         style="font-style:normal;font-variant:normal;font-weight:normal;font-stretch:normal;font-family:'Contrail One';-inkscape-font-specification:'Contrail One';text-align:end;text-anchor:end"
         id="path4208" />
      <path
         d="m -388.07196,356.17917 q 0,0.39062 -0.52734,0.39062 l -4.39454,0.15625 q -0.29296,-0.0195 -0.42968,-0.37109 l -4.90235,-12.42188 -1.36718,12.16797 q -0.0586,0.46875 -0.48829,0.48828 l -4.08203,0.13672 q -0.42968,-0.0391 -0.42968,-0.37109 l 3.3789,-29.39453 q 0.0391,-0.35156 0.17578,-0.46875 0.13672,-0.13672 2.07032,-0.29297 1.93359,-0.17578 5.15625,-0.17578 3.22265,0 4.96093,1.71875 1.75782,1.69922 1.75782,4.39453 0,2.69531 -0.64454,4.76562 -0.64453,2.05079 -2.1289,3.69141 -1.48438,1.64063 -3.71094,2.44141 l 5.54688,12.91015 q 0.0586,0.11719 0.0586,0.23438 z m -8.75,-25.60547 -1.09375,9.70703 q 3.61328,-0.21484 4.98047,-3.28125 0.74219,-1.67969 0.74219,-3.39844 0,-1.73828 -0.72266,-2.42187 -0.70313,-0.70313 -2.05078,-0.70313 -1.34766,0 -1.85547,0.0977 z"
         style="font-style:normal;font-variant:normal;font-weight:normal;font-stretch:normal;font-family:'Contrail One';-inkscape-font-specification:'Contrail One';text-align:end;text-anchor:end"
         id="path4210" />
      <path
         d="m -367.91571,356.17917 q 0,0.39062 -0.52734,0.39062 l -4.39454,0.15625 q -0.29296,-0.0195 -0.42968,-0.37109 l -4.90235,-12.42188 -1.36718,12.16797 q -0.0586,0.46875 -0.48829,0.48828 l -4.08203,0.13672 q -0.42968,-0.0391 -0.42968,-0.37109 l 3.3789,-29.39453 q 0.0391,-0.35156 0.17578,-0.46875 0.13672,-0.13672 2.07032,-0.29297 1.93359,-0.17578 5.15625,-0.17578 3.22265,0 4.96093,1.71875 1.75782,1.69922 1.75782,4.39453 0,2.69531 -0.64454,4.76562 -0.64453,2.05079 -2.1289,3.69141 -1.48438,1.64063 -3.71094,2.44141 l 5.54688,12.91015 q 0.0586,0.11719 0.0586,0.23438 z m -8.75,-25.60547 -1.09375,9.70703 q 3.61328,-0.21484 4.98047,-3.28125 0.74219,-1.67969 0.74219,-3.39844 0,-1.73828 -0.72266,-2.42187 -0.70313,-0.70313 -2.05078,-0.70313 -1.34766,0 -1.85547,0.0977 z"
         style="font-style:normal;font-variant:normal;font-weight:normal;font-stretch:normal;font-family:'Contrail One';-inkscape-font-specification:'Contrail One';text-align:end;text-anchor:end"
         id="path4212" />
      <path
         d="m -357.19305,356.94089 q -3.28125,0 -4.96094,-1.95313 -1.67969,-1.95312 -1.67969,-4.88281 0,-7.46094 1.50391,-14.74609 1.1914,-5.72266 3.30078,-7.65625 1.99219,-1.79688 5.2539,-1.79688 3.28125,0 4.96094,1.97266 1.69922,1.97265 1.69922,4.86328 0,2.87109 -0.37109,6.97265 -0.3711,4.08204 -0.91797,6.83594 -0.54688,2.73438 -0.9375,4.00391 -0.3711,1.25 -1.03516,2.53906 -0.66406,1.28906 -1.54297,2.07031 -1.97265,1.77735 -5.27343,1.77735 z m 0.50781,-4.60938 q 2.48047,0 3.18359,-4.57031 0.46875,-3.02734 0.9375,-7.53906 0.46875,-4.51172 0.46875,-6.34766 0,-1.83594 -0.60547,-2.59766 -0.58593,-0.76171 -1.67968,-0.76171 -2.26563,0 -3.06641,4.58984 -0.46875,2.69531 -0.9375,7.32422 -0.46875,4.60937 -0.46875,6.5039 0,1.89454 0.60547,2.65625 0.625,0.74219 1.5625,0.74219 z"
         style="font-style:normal;font-variant:normal;font-weight:normal;font-stretch:normal;font-family:'Contrail One';-inkscape-font-specification:'Contrail One';text-align:end;text-anchor:end"
         id="path4214" />
      <path
         d="m -328.13055,326.21823 q 0.42968,0 0.42968,0.37109 l 0.23438,22.57813 4.84375,-22.34375 q 0.13672,-0.42969 0.46875,-0.46875 l 3.6914,-0.13672 q 0.39063,0.0391 0.39063,0.37109 l -7.85156,29.49219 q -0.13672,0.42969 -0.42969,0.46875 l -4.51172,0.17578 q -0.42969,-0.0195 -0.42969,-0.48828 l -0.17578,-18.30078 -3.76953,18.16406 q -0.11719,0.46875 -0.46875,0.46875 l -4.6875,0.15625 q -0.41016,-0.0195 -0.44922,-0.48828 l -1.64062,-29.41406 q 0,-0.44922 0.52734,-0.46875 l 4.0625,-0.13672 q 0.42969,0 0.42969,0.37109 l 0.27344,22.94922 4.96093,-22.71484 q 0.0781,-0.41016 0.60547,-0.46875 l 3.4961,-0.13672 z"
         style="font-style:normal;font-variant:normal;font-weight:normal;font-stretch:normal;font-family:'Contrail One';-inkscape-font-specification:'Contrail One';text-align:end;text-anchor:end"
         id="path4216" />
      <path
         d="m -316.70477,363.52292 q 0,-0.25391 0.52734,-2.48047 0.52734,-2.20703 0.68359,-4.31641 -0.89843,-0.27343 -1.36718,-1.01562 -0.46875,-0.76172 -0.46875,-1.875 0,-1.11328 1.01562,-2.10938 1.03516,-0.99609 2.34375,-0.99609 1.32813,0 2.07031,0.89844 0.74219,0.89843 0.74219,2.20703 0,2.32422 -1.05469,5.11719 -1.60156,4.27734 -2.46093,4.84375 -0.23438,0.13671 -1.64063,0.13671 -0.39062,0 -0.39062,-0.41015 z"
         style="font-style:normal;font-variant:normal;font-weight:normal;font-stretch:normal;font-family:'Contrail One';-inkscape-font-specification:'Contrail One';text-align:end;text-anchor:end"
         id="path4218" />
      <path
         d="m -281.56805,326.21823 q 0.42968,0 0.42968,0.37109 l 0.23438,22.57813 4.84375,-22.34375 q 0.13672,-0.42969 0.46875,-0.46875 l 3.6914,-0.13672 q 0.39063,0.0391 0.39063,0.37109 l -7.85156,29.49219 q -0.13672,0.42969 -0.42969,0.46875 l -4.51172,0.17578 q -0.42969,-0.0195 -0.42969,-0.48828 l -0.17578,-18.30078 -3.76953,18.16406 q -0.11719,0.46875 -0.46875,0.46875 l -4.6875,0.15625 q -0.41016,-0.0195 -0.44922,-0.48828 l -1.64062,-29.41406 q 0,-0.44922 0.52734,-0.46875 l 4.0625,-0.13672 q 0.42969,0 0.42969,0.37109 l 0.27344,22.94922 4.96093,-22.71484 q 0.0781,-0.41016 0.60547,-0.46875 l 3.4961,-0.13672 z"
         style="font-style:normal;font-variant:normal;font-weight:normal;font-stretch:normal;font-family:'Contrail One';-inkscape-font-specification:'Contrail One';text-align:end;text-anchor:end"
         id="path4220" />
      <path
         d="m -263.36493,356.94089 q -3.28125,0 -4.96094,-1.95313 -1.67968,-1.95312 -1.67968,-4.88281 0,-7.46094 1.5039,-14.74609 1.19141,-5.72266 3.30078,-7.65625 1.99219,-1.79688 5.25391,-1.79688 3.28125,0 4.96094,1.97266 1.69922,1.97265 1.69922,4.86328 0,2.87109 -0.3711,6.97265 -0.37109,4.08204 -0.91797,6.83594 -0.54687,2.73438 -0.9375,4.00391 -0.37109,1.25 -1.03515,2.53906 -0.66407,1.28906 -1.54297,2.07031 -1.97266,1.77735 -5.27344,1.77735 z m 0.50781,-4.60938 q 2.48047,0 3.1836,-4.57031 0.46875,-3.02734 0.9375,-7.53906 0.46875,-4.51172 0.46875,-6.34766 0,-1.83594 -0.60547,-2.59766 -0.58594,-0.76171 -1.67969,-0.76171 -2.26562,0 -3.06641,4.58984 -0.46875,2.69531 -0.9375,7.32422 -0.46875,4.60937 -0.46875,6.5039 0,1.89454 0.60547,2.65625 0.625,0.74219 1.5625,0.74219 z"
         style="font-style:normal;font-variant:normal;font-weight:normal;font-stretch:normal;font-family:'Contrail One';-inkscape-font-specification:'Contrail One';text-align:end;text-anchor:end"
         id="path4222" />
      <path
         d="m -241.86102,326.68698 -2.2461,20.01953 q -0.27343,2.30469 -0.27343,3.28125 0,0.97656 0.54687,1.66016 0.54688,0.68359 1.77734,0.68359 1.23047,0 1.875,-1.23047 0.64454,-1.23047 0.95704,-3.94531 l 2.28515,-20.35156 q 0.0586,-0.42969 0.52735,-0.44922 l 3.94531,-0.15625 q 0.48828,0.0195 0.48828,0.46875 l -2.24609,20.03906 q -0.6836,6.15235 -3.16407,8.41797 -2.01172,1.81641 -5.2539,1.81641 -3.22266,0 -4.94141,-1.67969 -1.69922,-1.69922 -1.69922,-5 0,-1.58203 0.19531,-3.30078 l 2.30469,-20.15625 q 0.0391,-0.25391 0.11719,-0.33203 0.0977,-0.0977 0.37109,-0.11719 l 3.94532,-0.13672 q 0.48828,0.0195 0.48828,0.46875 z"
         style="font-style:normal;font-variant:normal;font-weight:normal;font-stretch:normal;font-family:'Contrail One';-inkscape-font-specification:'Contrail One';text-align:end;text-anchor:end"
         id="path4224" />
      <path
         d="m -221.11884,326.68698 -2.79296,24.82422 7.48046,-0.29297 q 0.50782,0.0195 0.50782,0.50781 l -0.50782,4.04297 q -0.0586,0.50781 -0.50781,0.52735 l -12.03125,0.42968 q -0.41015,0 -0.41015,-0.37109 l 3.33984,-29.55078 q 0.0391,-0.23438 0.11719,-0.33203 0.0976,-0.0977 0.37109,-0.11719 l 3.92578,-0.13672 q 0.50781,0.0195 0.50781,0.46875 z"
         style="font-style:normal;font-variant:normal;font-weight:normal;font-stretch:normal;font-family:'Contrail One';-inkscape-font-specification:'Contrail One';text-align:end;text-anchor:end"
         id="path4226" />
      <path
         d="m -208.73602,326.80417 q 0.0391,-0.23438 0.13672,-0.33203 0.0976,-0.0977 1.97265,-0.27344 1.875,-0.17578 5.13672,-0.17578 3.28125,0 5.03906,1.89453 1.75782,1.875 1.75782,5.15625 0,6.19141 -1.38672,14.25781 -0.74219,4.27735 -2.40235,6.36719 -1.52343,1.91406 -4.76562,2.51953 -1.46485,0.25391 -3.57422,0.33203 l -4.86328,0.17578 q -0.42969,-0.0195 -0.42969,-0.37109 l 3.37891,-29.55078 z m 4.47265,3.76953 -2.38281,21.26953 q 2.91016,-0.25391 4.02344,-1.13281 1.13281,-0.87891 1.58203,-3.33985 0.44922,-2.46093 0.87891,-6.71875 0.44921,-4.25781 0.44921,-6.97265 0,-1.60156 -0.78125,-2.38281 -0.78125,-0.78125 -2.1289,-0.78125 -1.32813,0 -1.64063,0.0586 z"
         style="font-style:normal;font-variant:normal;font-weight:normal;font-stretch:normal;font-family:'Contrail One';-inkscape-font-specification:'Contrail One';text-align:end;text-anchor:end"
         id="path4228" />
      <path
         d="m -181.45087,326.43307 12.65625,-0.44921 q 0.44922,0.0195 0.44922,0.48828 l -0.50781,4.0039 q -0.0391,0.29297 -0.13672,0.41016 -0.0781,0.11719 -0.35156,0.13672 l -3.78906,0.13672 -2.85157,24.9414 q -0.0586,0.46875 -0.50781,0.48828 l -4.0625,0.13672 q -0.39062,0 -0.39062,-0.37109 l 2.87109,-25.03906 -3.88672,0.11718 q -0.48828,-0.0195 -0.48828,-0.44921 l 0.48828,-4.0625 q 0.0195,-0.46875 0.50781,-0.48829 z"
         style="font-style:normal;font-variant:normal;font-weight:normal;font-stretch:normal;font-family:'Contrail One';-inkscape-font-specification:'Contrail One';text-align:end;text-anchor:end"
         id="path4230" />
      <path
         d="m -149.65399,326.66745 -3.33985,29.43359 q -0.0781,0.44922 -0.48828,0.48828 l -4.02343,0.13672 q -0.42969,0 -0.42969,-0.37109 l 1.44531,-12.83203 -4.96094,0.17578 -1.40625,12.40234 q -0.0586,0.46875 -0.50781,0.48828 l -4.02344,0.13672 q -0.42968,0 -0.42968,-0.37109 l 3.35937,-29.55078 q 0.0781,-0.41016 0.50781,-0.44922 l 3.92578,-0.15625 q 0.50782,0.0195 0.50782,0.46875 l -1.42578,12.44141 4.98046,-0.17579 1.36719,-12.1289 q 0.0586,-0.42969 0.52735,-0.44922 l 3.90625,-0.15625 q 0.50781,0.0195 0.50781,0.46875 z"
         style="font-style:normal;font-variant:normal;font-weight:normal;font-stretch:normal;font-family:'Contrail One';-inkscape-font-specification:'Contrail One';text-align:end;text-anchor:end"
         id="path4232" />
      <path
         d="m -134.57587,343.28854 -6.07422,0.23438 -0.91796,8.00781 7.48046,-0.25391 q 0.50782,0.0195 0.50782,0.50782 l -0.50782,4.04297 q -0.0391,0.41015 -0.50781,0.50781 l -12.01172,0.39062 q -0.42968,0 -0.42968,-0.37109 l 3.3789,-29.55078 q 0.0781,-0.41016 0.50781,-0.44922 l 10.70313,-0.37109 q 0.48828,0.0586 0.48828,0.52734 l -0.48828,4.04297 q -0.0586,0.48828 -0.50781,0.52734 l -6.28907,0.17578 -0.83984,7.26563 6.01563,-0.21485 q 0.50781,0.0195 0.50781,0.50782 l -0.50781,3.98437 q -0.0781,0.44922 -0.50782,0.48828 z"
         style="font-style:normal;font-variant:normal;font-weight:normal;font-stretch:normal;font-family:'Contrail One';-inkscape-font-specification:'Contrail One';text-align:end;text-anchor:end"
         id="path4234" />
      <path
         d="m -419.94696,405.76901 q -0.0391,0.23438 -0.13672,0.33203 -0.0977,0.0977 -1.91406,0.42969 -1.81641,0.33203 -3.67188,0.33203 -3.04687,0 -4.66797,-1.97265 -1.62109,-1.97266 -1.62109,-5.3711 0,-6.03515 1.44531,-14.02344 0.76172,-4.29687 1.875,-6.03515 1.17188,-1.81641 2.8125,-2.53906 2.05078,-0.89844 4.375,-0.89844 2.34375,0 3.125,0.13672 0.80078,0.11718 0.89844,0.13672 0.25391,0.0781 0.25391,0.48828 l -0.44922,3.63281 q -0.0781,0.50781 -0.39063,0.50781 -0.3125,0 -1.44531,-0.15625 -1.13281,-0.17578 -1.83594,-0.17578 -1.875,0 -2.85156,0.95703 -0.97656,0.9375 -1.46484,3.63281 -0.46875,2.67579 -0.91797,7.20704 -0.44922,4.51171 -0.44922,6.91406 0,2.83203 2.5,2.83203 0.72266,0 2.51953,-0.23438 1.79688,-0.2539 2.05078,-0.2539 0.41016,0 0.41016,0.48828 l -0.44922,3.63281 z"
         style="font-style:normal;font-variant:normal;font-weight:normal;font-stretch:normal;font-family:'Contrail One';-inkscape-font-specification:'Contrail One';text-align:end;text-anchor:end"
         id="path4236" />
      <path
         d="m -408.2868,406.94089 q -3.28125,0 -4.96094,-1.95313 -1.67969,-1.95312 -1.67969,-4.88281 0,-7.46094 1.50391,-14.74609 1.1914,-5.72266 3.30078,-7.65625 1.99219,-1.79688 5.2539,-1.79688 3.28125,0 4.96094,1.97266 1.69922,1.97265 1.69922,4.86328 0,2.87109 -0.37109,6.97265 -0.3711,4.08204 -0.91797,6.83594 -0.54688,2.73438 -0.9375,4.00391 -0.3711,1.25 -1.03516,2.53906 -0.66406,1.28906 -1.54297,2.07031 -1.97265,1.77735 -5.27343,1.77735 z m 0.50781,-4.60938 q 2.48047,0 3.18359,-4.57031 0.46875,-3.02734 0.9375,-7.53906 0.46875,-4.51172 0.46875,-6.34766 0,-1.83594 -0.60547,-2.59766 -0.58593,-0.76171 -1.67968,-0.76171 -2.26563,0 -3.06641,4.58984 -0.46875,2.69531 -0.9375,7.32422 -0.46875,4.60937 -0.46875,6.5039 0,1.89454 0.60547,2.65625 0.625,0.74219 1.5625,0.74219 z"
         style="font-style:normal;font-variant:normal;font-weight:normal;font-stretch:normal;font-family:'Contrail One';-inkscape-font-specification:'Contrail One';text-align:end;text-anchor:end"
         id="path4238" />
      <path
         d="m -387.31024,406.35495 -1.64063,-23.37891 -1.46484,23.10547 q -0.0391,0.48828 -0.50781,0.50781 l -3.73047,0.13672 q -0.42969,-0.0391 -0.42969,-0.37109 l 3.35938,-29.55078 q 0.0391,-0.23438 0.11718,-0.33203 0.0977,-0.0977 0.39063,-0.11719 l 4.92187,-0.17578 q 0.46875,0.0195 0.50782,0.46875 l 1.77734,23.51562 6.77734,-23.35937 q 0.0977,-0.42969 0.54688,-0.44922 l 5.13672,-0.17578 q 0.48828,0.0195 0.48828,0.46875 l -3.32031,29.45312 q -0.0586,0.46875 -0.52735,0.48828 l -4.02344,0.13672 q -0.41015,0 -0.41015,-0.37109 l 3.80859,-23.80859 -6.99219,23.57421 q -0.15625,0.44922 -0.5664,0.46875 l -3.78906,0.13672 q -0.39063,-0.0391 -0.42969,-0.37109 z"
         style="font-style:normal;font-variant:normal;font-weight:normal;font-stretch:normal;font-family:'Contrail One';-inkscape-font-specification:'Contrail One';text-align:end;text-anchor:end"
         id="path4240" />
      <path
         d="m -360.74774,406.35495 -1.64063,-23.37891 -1.46484,23.10547 q -0.0391,0.48828 -0.50781,0.50781 l -3.73047,0.13672 q -0.42969,-0.0391 -0.42969,-0.37109 l 3.35938,-29.55078 q 0.0391,-0.23438 0.11718,-0.33203 0.0977,-0.0977 0.39063,-0.11719 l 4.92187,-0.17578 q 0.46875,0.0195 0.50782,0.46875 l 1.77734,23.51562 6.77734,-23.35937 q 0.0977,-0.42969 0.54688,-0.44922 l 5.13672,-0.17578 q 0.48828,0.0195 0.48828,0.46875 l -3.32031,29.45312 q -0.0586,0.46875 -0.52735,0.48828 l -4.02344,0.13672 q -0.41015,0 -0.41015,-0.37109 l 3.80859,-23.80859 -6.99219,23.57421 q -0.15625,0.44922 -0.5664,0.46875 l -3.78906,0.13672 q -0.39063,-0.0391 -0.42969,-0.37109 z"
         style="font-style:normal;font-variant:normal;font-weight:normal;font-stretch:normal;font-family:'Contrail One';-inkscape-font-specification:'Contrail One';text-align:end;text-anchor:end"
         id="path4242" />
      <path
         d="m -333.6579,376.68698 -2.24609,20.01953 q -0.27344,2.30469 -0.27344,3.28125 0,0.97656 0.54688,1.66016 0.54687,0.68359 1.77734,0.68359 1.23047,0 1.875,-1.23047 0.64453,-1.23047 0.95703,-3.94531 l 2.28516,-20.35156 q 0.0586,-0.42969 0.52734,-0.44922 l 3.94531,-0.15625 q 0.48828,0.0195 0.48828,0.46875 l -2.24609,20.03906 q -0.68359,6.15235 -3.16406,8.41797 -2.01172,1.81641 -5.25391,1.81641 -3.22265,0 -4.9414,-1.67969 -1.69922,-1.69922 -1.69922,-5 0,-1.58203 0.19531,-3.30078 l 2.30469,-20.15625 q 0.0391,-0.25391 0.11718,-0.33203 0.0977,-0.0977 0.3711,-0.11719 l 3.94531,-0.13672 q 0.48828,0.0195 0.48828,0.46875 z"
         style="font-style:normal;font-variant:normal;font-weight:normal;font-stretch:normal;font-family:'Contrail One';-inkscape-font-specification:'Contrail One';text-align:end;text-anchor:end"
         id="path4244" />
      <path
         d="m -302.54462,376.60886 -3.35937,29.41406 q -0.0781,0.44922 -0.50781,0.48828 l -3.86719,0.21484 q -0.33203,0 -0.39063,-0.37109 l -4.10156,-20.85938 -1.44531,20.60547 q -0.0195,0.46875 -0.50781,0.48828 l -4.02344,0.13672 q -0.42969,0 -0.42969,-0.37109 l 3.37891,-29.55078 q 0.0781,-0.41016 0.50781,-0.44922 l 3.96484,-0.21484 q 0.27344,0 0.35157,0.11718 0.0977,0.0977 0.15625,0.35157 l 3.96484,19.70703 1.36719,-19.51172 q 0.0195,-0.42969 0.52734,-0.44922 l 3.88672,-0.21484 q 0.52734,0 0.52734,0.46875 z"
         style="font-style:normal;font-variant:normal;font-weight:normal;font-stretch:normal;font-family:'Contrail One';-inkscape-font-specification:'Contrail One';text-align:end;text-anchor:end"
         id="path4246" />
      <path
         d="m -291.70477,376.68698 -3.33985,29.41406 q -0.0586,0.46875 -0.50781,0.48828 l -4.02344,0.13672 q -0.42968,0 -0.42968,-0.37109 l 3.3789,-29.55078 q 0.0781,-0.41016 0.50781,-0.44922 l 3.90625,-0.13672 q 0.50782,0.0195 0.50782,0.46875 z"
         style="font-style:normal;font-variant:normal;font-weight:normal;font-stretch:normal;font-family:'Contrail One';-inkscape-font-specification:'Contrail One';text-align:end;text-anchor:end"
         id="path4248" />
      <path
         d="m -287.31024,376.43307 12.65625,-0.44921 q 0.44922,0.0195 0.44922,0.48828 l -0.50782,4.0039 q -0.0391,0.29297 -0.13671,0.41016 -0.0781,0.11719 -0.35157,0.13672 l -3.78906,0.13672 -2.85156,24.9414 q -0.0586,0.46875 -0.50781,0.48828 l -4.0625,0.13672 q -0.39063,0 -0.39063,-0.37109 l 2.87109,-25.03906 -3.88671,0.11718 q -0.48829,-0.0195 -0.48829,-0.44921 l 0.48829,-4.0625 q 0.0195,-0.46875 0.50781,-0.48829 z"
         style="font-style:normal;font-variant:normal;font-weight:normal;font-stretch:normal;font-family:'Contrail One';-inkscape-font-specification:'Contrail One';text-align:end;text-anchor:end"
         id="path4250" />
      <path
         d="m -267.85712,376.58932 2.22657,11.15235 4.0039,-10.9375 q 0.15625,-0.42969 0.48828,-0.44922 l 4.02344,-0.13672 q 0.23438,0.0195 0.37109,0.15625 0.15625,0.13672 0.15625,0.29297 l -7.28515,16.28906 -1.50391,13.14453 q -0.0586,0.46875 -0.50781,0.48828 l -4.02344,0.13672 q -0.42969,0 -0.42969,-0.37109 l 1.46485,-12.96875 -3.98438,-16.71875 q 0,-0.27344 0.52735,-0.3125 l 3.96484,-0.15625 q 0.42969,0.0195 0.50781,0.39062 z"
         style="font-style:normal;font-variant:normal;font-weight:normal;font-stretch:normal;font-family:'Contrail One';-inkscape-font-specification:'Contrail One';text-align:end;text-anchor:end"
         id="path4252" />
      <path
         d="m -229.34149,376.60886 -3.35938,29.41406 q -0.0781,0.44922 -0.50781,0.48828 l -3.86719,0.21484 q -0.33203,0 -0.39062,-0.37109 l -4.10156,-20.85938 -1.44532,20.60547 q -0.0195,0.46875 -0.50781,0.48828 l -4.02344,0.13672 q -0.42968,0 -0.42968,-0.37109 l 3.3789,-29.55078 q 0.0781,-0.41016 0.50781,-0.44922 l 3.96485,-0.21484 q 0.27344,0 0.35156,0.11718 0.0977,0.0977 0.15625,0.35157 l 3.96484,19.70703 1.36719,-19.51172 q 0.0195,-0.42969 0.52735,-0.44922 l 3.88671,-0.21484 q 0.52735,0 0.52735,0.46875 z"
         style="font-style:normal;font-variant:normal;font-weight:normal;font-stretch:normal;font-family:'Contrail One';-inkscape-font-specification:'Contrail One';text-align:end;text-anchor:end"
         id="path4254" />
      <path
         d="m -219.61493,406.94089 q -3.28125,0 -4.96094,-1.95313 -1.67968,-1.95312 -1.67968,-4.88281 0,-7.46094 1.5039,-14.74609 1.19141,-5.72266 3.30078,-7.65625 1.99219,-1.79688 5.25391,-1.79688 3.28125,0 4.96094,1.97266 1.69922,1.97265 1.69922,4.86328 0,2.87109 -0.3711,6.97265 -0.37109,4.08204 -0.91797,6.83594 -0.54687,2.73438 -0.9375,4.00391 -0.37109,1.25 -1.03515,2.53906 -0.66407,1.28906 -1.54297,2.07031 -1.97266,1.77735 -5.27344,1.77735 z m 0.50781,-4.60938 q 2.48047,0 3.1836,-4.57031 0.46875,-3.02734 0.9375,-7.53906 0.46875,-4.51172 0.46875,-6.34766 0,-1.83594 -0.60547,-2.59766 -0.58594,-0.76171 -1.67969,-0.76171 -2.26562,0 -3.06641,4.58984 -0.46875,2.69531 -0.9375,7.32422 -0.46875,4.60937 -0.46875,6.5039 0,1.89454 0.60547,2.65625 0.625,0.74219 1.5625,0.74219 z"
         style="font-style:normal;font-variant:normal;font-weight:normal;font-stretch:normal;font-family:'Contrail One';-inkscape-font-specification:'Contrail One';text-align:end;text-anchor:end"
         id="path4256" />
      <path
         d="m -204.57587,376.43307 12.65625,-0.44921 q 0.44922,0.0195 0.44922,0.48828 l -0.50781,4.0039 q -0.0391,0.29297 -0.13672,0.41016 -0.0781,0.11719 -0.35156,0.13672 l -3.78906,0.13672 -2.85157,24.9414 q -0.0586,0.46875 -0.50781,0.48828 l -4.0625,0.13672 q -0.39062,0 -0.39062,-0.37109 l 2.87109,-25.03906 -3.88672,0.11718 q -0.48828,-0.0195 -0.48828,-0.44921 l 0.48828,-4.0625 q 0.0195,-0.46875 0.50781,-0.48829 z"
         style="font-style:normal;font-variant:normal;font-weight:normal;font-stretch:normal;font-family:'Contrail One';-inkscape-font-specification:'Contrail One';text-align:end;text-anchor:end"
         id="path4258" />
      <path
         d="m -182.64227,376.68698 -3.33985,29.41406 q -0.0586,0.46875 -0.50781,0.48828 l -4.02344,0.13672 q -0.42968,0 -0.42968,-0.37109 l 3.3789,-29.55078 q 0.0781,-0.41016 0.50781,-0.44922 l 3.90625,-0.13672 q 0.50782,0.0195 0.50782,0.46875 z"
         style="font-style:normal;font-variant:normal;font-weight:normal;font-stretch:normal;font-family:'Contrail One';-inkscape-font-specification:'Contrail One';text-align:end;text-anchor:end"
         id="path4260" />
      <path
         d="m -167.52509,405.76901 q -0.0391,0.23438 -0.13671,0.33203 -0.0977,0.0977 -1.91407,0.42969 -1.8164,0.33203 -3.67187,0.33203 -3.04688,0 -4.66797,-1.97265 -1.62109,-1.97266 -1.62109,-5.3711 0,-6.03515 1.44531,-14.02344 0.76172,-4.29687 1.875,-6.03515 1.17187,-1.81641 2.8125,-2.53906 2.05078,-0.89844 4.375,-0.89844 2.34375,0 3.125,0.13672 0.80078,0.11718 0.89844,0.13672 0.2539,0.0781 0.2539,0.48828 l -0.44922,3.63281 q -0.0781,0.50781 -0.39062,0.50781 -0.3125,0 -1.44531,-0.15625 -1.13282,-0.17578 -1.83594,-0.17578 -1.875,0 -2.85156,0.95703 -0.97657,0.9375 -1.46485,3.63281 -0.46875,2.67579 -0.91797,7.20704 -0.44922,4.51171 -0.44922,6.91406 0,2.83203 2.5,2.83203 0.72266,0 2.51954,-0.23438 1.79687,-0.2539 2.05078,-0.2539 0.41015,0 0.41015,0.48828 l -0.44922,3.63281 z"
         style="font-style:normal;font-variant:normal;font-weight:normal;font-stretch:normal;font-family:'Contrail One';-inkscape-font-specification:'Contrail One';text-align:end;text-anchor:end"
         id="path4262" />
      <path
         d="m -150.59149,393.28854 -6.07422,0.23438 -0.91797,8.00781 7.48047,-0.25391 q 0.50781,0.0195 0.50781,0.50782 l -0.50781,4.04297 q -0.0391,0.41015 -0.50781,0.50781 l -12.01172,0.39062 q -0.42969,0 -0.42969,-0.37109 l 3.37891,-29.55078 q 0.0781,-0.41016 0.50781,-0.44922 l 10.70312,-0.37109 q 0.48829,0.0586 0.48829,0.52734 l -0.48829,4.04297 q -0.0586,0.48828 -0.50781,0.52734 l -6.28906,0.17578 -0.83984,7.26563 6.01562,-0.21485 q 0.50781,0.0195 0.50781,0.50782 l -0.50781,3.98437 q -0.0781,0.44922 -0.50781,0.48828 z"
         style="font-style:normal;font-variant:normal;font-weight:normal;font-stretch:normal;font-family:'Contrail One';-inkscape-font-specification:'Contrail One';text-align:end;text-anchor:end"
         id="path4264" />
      <path
         d="m -142.36884,398.26901 q -0.41015,0 -0.41015,-0.41015 0,-3.32032 0.97656,-5.58594 0.91797,-2.07031 2.12891,-3.59375 1.8164,-2.26563 2.42187,-3.4961 0.60547,-1.25 0.60547,-2.73437 0,-2.51953 -2.36328,-2.51953 -1.01563,0 -2.5,0.27344 -1.48438,0.27343 -1.77734,0.27343 -0.42969,0 -0.42969,-0.54687 l 0.46875,-3.71094 q 0.0391,-0.37109 0.48828,-0.52734 3.39844,-0.60547 5,-0.60547 2.77344,0 4.43359,1.85547 1.66016,1.83593 1.66016,4.51172 0,2.67578 -0.76172,4.41406 -0.74219,1.71875 -1.89453,3.22265 -1.15234,1.48438 -1.5625,2.07032 -0.41016,0.58593 -1.03516,1.69922 -1.11328,2.01171 -1.11328,4.74609 0,0.48828 -0.48828,0.50781 l -3.84766,0.15625 z m 1.54297,8.59375 q -1.26953,0 -2.05078,-0.80078 -0.78125,-0.82031 -0.78125,-2.07031 0,-1.26953 1.01563,-2.26563 1.03515,-0.99609 2.30468,-0.99609 1.28907,0 2.07032,0.80078 0.80078,0.80078 0.80078,2.07031 0,1.26953 -1.03516,2.26563 -1.03515,0.99609 -2.32422,0.99609 z"
         style="font-style:normal;font-variant:normal;font-weight:normal;font-stretch:normal;font-family:'Contrail One';-inkscape-font-specification:'Contrail One';text-align:end;text-anchor:end"
         id="path4266" />
    </g>
  </g>
</svg>
